<?xml version="1.0" encoding="UTF-8"?>
<svg id="Capa_1" xmlns="http://www.w3.org/2000/svg" version="1.1" viewBox="0 0 100 50">
  <!-- Generator: Adobe Illustrator 30.1.0, SVG Export Plug-In . SVG Version: 2.1.1 Build 136)  -->
  <defs>
    <style>
      .st0 {
        fill: #f5b23d;
      }

      .st1 {
        opacity: .5;
      }
    </style>
  </defs>
  <g>
    <path class="st0" d="M13.3,27.8c2.1,2.1,5.5,2.1,7.5,0,1-1,1.5-2.3,1.5-3.8,0-1.4-.6-2.8-1.6-3.8-1-1-2.3-1.5-3.7-1.5s0,0,0,0c-1.4,0-2.8.6-3.8,1.6-2.1,2.1-2.1,5.5,0,7.5ZM17,32.5c-2.1,0-4.3-.8-5.9-2.4-3.3-3.3-3.3-8.6,0-11.9,1.6-1.6,3.7-2.5,5.9-2.5,2.2,0,4.4.9,6,2.4,1.6,1.6,2.5,3.7,2.5,5.9,0,2.3-.9,4.4-2.4,6-1.6,1.7-3.8,2.5-6,2.5"/>
    <g class="st1">
      <path class="st0" d="M5.7,31.3c0,.1,0,.2,0,.3v.2c1.6,2.2,3.7,3.9,6.1,4.9,3.2,1.4,7,1.5,10.5,0l-.4-.5s-1.7-1.7-2.7-2.2c0,0-.1,0-.2,0-.6.1-.6.1-.6.1-1.8.2-3.6,0-5.2-.7-2.3-1-4.3-2.8-5.3-5.3,0,0-.1-.1-.2,0-.3.6-1.3,2.4-1.9,3.1"/>
    </g>
  </g>
  <g>
    <path class="st0" d="M33.3,16.9c-.4-.2-.8-.4-1.4-.4s-.9.1-1.3.4c-.2.1-.3.2-.5.4l-.2-.6h-1v7.8h1.3v-2.6c0,0,.2.1.3.2.4.2.8.4,1.3.4s1-.1,1.4-.4.7-.6.9-1c.2-.4.3-.9.3-1.5s-.1-1.1-.3-1.5c-.2-.4-.5-.8-.9-1ZM32.8,20.7c-.3.3-.6.5-1,.5s-.8-.2-1-.5c-.3-.3-.4-.7-.4-1.3s.1-.9.4-1.3c.3-.3.6-.5,1-.5s.8.2,1,.5c.3.3.4.7.4,1.3s-.1.9-.4,1.2Z"/>
    <path class="st0" d="M40.4,20.9l-1-.6c-.2.3-.4.5-.6.7-.2.2-.6.3-1,.3s-.8-.1-1.1-.4c-.2-.3-.4-.6-.4-1h4.2c0,0,0-.1,0-.2,0,0,0-.1,0-.2,0-.6-.1-1.1-.3-1.5-.2-.4-.6-.8-1-1-.4-.2-.9-.4-1.5-.4s-1,.1-1.4.4c-.4.2-.7.6-1,1-.2.4-.3,1-.3,1.5s.1,1.1.3,1.5c.2.4.6.8,1,1,.4.2.9.4,1.4.4s1.1-.1,1.6-.4c.4-.2.8-.6,1-1.1ZM37.9,17.6c.5,0,.9.2,1.1.5.1.2.2.4.3.7h-2.9c0-.3.2-.6.4-.8.3-.3.6-.4,1.1-.4Z"/>
    <path class="st0" d="M43.2,18.1c.3-.2.6-.2,1.1-.2h.4v-1.2c0,0-.1,0-.2,0-.1,0-.2,0-.3,0-.2,0-.5,0-.7.2-.2.1-.4.3-.6.4,0,0-.1.1-.2.2v-.6h-1.1v5.6h1.3v-3.9c0-.1.2-.2.3-.3Z"/>
    <path class="st0" d="M49.2,21.5c.2-.3.3-.6.3-1s-.1-.8-.4-1.1c-.3-.3-.8-.5-1.5-.6-.4,0-.7-.2-.8-.3-.1-.1-.2-.2-.2-.4s0-.3.2-.4c.1,0,.3-.1.5-.1.3,0,.6,0,.8.2.2.1.4.3.5.4l.9-.7c-.2-.3-.5-.5-.8-.7-.4-.2-.8-.3-1.3-.3s-.8,0-1.1.2c-.3.2-.5.4-.7.6-.2.3-.2.6-.2.9,0,.5.1.9.4,1.1.3.3.7.5,1.3.6.3,0,.5.2.7.2.2,0,.3.2.3.2,0,0,0,.2,0,.3,0,.2,0,.3-.2.4-.1.1-.3.2-.5.2s-.6,0-.8-.2c-.2-.1-.4-.3-.7-.6l-.9.7c.3.4.6.7,1,.9.4.2.8.3,1.2.3s.7,0,1-.2c.3-.1.6-.4.8-.6Z"/>
    <path class="st0" d="M55.6,21c.2-.4.4-.9.4-1.5s-.1-1.1-.4-1.5c-.2-.4-.6-.8-1-1-.4-.2-.9-.4-1.5-.4s-1.1.1-1.5.4c-.4.2-.8.6-1,1-.2.4-.4,1-.4,1.5s.1,1.1.4,1.5c.2.4.6.8,1,1,.4.2.9.4,1.5.4s1.1-.1,1.5-.4c.4-.2.8-.6,1-1ZM54.2,20.6c-.3.3-.7.5-1.1.5s-.8-.2-1.1-.5c-.3-.3-.4-.7-.4-1.2s.1-.9.4-1.2c.3-.3.7-.4,1.1-.4s.8.2,1.1.5c.3.3.4.7.4,1.2s-.1.9-.4,1.2Z"/>
    <path class="st0" d="M62,22.2v-3.4c0-.3,0-.6,0-.9,0-.3-.1-.5-.2-.8-.1-.2-.3-.4-.5-.5-.2-.1-.5-.2-.9-.2s-.6,0-.9.1c-.3,0-.6.2-.8.4-.1,0-.3.2-.4.3l-.2-.7h-1v5.6h1.3v-3.7c0,0,.2-.2.3-.3.2-.1.4-.3.6-.4.2,0,.4-.1.7-.1s.4,0,.6.2c.2.1.2.4.2.8v3.5h1.3Z"/>
    <path class="st0" d="M66.6,22.2h1v-3.7c0-.4,0-.7-.2-1.1-.2-.3-.4-.5-.7-.7-.3-.2-.7-.3-1.2-.3s-.7,0-1.1.1c-.4,0-.7.2-1,.4l.4,1c.3-.1.5-.2.8-.3.3,0,.5,0,.7,0,.4,0,.6,0,.8.3.2.2.2.4.2.6v.4s0,0,0,0c-.3-.2-.8-.4-1.3-.4s-.8,0-1.1.2c-.3.2-.6.4-.7.7-.2.3-.3.6-.3,1s0,.7.3,1c.2.3.4.5.7.7.3.2.7.2,1.1.2s.9-.1,1.3-.4c0,0,.2-.1.2-.2v.4ZM66,21.1c-.2.1-.4.2-.7.2s-.6,0-.7-.2c-.2-.1-.3-.3-.3-.6s0-.5.3-.6c.2-.1.4-.2.7-.2s.6,0,.7.2c.2.1.3.3.3.6s0,.5-.3.6Z"/>
    <path class="st0" d="M72.9,20.6c0-.4-.1-.8-.4-1.1-.3-.3-.8-.5-1.5-.6-.4,0-.7-.2-.8-.3-.1-.1-.2-.2-.2-.4s0-.3.2-.4c.1,0,.3-.1.5-.1.3,0,.6,0,.8.2.2.1.4.3.5.4l.9-.7c-.2-.3-.5-.5-.8-.7-.4-.2-.8-.3-1.3-.3s-.8,0-1.1.2c-.3.2-.5.4-.7.6-.2.3-.2.6-.2.9,0,.5.1.9.4,1.1.3.3.7.5,1.3.6.3,0,.5.2.7.2.2,0,.3.2.3.2,0,0,0,.2,0,.3,0,.2,0,.3-.2.4-.1.1-.3.2-.5.2s-.6,0-.8-.2c-.2-.1-.4-.3-.7-.6l-.9.7c.3.4.6.7,1,.9.4.2.8.3,1.2.3s.7,0,1-.2c.3-.1.6-.4.8-.6.2-.3.3-.6.3-1Z"/>
    <path class="st0" d="M80.5,20.2c-.1.3-.3.5-.5.7-.2.2-.5.2-.8.2s-.8-.1-1-.4c-.3-.3-.4-.7-.4-1.2s.1-.9.4-1.2c.3-.3.6-.4,1-.4s.6,0,.8.2c.2.2.4.4.5.7l1.2-.5c-.2-.5-.5-.9-1-1.2-.4-.3-1-.4-1.5-.4s-1.1.1-1.5.4c-.4.2-.8.6-1,1-.2.4-.3.9-.3,1.5s.1,1.1.3,1.5c.2.4.6.8,1,1,.4.3.9.4,1.5.4s1.1-.2,1.5-.5c.4-.3.8-.7,1-1.2l-1.2-.5Z"/>
    <path class="st0" d="M88,19.5c0-.6-.1-1.1-.4-1.5-.2-.4-.6-.8-1-1-.4-.2-.9-.4-1.5-.4s-1.1.1-1.5.4c-.4.2-.8.6-1,1-.2.4-.4,1-.4,1.5s.1,1.1.4,1.5c.2.4.6.8,1,1,.4.2.9.4,1.5.4s1.1-.1,1.5-.4c.4-.2.8-.6,1-1,.2-.4.4-.9.4-1.5ZM86.2,20.6c-.3.3-.7.5-1.1.5s-.8-.2-1.1-.5c-.3-.3-.4-.7-.4-1.2s.1-.9.4-1.2c.3-.3.7-.4,1.1-.4s.8.2,1.1.5c.3.3.4.7.4,1.2s-.1.9-.4,1.2Z"/>
    <path class="st0" d="M93.9,18c0-.3-.1-.5-.2-.8-.1-.2-.3-.4-.5-.5-.2-.1-.5-.2-.9-.2s-.6,0-.9.1c-.3,0-.6.2-.8.4-.1,0-.3.2-.4.3l-.2-.7h-1v5.6h1.3v-3.7c0,0,.2-.2.3-.3.2-.1.4-.3.6-.4.2,0,.4-.1.7-.1s.4,0,.6.2c.2.1.2.4.2.8v3.5h1.3v-3.4c0-.3,0-.6,0-.9Z"/>
    <path class="st0" d="M32.9,27.6c0,0-.2-.2-.3-.2-.4-.2-.8-.3-1.3-.3s-1,.1-1.4.4c-.4.2-.7.6-.9,1-.2.4-.3.9-.3,1.5s.1,1.1.3,1.5c.2.4.5.8.9,1s.8.4,1.3.4.9-.1,1.3-.4c.2-.1.3-.2.5-.4l.2.6h1v-7.8h-1.3v2.7ZM32.6,31.2c-.3.3-.6.5-1,.5s-.8-.2-1-.5c-.3-.3-.4-.7-.4-1.3s.1-.9.4-1.2c.3-.3.6-.5,1-.5s.8.2,1,.5c.3.3.4.7.4,1.3s-.1.9-.4,1.3Z"/>
    <rect class="st0" x="35.6" y="27.1" width="1.3" height="5.6"/>
    <path class="st0" d="M36.3,24.6c-.3,0-.5,0-.6.2-.1.2-.2.4-.2.6s0,.4.2.6c.1.2.4.2.6.2s.4,0,.6-.2c.2-.2.2-.4.2-.6s0-.4-.2-.6c-.2-.2-.4-.2-.6-.2Z"/>
    <path class="st0" d="M39.6,28.3c.1,0,.3-.1.5-.1.3,0,.6,0,.8.2.2.1.4.3.5.4l.9-.7c-.2-.3-.5-.5-.8-.7-.4-.2-.8-.3-1.3-.3s-.8,0-1.1.2c-.3.2-.5.4-.7.6-.2.3-.2.6-.2.9,0,.5.1.9.4,1.1.3.3.7.5,1.3.6.3,0,.5.2.7.2.2,0,.3.2.3.2,0,0,0,.2,0,.3,0,.2,0,.3-.2.4-.1.1-.3.2-.5.2s-.6,0-.8-.2c-.2-.1-.4-.3-.7-.6l-.9.7c.3.4.6.7,1,.9.4.2.8.3,1.2.3s.7,0,1-.2c.3-.1.6-.4.8-.6.2-.3.3-.6.3-1s-.1-.8-.4-1.1c-.3-.3-.8-.5-1.5-.6-.4,0-.7-.2-.8-.3-.1-.1-.2-.2-.2-.4s0-.3.2-.4Z"/>
    <path class="st0" d="M45.8,28.3c.3,0,.6,0,.8.2.2.2.4.4.5.7l1.2-.5c-.2-.5-.5-.9-1-1.2-.4-.3-1-.4-1.5-.4s-1.1.1-1.5.4c-.4.2-.8.6-1,1-.2.4-.3.9-.3,1.5s.1,1.1.3,1.5c.2.4.6.8,1,1,.4.3.9.4,1.5.4s1.1-.2,1.5-.5c.4-.3.8-.7,1-1.2l-1.2-.5c-.1.3-.3.5-.5.7-.2.2-.5.2-.8.2s-.8-.1-1-.4c-.3-.3-.4-.7-.4-1.2s.1-.9.4-1.2c.3-.3.6-.4,1-.4Z"/>
    <path class="st0" d="M52.5,27.3c-.3-.2-.7-.3-1.2-.3s-.7,0-1.1.1c-.4,0-.7.2-1,.4l.4,1c.3-.1.5-.2.8-.3.3,0,.5,0,.7,0,.4,0,.6,0,.8.3.2.2.2.4.2.6v.4s0,0,0,0c-.3-.2-.8-.4-1.3-.4s-.8,0-1.1.2c-.3.2-.6.4-.7.7-.2.3-.3.6-.3,1s0,.7.3,1c.2.3.4.5.7.7.3.2.7.2,1.1.2s.9-.1,1.3-.4c0,0,.2-.1.2-.2v.4h1.1v-3.7c0-.4,0-.7-.2-1.1-.2-.3-.4-.5-.7-.7ZM51.9,31.6c-.2.1-.4.2-.7.2s-.6,0-.7-.2c-.2-.1-.3-.3-.3-.6s0-.5.3-.6c.2-.1.4-.2.7-.2s.6,0,.7.2c.2.1.3.3.3.6s0,.5-.3.6Z"/>
    <path class="st0" d="M59.1,27.4c-.4-.2-.8-.4-1.4-.4s-.9.1-1.3.4c-.2.1-.3.2-.5.4l-.2-.6h-1v7.8h1.3v-2.6c0,0,.2.1.3.2.4.2.8.4,1.3.4s1-.1,1.4-.4.7-.6.9-1c.2-.4.3-.9.3-1.5s-.1-1.1-.3-1.5c-.2-.4-.5-.8-.9-1ZM58.6,31.2c-.3.3-.6.5-1,.5s-.8-.2-1-.5c-.3-.3-.4-.7-.4-1.3s.1-.9.4-1.3c.3-.3.6-.5,1-.5s.8.2,1,.5c.3.3.4.7.4,1.3s-.1.9-.4,1.2Z"/>
    <path class="st0" d="M64.6,27.3c-.3-.2-.7-.3-1.2-.3s-.7,0-1.1.1c-.4,0-.7.2-1,.4l.4,1c.3-.1.5-.2.8-.3.3,0,.5,0,.7,0,.4,0,.6,0,.8.3.2.2.2.4.2.6v.4s0,0,0,0c-.3-.2-.8-.4-1.3-.4s-.8,0-1.1.2c-.3.2-.6.4-.7.7-.2.3-.3.6-.3,1s0,.7.3,1c.2.3.4.5.7.7.3.2.7.2,1.1.2s.9-.1,1.3-.4c0,0,.2-.1.2-.2v.4h1.1v-3.7c0-.4,0-.7-.2-1.1-.2-.3-.4-.5-.7-.7ZM64,31.6c-.2.1-.4.2-.7.2s-.6,0-.7-.2c-.2-.1-.3-.3-.3-.6s0-.5.3-.6c.2-.1.4-.2.7-.2s.6,0,.7.2c.2.1.3.3.3.6s0,.5-.3.6Z"/>
    <path class="st0" d="M69.4,28.3c.3,0,.6,0,.8.2.2.2.4.4.5.7l1.2-.5c-.2-.5-.5-.9-1-1.2-.4-.3-1-.4-1.5-.4s-1.1.1-1.5.4c-.4.2-.8.6-1,1-.2.4-.3.9-.3,1.5s.1,1.1.3,1.5c.2.4.6.8,1,1,.4.3.9.4,1.5.4s1.1-.2,1.5-.5c.4-.3.8-.7,1-1.2l-1.2-.5c-.1.3-.3.5-.5.7-.2.2-.5.2-.8.2s-.8-.1-1-.4c-.3-.3-.4-.7-.4-1.2s.1-.9.4-1.2c.3-.3.6-.4,1-.4Z"/>
    <path class="st0" d="M73.4,24.6c-.3,0-.5,0-.6.2-.1.2-.2.4-.2.6s0,.4.2.6c.1.2.4.2.6.2s.4,0,.6-.2c.2-.2.2-.4.2-.6s0-.4-.2-.6c-.2-.2-.4-.2-.6-.2Z"/>
    <rect class="st0" x="72.8" y="27.1" width="1.3" height="5.6"/>
    <path class="st0" d="M79.3,27.6c0,0-.2-.2-.3-.2-.4-.2-.8-.3-1.3-.3s-1,.1-1.4.4c-.4.2-.7.6-.9,1-.2.4-.3.9-.3,1.5s.1,1.1.3,1.5c.2.4.5.8.9,1s.8.4,1.3.4.9-.1,1.3-.4c.2-.1.3-.2.5-.4l.2.6h1v-7.8h-1.3v2.7ZM79,31.2c-.3.3-.6.5-1,.5s-.8-.2-1-.5c-.3-.3-.4-.7-.4-1.3s.1-.9.4-1.2c.3-.3.6-.5,1-.5s.8.2,1,.5c.3.3.4.7.4,1.3s-.1.9-.4,1.3Z"/>
    <path class="st0" d="M85.5,27.3c-.3-.2-.7-.3-1.2-.3s-.7,0-1.1.1c-.4,0-.7.2-1,.4l.4,1c.3-.1.5-.2.8-.3.3,0,.5,0,.7,0,.4,0,.6,0,.8.3.2.2.2.4.2.6v.4s0,0,0,0c-.3-.2-.8-.4-1.3-.4s-.8,0-1.1.2c-.3.2-.6.4-.7.7-.2.3-.3.6-.3,1s0,.7.3,1c.2.3.4.5.7.7.3.2.7.2,1.1.2s.9-.1,1.3-.4c0,0,.2-.1.2-.2v.4h1.1v-3.7c0-.4,0-.7-.2-1.1-.2-.3-.4-.5-.7-.7ZM84.8,31.6c-.2.1-.4.2-.7.2s-.6,0-.7-.2c-.2-.1-.3-.3-.3-.6s0-.5.3-.6c.2-.1.4-.2.7-.2s.6,0,.7.2c.2.1.3.3.3.6s0,.5-.3.6Z"/>
    <path class="st0" d="M91.6,27.6c0,0-.2-.2-.3-.2-.4-.2-.8-.3-1.3-.3s-1,.1-1.4.4c-.4.2-.7.6-.9,1-.2.4-.3.9-.3,1.5s.1,1.1.3,1.5c.2.4.5.8.9,1s.8.4,1.3.4.9-.1,1.3-.4c.2-.1.3-.2.5-.4l.2.6h1v-7.8h-1.3v2.7ZM91.2,31.2c-.3.3-.6.5-1,.5s-.8-.2-1-.5c-.3-.3-.4-.7-.4-1.3s.1-.9.4-1.2c.3-.3.6-.5,1-.5s.8.2,1,.5c.3.3.4.7.4,1.3s-.1.9-.4,1.3Z"/>
  </g>
</svg>