<?xml version="1.0" encoding="UTF-8"?>
<svg id="Layer_1" xmlns="http://www.w3.org/2000/svg" version="1.1" viewBox="0 0 3000 1500">
  <!-- Generator: Adobe Illustrator 29.8.1, SVG Export Plug-In . SVG Version: 2.1.1 Build 2)  -->
  <defs>
    <style>
      .st0 {
        fill: #fff;
      }

      .st1 {
        fill: #50529f;
      }

      .st2 {
        fill: #bec3f4;
      }
    </style>
  </defs>
  <rect class="st2" width="2057.5" height="1500"/>
  <g>
    <path class="st1" d="M1311.4,560.5c8-103.1-39.5-85.5-26.9,75.4,4.9,62.8,19.8,15.9,26.9-75.4Z"/>
    <path class="st1" d="M1627.8,1216c-40-54.2-114.2-92.5-64.4-31.8,49.8,60.7,74.4,122.8,82.8,210.7,7.7,79.8,55.1,43.1,54.2-7.6-.9-50.6-16-94.5-72.7-171.4Z"/>
    <path class="st1" d="M1808.6,0c0,221-206.8,230.3-353,371.8-145.9,141.3-121.2,391.3-194.6,437.1-23.9,14.2-47.2,25.9-69.2,34.7-28.3,11.3-66.2,27.2-118.2,30.8-66.9,4.7-123.3,11.3-125.6,30.3-3.1,26.5,74.4-7,81.6,17,4.7,15.7-87.3,28.3-136.5,39-28.3,6.1-50,9.9-47.4,23.9,2.6,14,16.3,13.4,37.7,10.4,40.7-5.8,97-15.4,99.1-8.5,1.6,5.4-71.2,29.8-123.6,45.8-29,8.9-39,14.7-35.6,26.1,3.4,11.2,9.6,13.8,45.4,4.6,54.3-13.9,116.3-26.2,117.8-21.3,1.5,5.1-40.6,21.9-83.9,37.6-33,11.9-45.9,18.5-42.5,30.3,3.9,13.5,16.5,11,52.3,0,43.2-13.2,96.5-30.4,98.6-26.9,2.1,3.6-14.4,16.2-47.8,31.7-29.7,13.7-41.7,19.5-36.4,30.7,5.6,11.9,21.9,5.4,58.6-10.9,69.8-31.1,145.5-80.1,241-148.1h0c146.9-102.2,130.9,33.3,337.7,115.6,258.3,102.8,99.9,253.4,432,398.4h1004.1V0h-1191.4Z"/>
  </g>
  <path class="st0" d="M554.6,1288.9c.7,4.1,21.4,3.4,57.1-5.8,31.7-8.2,44.7-11.4,47.7.7,3.2,12.7-13.5,18.1-52.2,28.7-79.8,21.9-178.2,31.8-309.8,40.1-85.8,5.4-191.6,7.7-297.3,5.5v-117.7c100.7,8.4,194.5,0,263.3-21.8,29.1-9.2,68.4-20.9,111-51.1,54.8-38.8,102.6-69.4,116.3-56.2,19.2,18.5-62,41.7-52.3,64.8,6.3,15.1,85.5-33.5,130.3-56.4,25.8-13.2,44.9-24,51.8-11.5,6.8,12.5-4.1,20.7-22.6,31.9-35.2,21.3-84.8,49.6-82,56.2,2.2,5.2,73.9-22.1,124.6-42.9,28.1-11.5,39.5-13.3,44.1-2.4,4.5,10.8,1.3,16.8-32.2,32.3-50.8,23.6-106.5,53.4-104.6,58.2,2.1,5,45.3-8.8,88.7-24.1,33.1-11.7,47.2-14.8,52.1-3.6,5.6,12.9-5.8,19-40.4,33.2-41.8,17.1-93.9,37.7-93.3,41.7Z"/>
</svg>