<?xml version="1.0" encoding="UTF-8"?>
<svg id="Capa_1" data-name="Capa 1" xmlns="http://www.w3.org/2000/svg" viewBox="0 0 32 32">
  <defs>
    <style>
      .cls-1 {
        fill: #50529f;
      }

      .cls-2 {
        fill: #5053a0;
      }

      .cls-3 {
        fill: #bec1e3;
      }
    </style>
  </defs>
  <path class="cls-1" d="M19.4,29.91c1.34-1.15,2.89-1.8,4.65-1.98.35-.03.39-.11.21-.4-.92-1.43-1.62-2.95-2.06-4.59-.07-.27-.18-.4-.49-.33-1.87.45-3.58,1.22-5.13,2.35-1.55,1.14-2.82,2.55-3.78,4.22-.35.61-.66,1.23-.92,1.88,1.33.37,2.74.57,4.19.57.63,0,1.26-.04,1.87-.11.41-.58.9-1.12,1.47-1.61"/>
  <path class="cls-2" d="M1.52,16.61c-.05.12-.09.24-.15.4.15,0,1.56-.05,2.17.02,1.08.12,2.15.31,3.22.49.33.06.48-.05.54-.36.13-.61.28-1.21.4-1.82.25-1.27.25-2.55.1-3.83-.2-1.78-.73-3.46-1.58-5.04-.32-.59-.68-1.15-1.07-1.68-1.49,1.45-2.7,3.2-3.52,5.14.91,2.17.87,4.4-.12,6.67"/>
  <path class="cls-2" d="M27.78,6.1c-1.14-.22-2.16-.69-3.11-1.34-.9-.61-1.63-1.39-2.28-2.35-.09.12-1.99,3.27-3.24,4.51-.15.15-.15.28,0,.44,1.24,1.35,2.69,2.41,4.35,3.18,1.78.82,3.65,1.29,5.63,1.33.67.01,1.33-.01,1.99-.08-.58-2.08-1.59-3.99-2.92-5.62-.14-.02-.27-.04-.41-.07"/>
  <path class="cls-3" d="M9.53,3.25c-.59.17-1.21.26-1.84.38.06.11,1.79,3.25,2.26,4.88.1.33.24.38.55.31,1.61-.39,3.1-1.04,4.48-1.95,1.4-.92,2.6-2.07,3.57-3.42.58-.81,1.09-1.66,1.49-2.56-1.28-.34-2.62-.52-4-.52-.8,0-1.59.06-2.36.18-1.11,1.33-2.49,2.22-4.16,2.7"/>
  <path class="cls-3" d="M8.96,28.18c.25.28.47.57.74.9.36-.61.66-1.2,1.04-1.72.66-.92,1.36-1.82,2.08-2.68.23-.27.22-.41,0-.63-1.15-1.17-2.43-2.16-3.91-2.87-2.06-.98-4.22-1.53-6.52-1.47-.51.01-1.02.05-1.52.11.51,2.04,1.43,3.92,2.66,5.56.21.02.42.05.63.09,1.91.35,3.5,1.26,4.78,2.71"/>
  <path class="cls-3" d="M30.15,16.45c.16-.61.43-1.19.67-1.85-.21-.01-2.24-.04-3.11-.13-.8-.08-1.59-.26-2.38-.41-.25-.05-.4.01-.46.27-.47,1.78-.72,3.58-.54,5.43.23,2.29.96,4.4,2.22,6.33.2.3.41.6.63.88,1.46-1.48,2.63-3.25,3.42-5.22-.74-1.71-.93-3.49-.44-5.31"/>
</svg>