<?xml version="1.0" encoding="UTF-8"?>
<svg xmlns="http://www.w3.org/2000/svg" version="1.1" xmlns:xlink="http://www.w3.org/1999/xlink" viewBox="0 0 300 300">
  <defs>
    <style>
      .cls-1, .cls-2 {
        opacity: .6;
      }

      .cls-3 {
        fill: url(#linear-gradient-15);
      }

      .cls-4 {
        fill: url(#linear-gradient-13);
      }

      .cls-5 {
        fill: url(#linear-gradient-28);
      }

      .cls-6 {
        fill: url(#linear-gradient-42);
      }

      .cls-7 {
        fill: url(#linear-gradient-2);
      }

      .cls-8 {
        fill: url(#linear-gradient-43);
      }

      .cls-9 {
        fill: url(#linear-gradient-25);
      }

      .cls-10 {
        fill: url(#linear-gradient-10);
      }

      .cls-11 {
        fill: url(#linear-gradient-12);
      }

      .cls-12 {
        fill: url(#linear-gradient-40);
      }

      .cls-13 {
        fill: url(#linear-gradient-27);
      }

      .cls-14 {
        opacity: .4;
      }

      .cls-14, .cls-15, .cls-16, .cls-17, .cls-18, .cls-2, .cls-19 {
        fill: #fff;
      }

      .cls-15 {
        opacity: .5;
      }

      .cls-20 {
        fill: url(#linear-gradient-37);
      }

      .cls-21 {
        fill: url(#linear-gradient-39);
      }

      .cls-22 {
        fill: #95b0dd;
      }

      .cls-23 {
        fill: url(#linear-gradient-26);
      }

      .cls-24 {
        fill: url(#linear-gradient-4);
      }

      .cls-25 {
        fill: #beceeb;
      }

      .cls-26 {
        fill: url(#linear-gradient-35);
      }

      .cls-27 {
        fill: url(#linear-gradient-30);
      }

      .cls-17 {
        opacity: .8;
      }

      .cls-28 {
        fill: url(#linear-gradient-44);
      }

      .cls-29 {
        fill: url(#linear-gradient-3);
      }

      .cls-30 {
        fill: url(#linear-gradient-34);
      }

      .cls-31 {
        fill: url(#linear-gradient-5);
      }

      .cls-32 {
        fill: url(#linear-gradient-38);
      }

      .cls-33 {
        fill: url(#linear-gradient-22);
      }

      .cls-34 {
        fill: url(#linear-gradient-24);
      }

      .cls-35 {
        isolation: isolate;
      }

      .cls-36 {
        fill: url(#linear-gradient-33);
      }

      .cls-37 {
        fill: url(#linear-gradient-8);
      }

      .cls-18 {
        opacity: .2;
      }

      .cls-38 {
        fill: url(#linear-gradient-14);
      }

      .cls-39 {
        fill: url(#linear-gradient-29);
      }

      .cls-40 {
        fill: url(#linear-gradient-20);
      }

      .cls-41 {
        fill: url(#linear-gradient-17);
      }

      .cls-42 {
        fill: url(#linear-gradient-7);
      }

      .cls-43 {
        fill: url(#linear-gradient-9);
      }

      .cls-44 {
        fill: url(#linear-gradient-11);
      }

      .cls-45 {
        fill: url(#linear-gradient-19);
      }

      .cls-46 {
        fill: url(#linear-gradient-6);
      }

      .cls-47 {
        fill: url(#linear-gradient-36);
      }

      .cls-48 {
        fill: url(#linear-gradient-21);
      }

      .cls-49 {
        fill: url(#linear-gradient-45);
      }

      .cls-50 {
        fill: url(#linear-gradient-32);
      }

      .cls-51 {
        fill: url(#linear-gradient-41);
      }

      .cls-19 {
        mix-blend-mode: soft-light;
      }

      .cls-52 {
        fill: url(#linear-gradient-16);
      }

      .cls-53 {
        fill: url(#linear-gradient);
      }

      .cls-54 {
        fill: url(#linear-gradient-23);
      }

      .cls-55 {
        fill: url(#linear-gradient-31);
      }

      .cls-56 {
        fill: url(#linear-gradient-18);
      }
    </style>
    <linearGradient id="linear-gradient" x1="183.3" y1="257.1" x2="183.8" y2="6.1" gradientUnits="userSpaceOnUse">
      <stop offset="0" stop-color="#232451"/>
      <stop offset="1" stop-color="#2a307b"/>
    </linearGradient>
    <linearGradient id="linear-gradient-2" x1="-1303.1" y1="354.2" x2="-1151" y2="129.8" gradientTransform="translate(-1024.6 -20.3) rotate(178.7) scale(1 -1)" gradientUnits="userSpaceOnUse">
      <stop offset="0" stop-color="#4857a3"/>
      <stop offset="1" stop-color="#40509e"/>
    </linearGradient>
    <linearGradient id="linear-gradient-3" x1="-1222.4" y1="122.8" x2="-1286" y2="217.4" gradientTransform="translate(278.1 -1148.7) rotate(-93.3) scale(1 -1)" xlink:href="#linear-gradient-2"/>
    <linearGradient id="linear-gradient-4" x1="-1211.6" y1="130.1" x2="-1275.1" y2="224.7" xlink:href="#linear-gradient-2"/>
    <linearGradient id="linear-gradient-5" x1="123.7" y1="53.2" x2="59.2" y2="138.1" gradientTransform="translate(78.5 -46.1) rotate(-1.3)" xlink:href="#linear-gradient"/>
    <linearGradient id="linear-gradient-6" x1="-1176.1" y1="59.7" x2="-1236.1" y2="138.6" gradientTransform="translate(-1024.6 -20.3) rotate(178.7) scale(1 -1)" xlink:href="#linear-gradient"/>
    <linearGradient id="linear-gradient-7" x1="182.4" y1="67.9" x2="180.5" y2="-19.3" xlink:href="#linear-gradient"/>
    <linearGradient id="linear-gradient-8" x1="137.7" y1="201.5" x2="158.1" y2="201.5" gradientTransform="matrix(1,0,0,1,0,0)" xlink:href="#linear-gradient-2"/>
    <linearGradient id="linear-gradient-9" x1="316.1" y1="114.3" x2="225.4" y2="208.4" xlink:href="#linear-gradient"/>
    <linearGradient id="linear-gradient-10" x1="321.9" y1="125.9" x2="233" y2="218.2" xlink:href="#linear-gradient"/>
    <linearGradient id="linear-gradient-11" x1="306.2" y1="104.8" x2="215.6" y2="198.9" xlink:href="#linear-gradient"/>
    <linearGradient id="linear-gradient-12" x1="2341.5" y1="250.4" x2="2364.4" y2="250.4" gradientTransform="translate(-2209.4)" gradientUnits="userSpaceOnUse">
      <stop offset="0" stop-color="#f7baba"/>
      <stop offset="1" stop-color="#f2908f"/>
    </linearGradient>
    <linearGradient id="linear-gradient-13" x1="1782.5" y1="644.1" x2="1859.2" y2="595.1" gradientTransform="translate(-2209.4)" gradientUnits="userSpaceOnUse">
      <stop offset="0" stop-color="#6cc9f0"/>
      <stop offset="1" stop-color="#3c519f"/>
    </linearGradient>
    <linearGradient id="linear-gradient-14" x1="-4406.6" y1="260" x2="-4376.9" y2="209" gradientTransform="translate(-4269.5) rotate(-180) scale(1 -1)" xlink:href="#linear-gradient-12"/>
    <linearGradient id="linear-gradient-15" x1="253.5" y1="125.8" x2="190.3" y2="202.1" gradientUnits="userSpaceOnUse">
      <stop offset="0" stop-color="#f2908f"/>
      <stop offset="1" stop-color="#ee7065"/>
    </linearGradient>
    <linearGradient id="linear-gradient-16" x1="1775.4" y1="633" x2="1852.2" y2="584.1" xlink:href="#linear-gradient-13"/>
    <linearGradient id="linear-gradient-17" x1="156" y1="140.8" x2="170.4" y2="189.6" xlink:href="#linear-gradient-15"/>
    <linearGradient id="linear-gradient-18" x1="2374.8" y1="185.5" x2="2372.4" y2="170" xlink:href="#linear-gradient-12"/>
    <linearGradient id="linear-gradient-19" x1="3128.4" y1="1830.7" x2="3147.5" y2="1843.8" gradientTransform="translate(-3455.7 -196.1) rotate(-24.7)" xlink:href="#linear-gradient-12"/>
    <linearGradient id="linear-gradient-20" x1="3161.8" y1="1806.3" x2="3129.7" y2="1839.7" gradientTransform="translate(-3455.7 -196.1) rotate(-24.7)" xlink:href="#linear-gradient"/>
    <linearGradient id="linear-gradient-21" x1="3129.5" y1="1829" x2="3148.7" y2="1842.1" gradientTransform="translate(-3455.7 -196.1) rotate(-24.7)" xlink:href="#linear-gradient-12"/>
    <linearGradient id="linear-gradient-22" x1="2388.7" y1="212.4" x2="2434.2" y2="212.4" xlink:href="#linear-gradient-12"/>
    <linearGradient id="linear-gradient-23" x1="3176.1" y1="1820" x2="3144" y2="1853.5" gradientTransform="translate(-3455.7 -196.1) rotate(-24.7)" xlink:href="#linear-gradient"/>
    <linearGradient id="linear-gradient-24" x1="2263.4" y1="251.1" x2="2293.3" y2="251.1" gradientTransform="translate(-2209.4)" xlink:href="#linear-gradient-2"/>
    <linearGradient id="linear-gradient-25" x1="2266.8" y1="251.1" x2="2296.7" y2="251.1" gradientTransform="translate(-2209.4)" xlink:href="#linear-gradient-2"/>
    <linearGradient id="linear-gradient-26" x1="2375.7" y1="251.1" x2="2405.6" y2="251.1" gradientTransform="translate(-2209.4)" xlink:href="#linear-gradient-2"/>
    <linearGradient id="linear-gradient-27" x1="2379.1" y1="251.1" x2="2409" y2="251.1" gradientTransform="translate(-2209.4)" xlink:href="#linear-gradient-2"/>
    <linearGradient id="linear-gradient-28" x1="2254.7" y1="220.2" x2="2416.5" y2="220.2" gradientTransform="translate(-2209.4)" xlink:href="#linear-gradient-2"/>
    <linearGradient id="linear-gradient-29" x1="3535.5" y1="279.7" x2="3556.4" y2="279.7" gradientTransform="translate(-3467.9)" xlink:href="#linear-gradient-2"/>
    <linearGradient id="linear-gradient-30" x1="3551.6" y1="239.6" x2="3545.9" y2="278.9" gradientTransform="translate(-3467.9)" xlink:href="#linear-gradient"/>
    <linearGradient id="linear-gradient-31" x1="3536.6" y1="273.4" x2="3542.2" y2="273.4" gradientTransform="translate(-3467.9)" xlink:href="#linear-gradient-12"/>
    <linearGradient id="linear-gradient-32" x1="3568.2" y1="275.5" x2="3585" y2="275.5" gradientTransform="translate(-3467.9)" xlink:href="#linear-gradient-2"/>
    <linearGradient id="linear-gradient-33" x1="3579.8" y1="243.7" x2="3574.1" y2="283" gradientTransform="translate(-3467.9)" xlink:href="#linear-gradient"/>
    <linearGradient id="linear-gradient-34" x1="68.5" y1="226.4" x2="27.3" y2="310.4" xlink:href="#linear-gradient"/>
    <linearGradient id="linear-gradient-35" x1="3563.3" y1="273.9" x2="3570" y2="273.9" gradientTransform="translate(-3467.9)" xlink:href="#linear-gradient-12"/>
    <linearGradient id="linear-gradient-36" x1="3597.8" y1="170.5" x2="3548.8" y2="226.1" gradientTransform="translate(-3467.9)" xlink:href="#linear-gradient"/>
    <linearGradient id="linear-gradient-37" x1="-3530.7" y1="-1082" x2="-3576.5" y2="-1006.3" gradientTransform="translate(-4269.5) rotate(-180) scale(1 -1)" xlink:href="#linear-gradient-15"/>
    <linearGradient id="linear-gradient-38" x1="3506.6" y1="166.6" x2="3518.7" y2="166.6" gradientTransform="translate(-3467.9)" xlink:href="#linear-gradient-12"/>
    <linearGradient id="linear-gradient-39" x1="2445.1" y1="3199.4" x2="2427.9" y2="3222.1" gradientTransform="translate(-3352 -1994.2) rotate(-20.4)" xlink:href="#linear-gradient-12"/>
    <linearGradient id="linear-gradient-40" x1="2432" y1="3204.9" x2="2452.5" y2="3204.9" gradientTransform="translate(-3352 -1994.2) rotate(-20.4)" xlink:href="#linear-gradient"/>
    <linearGradient id="linear-gradient-41" x1="2419.9" y1="3217.4" x2="2433.7" y2="3203.2" gradientTransform="translate(-3352 -1994.2) rotate(-20.4)" xlink:href="#linear-gradient-12"/>
    <linearGradient id="linear-gradient-42" x1="-3538.4" y1="-1086.7" x2="-3584.3" y2="-1011" gradientTransform="translate(-4269.5) rotate(-180) scale(1 -1)" xlink:href="#linear-gradient-15"/>
    <linearGradient id="linear-gradient-43" x1="2205.7" y1="-308.2" x2="2297.9" y2="-445.3" gradientTransform="translate(-2670.4 253) rotate(17.2)" gradientUnits="userSpaceOnUse">
      <stop offset="0" stop-color="#e2473d"/>
      <stop offset="1" stop-color="#e9615a"/>
    </linearGradient>
    <linearGradient id="linear-gradient-44" x1="2204.7" y1="-308.9" x2="2296.9" y2="-446" xlink:href="#linear-gradient-43"/>
    <linearGradient id="linear-gradient-45" x1="98.8" y1="134.9" x2="78.2" y2="188.5" gradientTransform="matrix(1,0,0,1,0,0)" xlink:href="#linear-gradient-12"/>
  </defs>
  <!-- Generator: Adobe Illustrator 28.6.0, SVG Export Plug-In . SVG Version: 1.2.0 Build 709)  -->
  <g class="cls-35">
    <g id="Capa_1">
      <g>
        <path class="cls-22" d="M287.2,121.3c.2-1-1.2-1.7-2.1-1-9.1,7.4-30.9,29.5-25.5,68,6.8,48.4-4.8,66.1-19.4,76.9,0,0,20-5.1,32.5-23,30.8-44,10.1-102.4,14.5-120.9Z"/>
        <path class="cls-19" d="M280.3,136.4c-1.1,5.4-2.2,10.8-2.9,16.2-.8,5.4-1.4,10.9-1.9,16.3-.4,5.5-.7,10.9-.7,16.4,0,5.5.2,10.9.4,16.4.2,5.5.5,11,0,16.6-.4,5.5-1.6,11.1-3.9,16.4-.6,1.3-1.2,2.6-1.9,3.9-.7,1.3-1.4,2.5-2.2,3.7-1.5,2.5-3.2,4.8-5.2,7.1-3.8,4.5-8.5,8.5-13.6,11.9-.5.4-1.3.3-1.7-.2-.4-.5-.3-1.1.2-1.5h0c1.2-.9,2.4-1.7,3.6-2.6.6-.4,1.1-.9,1.7-1.4.6-.5,1.1-.9,1.7-1.4,2.2-1.9,4.2-4,6-6.2,3.7-4.3,6.6-9.2,8.8-14.2,1.1-2.5,1.9-5.1,2.6-7.7.6-2.6,1-5.3,1.2-8,.4-5.4.2-10.9,0-16.3-.2-5.5-.3-11-.1-16.5,0-2.8.2-5.5.4-8.2,0-1.4.2-2.7.3-4.1.1-1.4.3-2.7.4-4.1.6-5.5,1.4-10.9,2.4-16.4,1-5.4,2.2-10.8,3.6-16.2,0-.2.2-.2.4-.2.2,0,.3.2.3.3Z"/>
      </g>
      <g>
        <path class="cls-22" d="M110,253s5.9-23.1-11.6-47.5c-16.2-22.7-57-75.4-61.9-103.7-.2-1.3-2.2-1-2.6.4-4.1,14.4-11.6,50.6,4.2,87.6,20.3,47.8,72,63.2,72,63.2Z"/>
        <path class="cls-15" d="M38,128s0,.5-.1,1.6c0,1,0,2.5,0,4.5,0,1.9.2,4.3.6,6.9.4,2.7.9,5.6,1.7,8.8.8,3.2,1.8,6.6,3.1,10.1,1.3,3.5,2.9,7.2,4.8,10.8,1.9,3.7,4,7.3,6.4,10.9.6.9,1.2,1.8,1.8,2.7.6.9,1.3,1.8,1.9,2.6,1.3,1.8,2.6,3.5,4,5.3,2.7,3.5,5.4,6.9,8.1,10.3,2.7,3.4,5.5,6.6,8.1,9.8,5.3,6.3,10.4,12.1,14.6,17.3,2.1,2.6,3.9,5,5.5,7.2,1.6,2.2,2.8,4.2,3.7,5.9.9,1.7,1.5,3.1,1.9,4.1.2.5.3.9.4,1.1,0,.3.1.4.1.4,0,0,0,.2-.1.2,0,0-.2,0-.2,0h0s0-.1-.2-.4c-.1-.2-.2-.6-.4-1.1-.4-.9-1.1-2.3-2-4-1-1.7-2.3-3.6-3.8-5.8-1.6-2.2-3.5-4.5-5.6-7-4.2-5.1-9.4-10.8-14.8-17.1-2.7-3.1-5.4-6.4-8.2-9.8-2.8-3.4-5.5-6.8-8.2-10.3-1.4-1.8-2.7-3.5-4-5.3-.6-.9-1.3-1.8-1.9-2.7-.6-.9-1.2-1.8-1.8-2.7-2.4-3.7-4.5-7.4-6.4-11.1-1.8-3.7-3.4-7.4-4.7-11-1.3-3.6-2.2-7.1-2.9-10.3-.7-3.2-1.2-6.3-1.4-8.9-.3-2.7-.4-5-.4-7,0-1.9.1-3.5.2-4.5.1-1,.2-1.6.2-1.6,0,0,0,0,0,0,0,0,0,0,0,0Z"/>
      </g>
      <g>
        <path class="cls-25" d="M78.8,47c.6-1.5,2.7-1.2,2.9.3,1.9,15.1,8.2,54.6,23.6,77.3,24.9,37,36.9,92.8,13.8,117.4,0,0-100.6-34.2-40.3-195Z"/>
        <path class="cls-14" d="M79.1,68.2s0,.2,0,.5c0,.3,0,.7,0,1.3,0,1.2.1,2.9.2,5.1.1,2.2.3,4.9.5,7.9.2,3.1.5,6.5.8,10.3.4,3.8.7,7.8,1.3,12.2.5,4.3,1.1,8.8,1.7,13.5.7,4.7,1.4,9.5,2.2,14.4.2,1.2.4,2.5.6,3.7.2,1.2.5,2.5.7,3.7.4,2.5,1,4.9,1.5,7.4.5,2.5,1.1,4.9,1.6,7.4.6,2.4,1.1,4.9,1.7,7.3.3,1.2.6,2.4.9,3.6.3,1.2.6,2.4.9,3.5.3,1.2.6,2.3,1,3.5.2.6.3,1.2.5,1.7.2.6.3,1.1.5,1.7.3,1.1.7,2.3,1,3.4.2.6.3,1.1.5,1.7.2.5.4,1.1.5,1.6.3,1.1.7,2.2,1,3.2.2.5.3,1.1.5,1.6.2.5.4,1,.5,1.5.4,1,.7,2,1.1,3,.2.5.3,1,.5,1.5.2.5.4,1,.5,1.4.7,1.9,1.4,3.8,2.1,5.5.7,1.7,1.4,3.4,2.1,5,.7,1.6,1.4,3.1,2,4.5.3.7.6,1.4.9,2,.3.6.6,1.3.9,1.9.6,1.2,1.1,2.3,1.6,3.3.2.5.5,1,.7,1.4.2.4.5.8.7,1.2.4.8.8,1.4,1,1.9.6,1,.9,1.6.9,1.6h0c0,0,0,.2,0,.2,0,0-.2,0-.2,0,0,0-.3-.5-.9-1.6-.3-.5-.7-1.1-1.1-1.9-.2-.4-.4-.8-.7-1.2-.2-.4-.5-.9-.8-1.4-.5-1-1.1-2.1-1.7-3.3-.3-.6-.6-1.2-1-1.8-.3-.7-.6-1.3-1-2-.7-1.4-1.4-2.9-2.1-4.4-.7-1.6-1.4-3.3-2.1-5-.7-1.7-1.4-3.6-2.2-5.5-.2-.5-.4-1-.6-1.4-.2-.5-.4-1-.5-1.5-.4-1-.7-2-1.1-3-1.5-4.1-2.9-8.5-4.2-13-.2-.6-.3-1.1-.5-1.7-.2-.6-.3-1.2-.5-1.7-.3-1.2-.6-2.3-1-3.5-.3-1.2-.6-2.4-.9-3.6-.3-1.2-.6-2.4-.9-3.6-.6-2.4-1.2-4.9-1.7-7.3-.3-1.2-.5-2.5-.8-3.7-.3-1.2-.5-2.5-.8-3.7-.5-2.5-1-5-1.4-7.4-.2-1.2-.5-2.5-.7-3.7-.2-1.2-.4-2.5-.6-3.7-.8-4.9-1.5-9.7-2.2-14.4-.6-4.7-1.2-9.2-1.6-13.6-.5-4.3-.8-8.4-1.1-12.2-.6-7.6-.9-13.9-1.1-18.3,0-2.2-.1-3.9-.1-5.1,0-.6,0-1.1,0-1.4,0-.3,0-.5,0-.5,0,0,0-.2.2-.2,0,0,.2,0,.2.2h0Z"/>
      </g>
      <g>
        <path class="cls-53" d="M247.8,50.8l-130.4,3c-7.2.2-13,5.9-13.2,13.1l-5.3,189.2c-.2,5.6,4.4,10.3,10,10.2l149.5-.7c5.3,0,9.5-4.4,9.4-9.7l-4.3-190.2c-.2-8.5-7.2-15.2-15.7-15Z"/>
        <g>
          <path class="cls-7" d="M247.4,51.4c-17.7,2.8-78.8,11.7-129.5,8.9-2.3-.1-4.3,1.7-4.3,4l-5.8,190.1c0,2.6,2,4.8,4.6,4.9,21.3.8,109.1,3.7,140.3-.3,1.9-.2,3.3-1.9,3.3-3.8l-3.3-199.4c0-2.7-2.5-4.8-5.2-4.3Z"/>
          <path class="cls-22" d="M245.6,56.4c-17.1,2.7-75.8,11.2-124.6,8.6-2.2-.1-4.1,1.6-4.2,3.8l-5.6,182.9c0,2.5,1.9,4.6,4.4,4.7,20.5.7,105,3.5,135-.3,1.8-.2,3.2-1.8,3.2-3.6l-3.2-191.9c0-2.6-2.4-4.6-5-4.2Z"/>
          <path class="cls-17" d="M235,75l-.9,39.2c0,1.3-1.1,2.4-2.4,2.4-7.2.4-29.8,1.4-42.6,1.1-1.4,0-2.6-1.2-2.7-2.6-.4-7.3-1.4-28.7,0-37.7.2-1.4,1.5-2.5,2.9-2.6l42.8-2.5c1.5,0,2.8,1.2,2.8,2.7Z"/>
          <circle class="cls-29" cx="210.7" cy="89.6" r="8.4" transform="translate(113.9 297) rotate(-88)"/>
          <path class="cls-24" d="M224,114l-26.8.6c-1.6,0-2.7-1.8-1.8-3.2,2.2-3.6,6.8-9,15.1-8.9,8,0,12.8,4.7,15.2,8,1,1.4,0,3.4-1.7,3.5Z"/>
          <g class="cls-1">
            <path class="cls-16" d="M127.7,80.9c-.8,0-1.4-.6-1.4-1.3s.6-1.3,1.4-1.4l47.3-1.9c.8,0,1.2.5.9,1.3l-.3.9c-.2.7-1,1.3-1.8,1.3l-46.2,1Z"/>
          </g>
          <g class="cls-1">
            <path class="cls-16" d="M175.2,83.6c.8,0,1.2.5.9,1.3l-.3.9c-.2.7-1,1.3-1.8,1.3l-46.2,1c-.8,0-1.4-.6-1.4-1.3,0-.7.6-1.3,1.4-1.4l47.3-1.9Z"/>
          </g>
          <g class="cls-1">
            <path class="cls-16" d="M175.3,91c.8,0,1.2.5.9,1.3l-.3.9c-.2.7-1,1.3-1.8,1.3l-46.2,1c-.8,0-1.4-.6-1.4-1.3,0-.7.6-1.3,1.4-1.4l47.3-1.9Z"/>
          </g>
          <path class="cls-2" d="M144.6,98.2c-3.6-.2-10.4-.2-14.2-.1-1.6,0-2.9,1.1-3.3,2.7-.7,3-1.5,8.2-1.3,13.7,0,1.6,1.5,2.9,3.1,2.9l13.8-.5c1.7,0,3.1-1.4,3.2-3.1l.9-13c0-1.3-.9-2.5-2.3-2.6Z"/>
          <g class="cls-1">
            <path class="cls-16" d="M153.1,104.6c-.8,0-1.4-.6-1.4-1.3s.6-1.4,1.4-1.4l22-1.3c.8,0,1.3.5,1.2,1.3v.8c-.2.7-.9,1.4-1.7,1.4l-21.4.5Z"/>
          </g>
          <g class="cls-1">
            <path class="cls-16" d="M175.4,109.2c.8,0,1.3.6,1.1,1.3l-.2.8c-.1.7-.9,1.3-1.6,1.3l-21.4-.3c-.8,0-1.4-.6-1.3-1.3,0-.7.7-1.3,1.4-1.3l22-.5Z"/>
          </g>
          <g class="cls-1">
            <path class="cls-16" d="M124.3,131.4c-.8,0-1.3-.6-1.3-1.3s.7-1.3,1.4-1.4l110.4-3.4c.8,0,1,.5.5,1.1l-1.1,1.4c-.5.6-1.4,1.1-2.2,1.1l-107.8,2.4Z"/>
          </g>
          <g class="cls-1">
            <path class="cls-16" d="M235,132.7c.8,0,1,.5.5,1.1l-1.1,1.4c-.5.6-1.4,1.1-2.2,1.1l-107.8,2.4c-.8,0-1.3-.6-1.3-1.3s.7-1.3,1.4-1.4l110.4-3.4Z"/>
          </g>
          <path class="cls-18" d="M235.6,144.9c-2.7-.1-7.6-.1-10.3-.1-1.2,0-2.2.8-2.4,1.9-.5,2.2-1.1,6-.9,10,0,1.2,1.1,2.1,2.3,2.1l10.1-.3c1.2,0,2.2-1,2.3-2.2l.7-9.5c0-1-.7-1.8-1.7-1.9Z"/>
          <g class="cls-1">
            <path class="cls-16" d="M217.2,149.2c.8,0,1.3.5,1.2,1.3l-.2,1.9c0,.7-.8,1.4-1.5,1.4l-24.8.6c-.8,0-1.4-.6-1.4-1.3v-.7c0-.8.6-1.4,1.3-1.5l25.4-1.6Z"/>
          </g>
          <path class="cls-18" d="M180.7,146.1c-2.7-.1-7.6-.1-10.3-.1-1.2,0-2.2.8-2.4,1.9-.5,2.2-1.1,6-.9,10,0,1.2,1.1,2.1,2.3,2.1l10.1-.3c1.2,0,2.2-1,2.3-2.2l.7-9.5c0-1-.7-1.8-1.7-1.9Z"/>
          <g class="cls-1">
            <path class="cls-16" d="M162.3,150.4c.8,0,1.3.5,1.2,1.3l-.2,1.9c0,.7-.8,1.4-1.5,1.4l-24.8.6c-.8,0-1.4-.6-1.4-1.3v-.7c0-.8.6-1.4,1.3-1.5l25.4-1.6Z"/>
          </g>
          <g class="cls-1">
            <path class="cls-16" d="M131.3,180c-.8,0-1.3-.6-1.3-1.3s.7-1.3,1.4-1.4l107.3-3.3c.8,0,1,.5.6,1.1l-1,1.4c-.4.6-1.4,1.1-2.2,1.1l-104.7,2.4Z"/>
          </g>
          <g class="cls-1">
            <path class="cls-16" d="M238.8,181.4c.8,0,1,.5.6,1.1l-1,1.4c-.4.6-1.4,1.1-2.2,1.1l-104.7,2.4c-.8,0-1.3-.6-1.3-1.3s.7-1.3,1.4-1.4l107.3-3.3Z"/>
          </g>
          <g class="cls-1">
            <path class="cls-16" d="M239,188.8c.8,0,1,.5.6,1.1l-1,1.4c-.4.6-1.4,1.1-2.2,1.1l-104.7,2.4c-.8,0-1.3-.6-1.3-1.3s.7-1.3,1.4-1.4l107.3-3.3Z"/>
          </g>
        </g>
        <path class="cls-31" d="M174.1,45.3l14.8-1.6.9-13.6c.2-2.7-1.6-5.2-4.2-6-2.9-.8-7-.8-11.6,2.6-9.1,6.6.2,18.6.2,18.6ZM176.9,33.9c0-2,1.6-3.7,3.6-3.8,2,0,3.7,1.6,3.8,3.6,0,2-1.6,3.7-3.6,3.8-2,0-3.7-1.6-3.8-3.6Z"/>
        <path class="cls-22" d="M187.2,38c-.2,0-.3-.2-.3-.4v-2.2c.2-.2.3-.3.5-.3.2,0,.3.2.3.4v2.2c-.2.2-.3.3-.5.3,0,0,0,0,0,0ZM187.5,33.7c-.2,0-.3-.2-.3-.4v-1.6c.3-2.3-1.2-4.3-3.4-4.9-1.7-.4-3.4-.5-5.1,0-.2,0-.4,0-.4-.3,0-.2,0-.4.3-.4,1.8-.4,3.6-.4,5.4,0,2.5.7,4.2,3.1,4,5.7v1.6c-.1.2-.3.3-.5.3,0,0,0,0,0,0Z"/>
        <path class="cls-46" d="M209.2,51.9l-.2-6.8c0-2.4-2-4.2-4.4-4.1l-47,2.7c-2.1.1-3.7,1.8-3.8,3.9l-.2,6.6,55.6-2.2Z"/>
        <path class="cls-22" d="M191.5,43.9h2c.2,0,.4-.2.3-.4,0-.2-.2-.4-.4-.3h-2c-.2,0-.4.2-.3.4,0,.2.2.4.4.3Z"/>
        <path class="cls-22" d="M206.6,49.9c.2,0,.4-.2.3-.4v-2.8c-.1-2.1-1.9-3.8-4-3.8l-7.4.2c-.2,0-.4.2-.3.4,0,.2.2.4.4.3l7.4-.2c1.7,0,3.2,1.3,3.2,3.1v2.8c0,.2.2.4.4.3Z"/>
        <path class="cls-42" d="M223.9,49.1l-82.2,1.9c-3,0-5.4,2.3-5.9,5.2v.4c-.5,3.2,2,6.1,5.2,6l84.4-1.9c1.9,0,3.4-1.7,3.3-3.6l-.3-3.8c-.2-2.4-2.2-4.2-4.5-4.1Z"/>
      </g>
      <g>
        <g>
          <path class="cls-37" d="M158,213.7l-11-26.6c-.2-.5-.7-.9-1.3-.9h-6.7c-1,0-1.7,1-1.2,1.9l12.7,27.7c.3.6.9.9,1.5.8l5-1.1c.8-.2,1.3-1.1,1-1.9Z"/>
          <g>
            <rect class="cls-43" x="171.6" y="245.1" width="3.2" height="34.9"/>
            <path class="cls-10" d="M161.2,278.5h24.1c1.2,0,2.1.9,2.1,2.1h-28.3c0-1.2.9-2.1,2.1-2.1Z"/>
            <rect class="cls-44" x="156" y="237.2" width="35.5" height="10.1" rx="3.5" ry="3.5"/>
          </g>
          <g>
            <path class="cls-11" d="M149.4,221.8s-4.8.7-10.2,4.3c-.8.6-1.3,1.6-1.2,2.6.6,5.1,3.3,21.7,12.1,37.8.5.9.6,1.8.4,2.8l-1.5,7.1-2.8,2.6h7.3l4.8-13.1-2.1-.7c-1.6-.5-2.7-2-2.7-3.7l-.2-14c.2-6.3-3.8-10.6-3.8-10.6l11.6-.6-11.6-14.7Z"/>
            <path class="cls-4" d="M143.3,280.3c-.7.9,7.1,2,11.1.1,0,0,5.5-9.5,5.5-14.4,0,0-.4-1-3.6-.8,0,0-1.8,11.2-3.8,12.5-1.9,1.3-5.4.1-5.4.1,0,0-2.7,1.1-3.7,2.4Z"/>
            <path class="cls-38" d="M159.5,237.2c0-.1-12.5-1.5-12.5-1.5,0,0,.4,3.8-.9,9-1.3,5.2-19.5,27.7-19.5,27.7l1.9,6.1c-5.9,2.1-11.7,2.4-17.5,1.1l11.9-7.1s11.1-37.8,17.9-44.6l12.5-4.3,6.2,13.6Z"/>
            <path class="cls-3" d="M187.4,215.2s7.2,10.7,7.7,15.5c.6,4.9-2,6.8-9.5,7.2-7.5.3-27.6.3-27.6.3l-17.1-14.6s12.5-4.5,15.7-5.7c3.2-1.3,30.7-2.6,30.7-2.6Z"/>
            <path class="cls-52" d="M127.8,276.5s2.1,2,.7,4.2c0,0-16.3,2.9-20.7,1.6,0,0,.9-2.1,5.9-4.5l-.4.3c-.5.4-.2,1.1.4,1.1,3.3-.2,10.1-.8,14.1-2.7Z"/>
          </g>
          <g>
            <path class="cls-41" d="M168,213.8s-8.3-7.9-12.4-13.2c-2.2-2.8-2.9-6.6-1.9-10,1.9-6.3,5.2-12.9,5.5-13.9.5-1.6,9.8-1.5,9.8-1.5,0,0,18.4,11.9,25.6,32.2l-8.1,2.5s-4.8-8.1-9.6-13.2c0,0,8.2,10.8,8.5,15.3l-17.5,1.8Z"/>
            <path class="cls-56" d="M158.1,168c0,.3,2.5,8.4,2.7,8.6.2.2,5.4.4,7.8-1.2l-4.1-8.6-6.4,1.3Z"/>
            <path class="cls-45" d="M155,156.1s-2.9,3.2-3,9.5,2.9,7.9,5.3,7.1c2.4-.7,5.8-2.3,7.9-7.4,2.1-5-6.4-13.2-10.3-9.3Z"/>
            <path class="cls-40" d="M161.6,163.7s-.8-8.8-7.5-5.8l-1.1,1.8s-4.4-3.1-1.3-6.9c3.1-3.9,10-4.9,14.2-.2,4.2,4.7,4.8,8.7,3.2,12.6-1.7,3.9-4.2,1.5-4.2,1.5,0,0,.4-3.2-.8-4.2-1.2-1-2,1.2-2,1.2h-.5Z"/>
            <path class="cls-48" d="M162.8,164.2s-.4-4.5,2.1-3.8c2.5.7.2,4.3-.8,5.6l-1.3-1.7Z"/>
            <path class="cls-33" d="M151,214.4l6.1-5.9,8.5,3.6s8.4,1.3,13.3,0l4.8-1.3,10.9-3.4,1.7,4.8c.4,1.2,0,2.6-1.1,3.4-.9.7-2.1,1.4-2.8,1.7-1.4.6-35.4-.4-35.4-.4l-6.1-2.4Z"/>
            <path class="cls-54" d="M165.8,153.7c-1.3-.5-1.4-2.2-.3-3,3.7-2.4,10-4.6,16.4,2.7,7.2,8.2,11.2,12.1,13.5,12.1,1.5,0,2.4,1.7,1.4,2.8-.7.8-2,1.6-4.1,2-16,3.5-19.5-13.8-27-16.6Z"/>
          </g>
          <g>
            <g>
              <path class="cls-34" d="M55.3,282.5c-.2,0-.3,0-.5-.1-.7-.3-1-1-.7-1.6l27.3-60.4c.3-.6,1-.9,1.7-.6.7.3,1,1,.7,1.6l-27.3,60.4c-.2.5-.7.7-1.2.7Z"/>
              <path class="cls-9" d="M86.1,282.5c-.5,0-1-.3-1.2-.7l-27.3-60.4c-.3-.6,0-1.4.7-1.6.7-.3,1.4,0,1.7.6l27.3,60.4c.3.6,0,1.4-.7,1.6-.2,0-.3.1-.5.1Z"/>
              <path class="cls-23" d="M167.6,282.5c-.2,0-.3,0-.5-.1-.7-.3-1-1-.7-1.6l27.3-60.4c.3-.6,1-.9,1.7-.6.7.3,1,1,.7,1.6l-27.3,60.4c-.2.5-.7.7-1.2.7Z"/>
              <path class="cls-13" d="M198.4,282.5c-.5,0-1-.3-1.2-.7l-27.3-60.4c-.3-.6,0-1.4.7-1.6.7-.3,1.4,0,1.7.6l27.3,60.4c.3.6,0,1.4-.7,1.6-.2,0-.3.1-.5.1Z"/>
            </g>
            <path class="cls-5" d="M207.1,218.5c0-.4,0-.8-.3-1.1-.3-.3-.7-.5-1.2-.5H47.1c-.6,0-1.2.3-1.5.7-.3.5-.4,1-.1,1.5l1.7,3.3c.4.7,1.2,1.2,2.2,1.2h155.1c.9,0,1.6-.5,1.8-1.3l.8-3.8Z"/>
          </g>
        </g>
        <g>
          <g>
            <path class="cls-22" d="M27.3,239.6c-1,1.4-4.8,33.5-5.4,45.3,0,.8.6,1.5,1.4,1.5h0c.7,0,1.3-.5,1.4-1.2l7-44.6-4.4-1Z"/>
            <path class="cls-22" d="M57.9,239.6c1,1.4,4.8,33.5,5.4,45.3,0,.8-.6,1.5-1.4,1.5h0c-.7,0-1.3-.5-1.4-1.2l-7-44.6,4.4-1Z"/>
            <path class="cls-22" d="M21.6,237.1v.3c0,2.5,2.1,4.6,4.9,4.6l32.2.5c2.7,0,4.9-1.9,5-4.4v-.3c.2-2.6-2-4.8-4.8-4.8l-32.2-.6c-2.8,0-5,2-5,4.5Z"/>
          </g>
          <g>
            <g>
              <path class="cls-39" d="M76,279.7c-5.1,0-7.4-.4-8.4-.8.2.8.9,1.5,1.9,1.5h18.1c.6,0,1-.6.8-1.1-2.1.2-6.4.4-12.4.4Z"/>
              <path class="cls-27" d="M88.5,279.3c0-.1,0-.2-.1-.3-1.4-1.8-4.1-4.5-7.9-4.5-5.5,0-7.4.7-11.7,0l-1,3.3c-.1.3-.1.7,0,1,1,.4,3.3.8,8.4.8s10.4-.3,12.4-.4Z"/>
            </g>
            <path class="cls-55" d="M69.9,271l-1.2,4.2s2.7,1.3,5.2.2l.5-3.7-4.4-.8Z"/>
            <g>
              <path class="cls-50" d="M107.4,277.1c-4,3.2-6,4.3-7.1,4.6.7.5,1.7.6,2.4,0l14.1-11.3c.5-.4.4-1.1,0-1.4-1.5,1.4-4.7,4.4-9.4,8.1Z"/>
              <path class="cls-36" d="M116.8,269c0,0-.2-.1-.3-.1-2.2-.5-6-.9-8.9,1.5-4.2,3.5-5.4,5.2-9.1,7.4l1.3,3.2c.1.3.3.6.6.8,1-.3,3.1-1.4,7.1-4.6,4.7-3.8,7.9-6.7,9.4-8.1Z"/>
            </g>
            <path class="cls-30" d="M43.4,222.9s30.6,2.5,36.9,5.5c6.3,3-5.1,44.3-5.1,44.3,0,0-1.7.8-5.5-.4,0,0,3.9-30.5,1-37.2l-33.1-5.4,5.9-6.9Z"/>
            <path class="cls-26" d="M95.4,271.9c.3.3,3,5.8,3,5.8,0,0,3.1-.7,3.7-2.6l-2.8-5-4,1.8Z"/>
            <path class="cls-47" d="M25,222.6s-1,2.4-1,5.6c0,4.4,3.6,8,8,8.2l36.2,1.6c.8,0,1.4.6,1.6,1.3.8,3.3,5,13.4,25.3,33.5.5.5,1.4.6,2,.2l2.9-1.8c.3-.2.4-.6.2-.9l-21.1-35.9c-1.1-1.8-2.9-3.1-4.9-3.7l-30.8-7.9-18.4-.3Z"/>
            <path class="cls-20" d="M24.9,222.5s-.4-17.9,3.2-34.8c1.3-6.2,4.8-11.8,9.8-15.7l1.7-1.3,8.4,3.4,4.3,7.4c2.4,4.7,1.8,15,0,20-3,8.3-5.4,17-6.4,21.2,0,0-13.9,1.8-20.9-.3Z"/>
            <path class="cls-32" d="M45.3,157.3l-6.5,15.2s2.1,4.7,9.4,2.9l2.6-10.5-5.5-7.6Z"/>
            <g>
              <path class="cls-21" d="M58.3,150.4c0,.2.3,15.2.3,15.2h-8.5c0,0-2.3-14.2-2.3-14.2,0,0,9.2-4.5,10.6-.9Z"/>
              <path class="cls-12" d="M50.2,154.1l.6,7.5c0,0,0,.2,0,.3.2.6,1.1,2.4,2.9,1.4,1.7-.9,3.2-1.7,4.4-1.6.5,0,1,.5,1,1,0,1.4,0,4.4-.4,7.1,0,.5-.6.9-1.1.9-1.6-.1-5.1-.5-7.8-1.4-.4-.1-.6-.4-.7-.8-.3-1.9-1.3-7.5-1.8-9.1-.5-1.4-2.5-1.9-3.4-2.1-.3,0-.5-.2-.7-.4-.6-.8-1.5-2.8,1-4.3.5-.3.7-1,.4-1.5-.6-1-1.2-2.7.7-4,1.9-1.4,3.7-.6,4.8.1.4.3,1,.2,1.4-.1.2-.2.5-.3.9-.2.6.2,1.2-.2,1.3-.7.3-1.1,1.1-2.5,3.2-2.6,3.8-.2,5.1,3.8,4.6,6.4-.5,2.6-4.6,2.5-6.8,1.8-1.7-.6-3.4.8-4.2,1.5-.2.2-.4.5-.3.8Z"/>
              <path class="cls-51" d="M47.6,162.2s.6-4.5-1.2-5.2c-1.8-.7-3.9.3-2.8,3.3,1.4,3.7,3.9,2,3.9,2Z"/>
            </g>
            <path class="cls-6" d="M65.5,208.2c-21.6,6.8-20.4-23.6-20.6-23.8-8.6-13.1-13.4,4.3-12.5,6.8,7.6,27.5,26.7,26.1,34.2,20.7-.9-1.4-1.1-2.7-1.1-3.7Z"/>
            <path class="cls-8" d="M48.9,203.5c-.1,0-.2-.1-.3-.2-3.3-5.1-4.2-12.2-4.4-17.2,0-.3.2-.6.5-.6.3,0,.6.2.6.5.2,4,.9,11.5,4.2,16.7.2.3,0,.6-.2.8-.1,0-.3.1-.5,0Z"/>
            <path class="cls-28" d="M42.9,210.4c0,0-.1,0-.2-.1-4.9-4.1-8.6-10.6-11-19.3,0-.3,0-.6.4-.7.3,0,.6,0,.7.4,2.3,8.5,5.9,14.8,10.7,18.8.2.2.3.5,0,.8-.1.2-.4.2-.6.2Z"/>
            <path class="cls-49" d="M78.2,201.8s-.4.6-2.9,2.5c-2.5,2-5.1,3.1-3.1.4,1.9-2.7,1-4.1-1.2-1.2-2.2,2.9-3.8,4-3.8,4-.6.2-1.1.4-1.7.6,0,1,.1,2.3,1.1,3.7.9-.3,1.4-.5,1.4-.5,0,0,6.7-1.2,8.1-4.1,1.4-2.8,2.2-5.5,2.2-5.5Z"/>
          </g>
        </g>
      </g>
      <g>
        <path class="cls-16" d="M127,187.6s-55.3-27.3-37.2-47.5c18.1-20.1,51.8-12.1,53.5,9.1,1.7,21.2-39.4,16.2-16.3,38.4Z"/>
        <g>
          <path class="cls-22" d="M94.4,145.9h24.4c.3,0,.6-.2.6-.6s-.2-.6-.6-.6h-24.4c-.3,0-.6.2-.6.6s.2.6.6.6Z"/>
          <path class="cls-22" d="M126.1,145.9h7.2c.3,0,.6-.2.6-.6s-.2-.6-.6-.6h-7.2c-.3,0-.6.2-.6.6s.2.6.6.6Z"/>
          <path class="cls-22" d="M93.6,150.8h9.2c.3,0,.6-.2.6-.6s-.2-.6-.6-.6h-9.2c-.3,0-.6.2-.6.6s.2.6.6.6Z"/>
          <path class="cls-22" d="M116.3,150.8h16.3c.3,0,.6-.2.6-.6s-.2-.6-.6-.6h-16.3c-.3,0-.6.2-.6.6s.2.6.6.6Z"/>
          <path class="cls-22" d="M92.8,155.8h24.4c.3,0,.6-.2.6-.6s-.2-.6-.6-.6h-24.4c-.3,0-.6.2-.6.6s.2.6.6.6Z"/>
          <path class="cls-22" d="M123.3,155.8h8.4c.3,0,.6-.2.6-.6s-.2-.6-.6-.6h-8.4c-.3,0-.6.2-.6.6s.2.6.6.6Z"/>
        </g>
      </g>
    </g>
  </g>
</svg>