<?xml version="1.0" encoding="UTF-8"?>
<svg id="Layer_1" data-name="Layer 1" xmlns="http://www.w3.org/2000/svg" version="1.1" xmlns:xlink="http://www.w3.org/1999/xlink" viewBox="0 0 3000 2000">
  <defs>
    <style>
      .cls-1, .cls-2, .cls-3, .cls-4, .cls-5, .cls-6, .cls-7, .cls-8, .cls-9, .cls-10, .cls-11, .cls-12, .cls-13, .cls-14 {
        stroke-width: 0px;
      }

      .cls-1, .cls-6, .cls-15 {
        fill: #1b3d9e;
      }

      .cls-16, .cls-12 {
        fill: #d4dfff;
      }

      .cls-2 {
        fill: #1c056d;
      }

      .cls-17 {
        clip-path: url(#clippath-2);
      }

      .cls-3, .cls-18 {
        fill: #fe8e9c;
      }

      .cls-19 {
        clip-path: url(#clippath-6);
      }

      .cls-4 {
        opacity: .5;
      }

      .cls-4, .cls-8, .cls-11 {
        fill: #6880e4;
      }

      .cls-5 {
        fill: #f7931e;
      }

      .cls-6 {
        opacity: .5;
      }

      .cls-20 {
        clip-path: url(#clippath-7);
      }

      .cls-21 {
        clip-path: url(#clippath-1);
      }

      .cls-22 {
        clip-path: url(#clippath-4);
      }

      .cls-7 {
        fill: #f6f9ff;
      }

      .cls-23, .cls-9 {
        fill: #fc476a;
      }

      .cls-24 {
        clip-path: url(#clippath-9);
      }

      .cls-25 {
        clip-path: url(#clippath);
      }

      .cls-26 {
        clip-path: url(#clippath-3);
      }

      .cls-10 {
        fill: #e57492;
      }

      .cls-27 {
        clip-path: url(#clippath-8);
      }

      .cls-11 {
        opacity: .2;
      }

      .cls-13 {
        fill: #d40221;
      }

      .cls-14 {
        fill: #fff;
      }

      .cls-28 {
        clip-path: url(#clippath-5);
      }

      .cls-29 {
        clip-path: url(#clippath-10);
      }
    </style>
    <clipPath id="clippath">
      <path class="cls-1" d="M670.1,1779.3s-98.2-331.9-82.4-340.7c15.8-8.8,403.5-9.1,403.5-9.1,0,0-44.5,349.1-56.8,349.8-12.3.7-231.6,1.5-264.3,0Z"/>
    </clipPath>
    <clipPath id="clippath-1">
      <path class="cls-12" d="M895.9,711.4s-4.4,729.7,13.2,731.6,1299.5,10,1310.5,0c11-10,15.4-737.6,0-737.6s-1323.7,6-1323.7,6Z"/>
    </clipPath>
    <clipPath id="clippath-2">
      <rect class="cls-1" x="2163.7" y="1365.7" width="357" height="413" rx="12.1" ry="12.1"/>
    </clipPath>
    <clipPath id="clippath-3">
      <path class="cls-9" d="M2258,1365.7s-4.7-340,1.6-343.9,54.5-7.9,58.4,1.6,0,342.3,0,342.3h-60Z"/>
    </clipPath>
    <clipPath id="clippath-4">
      <path class="cls-12" d="M2357.1,871.3h132c2.1,0,3.7,1.7,3.7,3.7v490.7h-139.5v-490.7c0-2.1,1.7-3.7,3.7-3.7Z"/>
    </clipPath>
    <clipPath id="clippath-5">
      <path class="cls-3" d="M1172.4,613l-53,6.9c-29.2-13.7-57.4-22.5-83.7-19.8-26.5,2.8-41.6,30.5-35.1,49.1,5.7,16.4,53.3,33.2,73.9,33.6,20.5.4,51.7-4.3,63.2-14.5,0,0,0,0,0,0h34.8v-55.3Z"/>
    </clipPath>
    <clipPath id="clippath-6">
      <path class="cls-1" d="M1119.4,619.9s-17,1.5-20.3,1.6c-11.9.3-23.8.9-23.8.9,0,0-7.4-24-18.3-19.1-16,7.2,2.3,18.5,2.3,18.5,0,0-28.4-4.7-31.2-4.9-2.8-.2,21.3,50.6-4.4,66-25.7,15.4-54.3,7.3-57.8-32.7s37.4-78.3,75.1-77c37.7,1.3,78.5,46.7,78.5,46.7Z"/>
    </clipPath>
    <clipPath id="clippath-7">
      <path class="cls-3" d="M1239.1,984.9s-7.9,10.6-10.5,15.9c-2.6,5.3-3.5,31.6-2.9,31.5s6.4-.4,7.6-3.9l6.5-22.2s.4,23.8-.3,25.5c-.8,1.7-14.5,29-13.3,29.9,1.2.9,6.4,4,10.5-2.8,4.1-6.8,13.6-24.5,14.8-27.3,1.2-2.8-18.8,37.2-18,37.5.8.3,5.9,3,7.9.4,2-2.6,19.9-31,20.5-33.3.6-2.3-11.1,27.2-10.5,27.2s2.9,3,6.1-1c3.2-4,13.9-25.7,14.4-26.8.5-1.1.4-14.9.4-14.9,0,0,2.7,16.2,2,18.3s-5.5,14.4-3.3,14.8c1.7.3,4.7-3,7.1-7.3,2.4-4.3,5.4-10.9,5.1-17s-11.6-40.8-11.6-40.8l-32.5-3.7Z"/>
    </clipPath>
    <clipPath id="clippath-8">
      <path class="cls-1" d="M2074.7,620s-339.4-27.8-409.8-42.6c-70.5-14.8-129.2,17.4-129.2,17.4v72.1s182.4,155.4,264.1,157.4c81.8,2,252.8-43.6,254.2-51.1,1.4-7.5,0-51.8-6.8-54.5-6.8-2.7-233.1,23.2-237.2,18.4-2.7-3.1-41-41.6-74.6-70.2h339.2v-46.9Z"/>
    </clipPath>
    <clipPath id="clippath-9">
      <path class="cls-1" d="M2082.1,721.9s5.8-9.3,16.6-10.8,14.4,0,14.4,0c0,0,29.1,78.9,23.8,80.6-5.3,1.7-17.2,1.9-20.8-1.4-3.6-3.3-31-41.5-31-41.5,0,0,1.8-20.6-3-26.9Z"/>
    </clipPath>
    <clipPath id="clippath-10">
      <path class="cls-1" d="M2107.4,641.9s3.9-9.9,15.5-10.6c11.5-.6,38.5,13.7,40.9,14.7,2.4,1,34.9,9.8,35.5,10,7,3.5.8,11.8.8,11.8l-90.5-1.1-2.1-25Z"/>
    </clipPath>
  </defs>
  <path class="cls-7" d="M1031.6,1601.6c-108.8-32.3-213.4-74.3-304.1-132.1-391.6-249.9-305.6-828.6,1.8-1109.9,96.4-88.2,221.2-149.7,352.3-160.6,146.7-12.2,300.4,33.8,410.8,132.5,100.4,89.6,159.3,212.6,289.9,265.7,151.4,61.6,319.3,37.5,478,55.7,311.9,35.9,515.8,309.2,446.9,621.1-79.9,361.5-412.1,441.9-734.2,454.5-186.7,7.3-373.4-11.4-557.3-43.2-122.9-21.2-256.4-45.8-384.2-83.7Z"/>
  <g>
    <g>
      <g>
        <path class="cls-12" d="M669,1165.4c-16,14-39.7,18.5-59.7,11.2-20-7.3-35.3-26-38.5-46.9-3.8-24.7,6.7-54.4-10.7-72.3-8.8-9-22.7-12.1-30.2-22.2-6.2-8.5-6.4-19.9-6.3-30.4.2-18.7.4-37.5.6-56.2-8.3-10.4-25.1-9.8-35.1-18.6-9.8-8.8-12-23.1-13.7-36.1-5.2-38.6-12.5-76.9-21.9-114.6,29.2,8.6,58.1,17.9,85.8,30.5,15.4,7.1,31.6,15.7,39.3,30.8,7.8,15.2,5.3,33.3,5.1,50.4,0,5.5.1,11.2,2.5,16.2,6,12.9,22.6,15.9,34.9,23,13.6,7.8,23.1,22.4,24.8,38.1,1.5,14.2-3.1,28.7-.4,42.7,5.9,31.1,43.2,45.4,58,73.3,15.6,29.2-9.6,59.3-34.5,81.1Z"/>
        <path class="cls-2" d="M745.6,1443.1c-.5,0-1-.4-1-.9-5.9-33.9-26.3-125.6-61.9-229.9-26.1-76.5-56.3-148.9-89.8-215-41.9-82.6-89-155.8-140.1-217.4-.4-.5-.3-1.1.1-1.5.5-.4,1.1-.3,1.5.1,51.2,61.7,98.5,135,140.4,217.8,33.6,66.2,63.8,138.7,90,215.3,35.6,104.4,56.1,196.2,62,230.2,0,.6-.3,1.1-.9,1.2,0,0-.1,0-.2,0Z"/>
      </g>
      <g>
        <path class="cls-12" d="M207.8,1077.9c10,8.1,14.3,21.1,19.4,32.9s12.9,24.2,25.4,27.2c13.6,3.3,27.8-5.7,41.5-2.6,11,2.5,18.9,12.2,24.7,21.9,5.8,9.7,10.9,20.3,19.9,27.2,14,10.6,33.4,9.2,50.8,6.8s36.3-5.1,51.5,3.8c18.5,10.8,25.3,35.2,43.7,46.2,7.8,4.7,17,6.4,26.1,7.1,27,2,54.6-5.2,77.1-20.3-1.3-24.6-9.9-51.2-25.3-70.4-15.5-19.2-38.7-32.5-63.4-33.9-7.9-.4-15.8.3-23.6-.9-32.6-5.4-49.6-43.3-79.8-56.7-12.8-5.7-27.8-6.5-41.2-2.3-13.1,4.1-24.8,12.9-38.5,14.4-13.4,1.4-26.3-4.4-39.2-8-24.8-7-44.9-1.1-69.1,7.6Z"/>
        <path class="cls-2" d="M736.5,1434.3c-.5,0-.9-.3-1-.8-15.5-60.7-50.3-118.8-100.5-168.2-43.1-42.4-98.5-79.1-164.7-109.1-71.2-32.3-153.2-56.7-258.3-77-.6-.1-1-.7-.8-1.2.1-.6.7-1,1.2-.8,105.2,20.3,187.5,44.8,258.8,77.2,66.4,30.1,122,66.9,165.3,109.5,50.5,49.6,85.4,108.1,101,169.2.1.6-.2,1.1-.8,1.3,0,0-.2,0-.3,0Z"/>
      </g>
      <path class="cls-12" d="M778.3,1076.8c-15.5,3-32.2-1.2-44.5-11.2-12.3-10-19.8-25.5-20-41.3-.2-12,3.6-23.7,7.7-34.9,1.4-3.9,2.9-7.9,2.4-12-.4-3.2-2-6.2-3.8-8.9-6.7-10.3-16-19.2-19.5-30.9-6.2-20.8,7.7-43.2,3.3-64.5-1.5-7.4-5.2-14.2-7.8-21.3-9.2-25-4.4-54.7,12.2-75.6,23.4,9.4,38.7,34.3,38.9,59.6.1,12.6-3.3,25.9,2,37.3,3.2,6.8,9.1,11.9,14.7,16.9,9.7,8.9,19.1,19.1,22.5,31.8,5.4,20-4.9,42,1.8,61.6,6.6,19.4,28.3,31,34.2,50.6,1.6,5.3,1.9,10.9,1.5,16.3-.7,8.4-3.5,17.1-9.8,22.7-9.9,8.7-22.7,1.2-35.7,3.7Z"/>
      <path class="cls-2" d="M787.1,1439.6c-.5,0-1-.4-1.1-1-4.6-54-3.3-109.2-2.1-162.6,1.7-73.9,3.4-150.3-10.4-223.9-7.1-38.1-18.6-76-29.6-112.6-15.4-51-31.3-103.7-35.8-157.6,0-.6.4-1.1,1-1.1.6,0,1.1.4,1.1,1,4.5,53.7,20.4,106.3,35.7,157.1,11.1,36.7,22.5,74.6,29.7,112.8,13.9,73.8,12.1,150.4,10.4,224.3-1.2,53.3-2.5,108.5,2.1,162.4,0,.6-.4,1.1-1,1.1,0,0,0,0,0,0Z"/>
    </g>
    <g>
      <path class="cls-15" d="M670.1,1779.3s-98.2-331.9-82.4-340.7c15.8-8.8,403.5-9.1,403.5-9.1,0,0-44.5,349.1-56.8,349.8-12.3.7-231.6,1.5-264.3,0Z"/>
      <g class="cls-25">
        <path class="cls-2" d="M765.8,1403.9s-113.4,144.9-107,148.8c6.4,3.9,325.1,69.6,324.9,65.7-.1-3.9,32.4-188.8,32.4-188.8l-250.4-25.7Z"/>
      </g>
    </g>
  </g>
  <g>
    <g>
      <g>
        <rect class="cls-1" x="1420.5" y="1494.3" width="277.4" height="235.8"/>
        <rect class="cls-2" x="1314.8" y="1730.1" width="495.4" height="50.1" rx="20.9" ry="20.9"/>
      </g>
      <path class="cls-8" d="M862.1,672.1c.6-1.2,1.8-1.9,3.1-1.9,56-.4,1341.2-8.9,1398.2,0,22.4,3.5,16.9,858.1,0,890.7-12.4,24-1384.1,2.9-1400,0-19.6-3.6-29.4-832.7-1.2-888.8Z"/>
      <g>
        <path class="cls-16" d="M895.9,711.4s-4.4,729.7,13.2,731.6,1299.5,10,1310.5,0c11-10,15.4-737.6,0-737.6s-1323.7,6-1323.7,6Z"/>
        <g class="cls-21">
          <polygon class="cls-4" points="1737.9 688.8 1239.7 1462.3 871.4 1462.3 895.9 711.4 1737.9 688.8"/>
          <polygon class="cls-4" points="1353.4 1468.6 1832.2 684.7 2042.4 684.7 1581 1464.5 1353.4 1468.6"/>
          <polygon class="cls-4" points="2131.2 687.6 1667.6 1469.3 1954.8 1465.7 2263.2 898 2257 692.5 2131.2 687.6"/>
        </g>
      </g>
    </g>
    <circle class="cls-1" cx="1559.2" cy="1516.4" r="33.7" transform="translate(-461.6 712.1) rotate(-22.5)"/>
    <g>
      <path class="cls-14" d="M1241.2,1026.6c1.7-7.7,4.9-13.6,9.7-17.6,4.8-4,10.1-6.1,15.9-6.2,5.8-.1,11.3,1.6,16.5,5.2,5.2,3.6,9,9.1,11.2,16.5.3,17.9.4,35.6.4,53.1s.3,35.1.8,52.7c12.1,0,23.9-.1,35.4-.4,11.4-.3,22.4-.4,32.9-.4,7.4,2.2,13,5.7,16.5,10.5,3.6,4.8,5.3,9.9,5.2,15.1-.1,5.2-2.2,10.1-6.2,14.5-4,4.4-9.9,7.4-17.6,9.1-10.8,0-21.5,0-32.3.2-10.8.1-21.5,0-32.3-.2.5,13.8.9,28.7,1,44.9.1,16.1.3,31.1.6,44.9-.6,9.1-3.5,15.9-8.9,20.3-5.4,4.4-11.4,6.6-18,6.6s-12.9-2.3-18.8-6.8c-5.9-4.5-9.4-11.2-10.5-20.1-.3-14.1,0-28.9.6-44.5.7-15.6.8-30.4.2-44.5-11.9-.3-24.6-.9-38.3-1.9-13.6-1-26.9-3-39.7-6-12.8-3-24.6-7.3-35.4-12.8-10.8-5.5-19.4-12.8-26.1-21.9-6.1-8.5-9.5-17.8-10.3-27.7-.8-9.9.1-20.1,2.9-30.6,2.8-10.5,6.9-21.1,12.4-31.8,5.5-10.8,11.5-21.1,18-31,6.5-9.9,13-19.2,19.4-27.9,6.5-8.7,12.2-16.3,17.2-23,11-14.9,22.3-29.4,33.9-43.4,11.6-14.1,23.2-28.3,34.7-42.6,6.1-5,12.3-7.5,18.8-7.7,6.5-.1,12.1,1.4,16.7,4.8,4.7,3.3,7.9,8,9.7,14.1,1.8,6.1,1.3,12.8-1.4,20.3-9.4,11.6-20.4,24.7-33.1,39.5-12.7,14.8-25.2,30.2-37.4,46.3-12.3,16.1-23.4,32.5-33.5,49.2-10.1,16.7-17.2,32.9-21.3,48.6-1.7,5.5-1,10.3,1.9,14.3,2.9,4,7.2,7.3,12.8,9.9,5.6,2.6,12.2,4.8,19.6,6.4,7.4,1.7,14.8,2.9,22.1,3.7,7.3.8,14.1,1.4,20.3,1.9,6.2.4,11,.8,14.3,1-.6-17.4-.8-34.8-.8-52.3v-52.3Z"/>
      <path class="cls-14" d="M1441.7,1217.3c-3.6-11.9-7.2-26.7-10.8-44.5-3.6-17.8-6.3-37-8.1-57.7-1.8-20.7-2.4-41.9-1.9-63.7.5-21.8,3-42.6,7.2-62.4,4.3-19.8,10.8-37.9,19.6-54.2,8.8-16.3,20.5-29.1,35.2-38.5,18.2-11.6,36.9-19.8,56.2-24.8,19.3-5,38.2-6.9,56.7-5.8,18.5,1.1,36,5,52.7,11.8,16.7,6.8,31.3,15.9,43.8,27.5,12.5,11.6,22.6,25.5,30.2,41.8,7.6,16.3,11.6,34.5,12.2,54.6.3,19,1,39.4,2.1,61,1.1,21.6,1.2,43.4.2,65.1-1,21.8-3.8,42.8-8.5,63.1-4.7,20.3-12.4,38.5-23.2,54.8-9.1,13.8-21.3,25-36.6,33.5-15.3,8.5-31.8,14.5-49.6,18-17.8,3.4-36,4.3-54.8,2.7-18.8-1.7-36.3-5.9-52.7-12.6-16.4-6.8-30.9-15.9-43.4-27.5-12.5-11.6-21.4-25.6-26.7-42.2ZM1510.8,943.9c-7.2,5.5-13.6,13.6-19.2,24.2-5.7,10.6-8.9,21.9-9.7,33.7-1.1,16.5-2.2,33.3-3.3,50.2-1.1,17-1.5,33.7-1.2,50.2.3,16.5,1.7,32.8,4.1,48.8,2.5,16,7,31.3,13.6,45.9,4.1,9.7,10.3,17.8,18.4,24.4,8.1,6.6,17.2,11.7,27.3,15.3,10.1,3.6,20.7,5.6,32,6,11.3.4,22.3-.7,33.1-3.3,10.8-2.6,20.9-6.8,30.4-12.6,9.5-5.8,17.6-13.2,24.2-22.3,4.7-5.8,8.5-13.9,11.4-24.2,2.9-10.3,5-21.8,6.4-34.5,1.4-12.7,2.2-25.8,2.5-39.3.3-13.5.3-26.3,0-38.5-.3-12.1-.6-23-.8-32.5-.3-9.5-.4-16.5-.4-20.9.3-13.2-1.9-25.6-6.4-37-4.5-11.4-10.8-21.4-18.8-30-8-8.5-17.4-15.4-28.3-20.7-10.9-5.2-22.6-8.3-35.1-9.1-12.5-.8-25.6.8-39.3,5-13.6,4.1-27.2,11.2-40.7,21.1Z"/>
      <path class="cls-14" d="M1930.1,1026.6c1.7-7.7,4.9-13.6,9.7-17.6,4.8-4,10.1-6.1,15.9-6.2,5.8-.1,11.3,1.6,16.5,5.2,5.2,3.6,9,9.1,11.2,16.5.3,17.9.4,35.6.4,53.1s.3,35.1.8,52.7c12.1,0,23.9-.1,35.4-.4,11.4-.3,22.4-.4,32.9-.4,7.4,2.2,13,5.7,16.5,10.5,3.6,4.8,5.3,9.9,5.2,15.1-.1,5.2-2.2,10.1-6.2,14.5-4,4.4-9.9,7.4-17.6,9.1-10.8,0-21.5,0-32.3.2-10.8.1-21.5,0-32.3-.2.5,13.8.9,28.7,1,44.9.1,16.1.3,31.1.6,44.9-.6,9.1-3.5,15.9-8.9,20.3-5.4,4.4-11.4,6.6-18,6.6s-12.9-2.3-18.8-6.8c-5.9-4.5-9.4-11.2-10.5-20.1-.3-14.1,0-28.9.6-44.5.7-15.6.8-30.4.2-44.5-11.9-.3-24.6-.9-38.3-1.9-13.6-1-26.9-3-39.7-6-12.8-3-24.6-7.3-35.4-12.8-10.8-5.5-19.4-12.8-26.1-21.9-6.1-8.5-9.5-17.8-10.3-27.7-.8-9.9.1-20.1,2.9-30.6,2.8-10.5,6.9-21.1,12.4-31.8,5.5-10.8,11.5-21.1,18-31,6.5-9.9,13-19.2,19.4-27.9,6.5-8.7,12.2-16.3,17.2-23,11-14.9,22.3-29.4,33.9-43.4,11.6-14.1,23.2-28.3,34.7-42.6,6.1-5,12.3-7.5,18.8-7.7,6.5-.1,12.1,1.4,16.7,4.8,4.7,3.3,7.9,8,9.7,14.1,1.8,6.1,1.3,12.8-1.4,20.3-9.4,11.6-20.4,24.7-33.1,39.5-12.7,14.8-25.2,30.2-37.4,46.3-12.3,16.1-23.4,32.5-33.5,49.2-10.1,16.7-17.2,32.9-21.3,48.6-1.7,5.5-1,10.3,1.9,14.3,2.9,4,7.2,7.3,12.8,9.9,5.6,2.6,12.2,4.8,19.6,6.4,7.4,1.7,14.8,2.9,22.1,3.7,7.3.8,14.1,1.4,20.3,1.9,6.2.4,11,.8,14.3,1-.6-17.4-.8-34.8-.8-52.3v-52.3Z"/>
    </g>
    <g>
      <path class="cls-6" d="M1160.5,1566.6l-132.6-372.8,33.7,5.4c1.9.3,3.5,1.6,4.1,3.4l132.7,364.3c0,0,0,.2-.1.2l-37.8-.5Z"/>
      <g>
        <path class="cls-9" d="M734.2,1582.4c5.6-1,280.7-391.4,293.7-388.6s164.1,461.7,158.5,460.8-466.1-69.8-452.2-72.2Z"/>
        <path class="cls-14" d="M985.1,1519.2c-2.1,1.9-4.3,3.2-6.5,3.7-2.2.6-4.3.5-6.3,0-2-.6-3.8-1.7-5.5-3.4-1.6-1.7-2.9-3.8-3.7-6.5,1.3-16.4,2.4-33.1,3.1-50,.7-16.9,1.6-33.8,2.7-50.5,1.1-16.7,2.7-33.2,4.8-49.4,2.1-16.2,5.2-31.8,9.2-46.8.3-1.2,1.5-2.3,3.4-3.3,1.9-1,4.2-1.7,7-2.1,2.7-.4,5.7-.6,9-.5,3.2,0,6.3.5,9.3,1.2,3,.7,5.6,1.7,8,3.1,2.3,1.4,4,3.1,5.1,5.2,1.7,2.4,2.8,6.5,3.1,12.3.3,5.8.2,12.9-.4,21.1-.6,8.2-1.7,17.3-3.3,27.4-1.6,10-3.5,20.3-5.6,30.9-2.2,10.6-4.6,21.2-7.2,31.8-2.6,10.6-5.4,20.7-8.3,30.2-2.9,9.5-5.8,18.1-8.8,25.9-2.9,7.8-5.8,14.1-8.5,18.8,0,.1-.2.5-.6,1ZM956.7,1581.5c-3-2.3-5.4-5-7.3-8-1.8-3-2.9-6.1-3.2-9.3-.3-3.1.4-6.2,2-9.2,1.6-3,4.3-5.6,8-7.8,5.1-3.1,10.3-4.3,15.5-3.6,5.2.7,9.1,3.9,11.9,9.4,2.6,4.8,3.9,9.9,3.8,15.5-.1,5.5-2.5,10.3-7.2,14.4-3.5,3.1-7.4,4.4-11.7,3.8-4.3-.6-8.3-2.3-11.7-5.2Z"/>
      </g>
    </g>
  </g>
  <g>
    <g>
      <rect class="cls-15" x="2163.7" y="1365.7" width="357" height="413" rx="12.1" ry="12.1"/>
      <g class="cls-17">
        <path class="cls-2" d="M2530.7,1424.2s-139.8,196.9-392.9,251.4v120.5h401.7s10.5-364.9-8.8-371.9Z"/>
      </g>
    </g>
    <g>
      <path class="cls-23" d="M2258,1365.7s-4.7-340,1.6-343.9,54.5-7.9,58.4,1.6,0,342.3,0,342.3h-60Z"/>
      <g class="cls-26">
        <polygon class="cls-13" points="2299.3 1070.3 2299.3 1372.4 2276.8 1372.4 2276.8 1070.9 2299.3 1070.3"/>
        <path class="cls-12" d="M2247,1083.4s70.1-5.3,79.9-.4c0,0-.5-69.9-4.4-71.3-3.9-1.5-70.8-1.8-72.3,5.9-1.5,7.8-3.2,65.8-3.2,65.8Z"/>
      </g>
    </g>
    <g>
      <path class="cls-16" d="M2357.1,871.3h132c2.1,0,3.7,1.7,3.7,3.7v490.7h-139.5v-490.7c0-2.1,1.7-3.7,3.7-3.7Z"/>
      <g class="cls-22">
        <rect class="cls-4" x="2342.2" y="853.3" width="47.8" height="530.5"/>
        <rect class="cls-8" x="2353.4" y="909.3" width="17.6" height="6.1"/>
        <rect class="cls-8" x="2353.4" y="937.4" width="17.6" height="6.1"/>
        <rect class="cls-8" x="2353.4" y="965.6" width="17.6" height="6.1"/>
        <rect class="cls-8" x="2353.4" y="993.8" width="17.6" height="6.1"/>
        <rect class="cls-8" x="2353.4" y="1022" width="17.6" height="6.1"/>
        <rect class="cls-8" x="2353.4" y="1050.2" width="17.6" height="6.1"/>
        <rect class="cls-8" x="2353.4" y="1078.4" width="17.6" height="6.1"/>
        <rect class="cls-8" x="2353.4" y="1106.5" width="17.6" height="6.1"/>
        <rect class="cls-8" x="2353.4" y="1134.7" width="17.6" height="6.1"/>
        <rect class="cls-8" x="2353.4" y="1162.9" width="17.6" height="6.1"/>
        <rect class="cls-8" x="2353.4" y="1191.1" width="17.6" height="6.1"/>
        <rect class="cls-8" x="2353.4" y="1219.3" width="17.6" height="6.1"/>
        <rect class="cls-8" x="2353.4" y="1247.5" width="17.6" height="6.1"/>
        <rect class="cls-8" x="2353.4" y="1275.6" width="17.6" height="6.1"/>
        <rect class="cls-8" x="2353.4" y="1303.8" width="17.6" height="6.1"/>
        <rect class="cls-8" x="2353.4" y="1332" width="17.6" height="6.1"/>
        <path class="cls-11" d="M2462.7,852.7c-38.7,33.2-52.3,92.5-31.9,139.2,9.7,22.2,26.3,42,29.5,66.1,3,23.3-7.2,46-15.4,68.1-8,21.8-14.2,44.8-12.5,67.9,2.7,37.8,25.9,73.2,22.1,110.9-3.6,36.2-31.8,67.8-30.2,104.2.5,0-.5,1.6,0,1.6h90.6v-560.3s11.1.1,11.1.1l-63.3,2.2Z"/>
      </g>
    </g>
  </g>
  <path class="cls-5" d="M2763.8,1784.5H474.3c-2.3,0-4.3-1.9-4.3-4.3s1.9-4.3,4.3-4.3h2289.5c2.3,0,4.3,1.9,4.3,4.3s-1.9,4.3-4.3,4.3Z"/>
  <g>
    <g>
      <g>
        <path class="cls-18" d="M1172.4,613l-53,6.9c-29.2-13.7-57.4-22.5-83.7-19.8-26.5,2.8-41.6,30.5-35.1,49.1,5.7,16.4,53.3,33.2,73.9,33.6,20.5.4,51.7-4.3,63.2-14.5,0,0,0,0,0,0h34.8v-55.3Z"/>
        <g class="cls-28">
          <path class="cls-10" d="M1056,685.4s10.2-19.9,9.7-35.2c-.5-15.3-21.5-39.1-21.5-39.1l-17.4.9s5.7,55.8.6,65.7c-5,9.8,0,0,0,0l28.5,7.8Z"/>
        </g>
      </g>
      <path class="cls-10" d="M1137.6,668.4s10.5-16.1-13.9-32.4c0,0,21.8,3.5,29.2,18,7.5,14.5,5.9,14.7,5.9,14.7l-21.3-.4Z"/>
    </g>
    <g>
      <path class="cls-15" d="M1119.4,619.9s-17,1.5-20.3,1.6c-11.9.3-23.8.9-23.8.9,0,0-7.4-24-18.3-19.1-16,7.2,2.3,18.5,2.3,18.5,0,0-28.4-4.7-31.2-4.9-2.8-.2,21.3,50.6-4.4,66-25.7,15.4-54.3,7.3-57.8-32.7s37.4-78.3,75.1-77c37.7,1.3,78.5,46.7,78.5,46.7Z"/>
      <g class="cls-19">
        <path class="cls-2" d="M1001.9,690.2s19.5-16.4,18.6-34.5c-1-18.1-6.8-46.4-3.9-48.3,2.9-1.9,33,10.1,33,10.1,0,0-5.5-8.1,4.1-12.3,9.7-4.2,0,0,0,0,0,0,15.3,16.7,14.2,18.5-1.1,1.8-36.2-1.8-36.2-1.8,0,0,13.8,33.9,3.9,53.9-9.9,20-33.6,14.3-33.6,14.3"/>
      </g>
    </g>
    <path class="cls-7" d="M1118.3,668.7s-8.1-2.3-8.1-16.4,0-1.4,0-1.4c0,0,8.2,14.9,8.1,17.8Z"/>
    <path class="cls-10" d="M1052.5,651.6s32.3,17.5,35.3,15.7-2.4-21.5-2.4-21.5c0,0,3.5-.2,4.3,2.9.8,3.1,5.4,21.7,0,22s-31.9-12.7-37.2-19.1Z"/>
    <g>
      <path class="cls-18" d="M1239.1,984.9s-7.9,10.6-10.5,15.9c-2.6,5.3-3.5,31.6-2.9,31.5s6.4-.4,7.6-3.9l6.5-22.2s.4,23.8-.3,25.5c-.8,1.7-14.5,29-13.3,29.9,1.2.9,6.4,4,10.5-2.8,4.1-6.8,13.6-24.5,14.8-27.3,1.2-2.8-18.8,37.2-18,37.5.8.3,5.9,3,7.9.4,2-2.6,19.9-31,20.5-33.3.6-2.3-11.1,27.2-10.5,27.2s2.9,3,6.1-1c3.2-4,13.9-25.7,14.4-26.8.5-1.1.4-14.9.4-14.9,0,0,2.7,16.2,2,18.3s-5.5,14.4-3.3,14.8c1.7.3,4.7-3,7.1-7.3,2.4-4.3,5.4-10.9,5.1-17s-11.6-40.8-11.6-40.8l-32.5-3.7Z"/>
      <g class="cls-20">
        <path class="cls-10" d="M1222.7,1010.1c.5,1.8,24.8-11.7,57.8-6.5,0,0-4.4-20.1-8-21.9-3.6-1.8-32-1.8-36.3.2-4.3,2-15.7,19.8-13.5,28.1Z"/>
      </g>
    </g>
    <g>
      <path class="cls-9" d="M1535.6,590.1c0-2.1-1.5-3.9-3.6-4.3l-171.9-30.9c-144.2-12.3-187.7,51.5-187.7,51.5v62h16.9c12.5,36.4,48,140.9,51.6,159.9,4.4,23.1-24,162.1-21,163.9,2.9,1.8,66.6,9.7,72.5,8.7,5.9-1,35.3-154,33.3-172.5-1.5-14.2-5.9-111.6-16.7-160.5l226.6-.9v-76.8Z"/>
      <path class="cls-13" d="M1309,667.8s-4.3-22.7-23.4-38.5c0,0,101.9,20.4,131.5,22.4,29.6,2,118.5-5.9,118.5-5.9v21.1l-226.6.9Z"/>
    </g>
    <path class="cls-10" d="M2046.7,729s35.8-8.5,36.7-6.9c.9,1.6,6,18.1,4,24-1.9,6-37.2,18.8-37.2,18.8l-3.6-36Z"/>
    <g>
      <path class="cls-15" d="M2074.7,620s-339.4-27.8-409.8-42.6c-70.5-14.8-129.2,17.4-129.2,17.4v72.1s182.4,155.4,264.1,157.4c81.8,2,252.8-43.6,254.2-51.1,1.4-7.5,0-51.8-6.8-54.5-6.8-2.7-233.1,23.2-237.2,18.4-2.7-3.1-41-41.6-74.6-70.2h339.2v-46.9Z"/>
      <g class="cls-27">
        <path class="cls-2" d="M1816.4,783.4c-1.2,0-2.2,0-2.9-.1-.2,0-.4,0-.6,0-.9-.2-1.4-1-1.3-1.8.2-.9,1-1.5,1.8-1.3.1,0,.3,0,.4,0,1,.1,2.6.1,4.6,0,.9,0,1.6.7,1.6,1.5,0,.9-.7,1.6-1.5,1.6-.8,0-1.5,0-2.1,0ZM1823.8,783c-.8,0-1.5-.6-1.6-1.5,0-.9.6-1.6,1.5-1.7,1.6-.1,3.4-.3,5.3-.4.9,0,1.7.6,1.7,1.4,0,.9-.6,1.7-1.4,1.7-1.9.2-3.7.3-5.3.4,0,0,0,0-.1,0ZM1834.5,782.1c-.8,0-1.5-.6-1.6-1.4,0-.9.5-1.7,1.4-1.7,1.7-.2,3.5-.4,5.3-.6.9,0,1.7.5,1.8,1.4,0,.9-.5,1.7-1.4,1.8-1.8.2-3.6.4-5.3.6,0,0-.1,0-.2,0ZM1808.2,781.5c-.2,0-.4,0-.6-.1-1.4-.6-3.1-1.4-4.9-2.3-.8-.4-1.1-1.4-.7-2.1.4-.8,1.4-1.1,2.1-.7,1.8.9,3.4,1.6,4.7,2.2.8.3,1.2,1.3.8,2.1-.3.6-.8,1-1.5,1ZM1845.1,780.9c-.8,0-1.5-.6-1.6-1.4-.1-.9.5-1.7,1.4-1.8,1.7-.2,3.5-.4,5.3-.6.9-.1,1.7.5,1.8,1.4.1.9-.5,1.7-1.4,1.8-1.8.2-3.6.4-5.3.6,0,0-.1,0-.2,0ZM1855.6,779.7c-.8,0-1.5-.6-1.6-1.4-.1-.9.5-1.7,1.4-1.8,1.7-.2,3.5-.4,5.3-.7.9-.1,1.7.5,1.8,1.4.1.9-.5,1.7-1.4,1.8-1.8.2-3.6.5-5.3.7,0,0-.1,0-.2,0ZM1866.2,778.3c-.8,0-1.5-.6-1.6-1.4-.1-.9.5-1.7,1.4-1.8,1.7-.2,3.5-.5,5.3-.7.9-.1,1.7.5,1.8,1.4.1.9-.5,1.7-1.4,1.8-1.8.2-3.5.5-5.3.7,0,0-.1,0-.2,0ZM1876.8,776.9c-.8,0-1.5-.6-1.6-1.4-.1-.9.5-1.7,1.4-1.8l5.3-.7c.9-.1,1.7.5,1.8,1.4.1.9-.5,1.7-1.4,1.8l-5.3.7c0,0-.1,0-.2,0ZM1798.6,776.8c-.3,0-.5,0-.8-.2-1.5-.8-3-1.7-4.7-2.6-.8-.4-1-1.4-.6-2.2.4-.8,1.4-1,2.2-.6,1.6.9,3.2,1.8,4.6,2.6.8.4,1.1,1.4.6,2.2-.3.5-.8.8-1.4.8ZM1887.3,775.5c-.8,0-1.5-.6-1.6-1.4-.1-.9.5-1.7,1.4-1.8l5.3-.7c.9-.1,1.7.5,1.8,1.4.1.9-.5,1.7-1.4,1.8l-5.3.7c0,0-.1,0-.2,0ZM1897.9,774c-.8,0-1.5-.6-1.6-1.4-.1-.9.5-1.7,1.4-1.8l5.3-.7c.9-.1,1.7.5,1.8,1.4.1.9-.5,1.7-1.4,1.8l-5.3.7c0,0-.2,0-.2,0ZM1908.4,772.5c-.8,0-1.5-.6-1.6-1.4-.1-.9.5-1.7,1.4-1.8l5.3-.8c.9-.1,1.7.5,1.8,1.3.1.9-.5,1.7-1.3,1.8l-5.3.8c0,0-.2,0-.2,0ZM1789.3,771.5c-.3,0-.6,0-.8-.2-1.5-.9-3-1.8-4.6-2.7-.8-.5-1-1.4-.5-2.2.5-.8,1.4-1,2.2-.5,1.6.9,3.1,1.9,4.6,2.7.8.4,1,1.4.6,2.2-.3.5-.8.8-1.4.8ZM1918.9,771c-.8,0-1.5-.6-1.6-1.4-.1-.9.5-1.7,1.3-1.8l5.3-.8c.9-.1,1.7.5,1.8,1.3.1.9-.5,1.7-1.3,1.8l-5.3.8c0,0-.2,0-.2,0ZM1929.5,769.5c-.8,0-1.5-.6-1.6-1.4-.1-.9.5-1.7,1.3-1.8l5.3-.8c.9-.1,1.7.5,1.8,1.3.1.9-.5,1.7-1.3,1.8l-5.3.8c0,0-.2,0-.2,0ZM1940,767.9c-.8,0-1.5-.6-1.6-1.4-.1-.9.5-1.7,1.3-1.8l5.3-.8c.9-.1,1.7.5,1.8,1.3.1.9-.5,1.7-1.3,1.8l-5.3.8c0,0-.2,0-.2,0ZM1950.5,766.3c-.8,0-1.5-.6-1.6-1.4-.1-.9.5-1.7,1.3-1.8l5.3-.8c.9-.1,1.7.5,1.8,1.3.1.9-.5,1.7-1.3,1.8l-5.3.8c0,0-.2,0-.2,0ZM1780.2,766c-.3,0-.6,0-.8-.2-1.5-.9-3-1.8-4.5-2.8-.7-.5-1-1.5-.5-2.2.5-.7,1.4-1,2.2-.5,1.5,1,3,1.9,4.5,2.8.8.5,1,1.4.5,2.2-.3.5-.8.8-1.4.8ZM1961,764.7c-.8,0-1.5-.6-1.6-1.4-.1-.9.5-1.7,1.3-1.8l5.3-.8c.9-.1,1.7.5,1.8,1.3.1.9-.5,1.7-1.3,1.8l-5.3.8c0,0-.2,0-.2,0ZM1971.6,763.1c-.8,0-1.5-.6-1.6-1.4-.1-.9.5-1.7,1.3-1.8l5.3-.8c.9-.1,1.7.5,1.8,1.3.1.9-.5,1.7-1.3,1.8l-5.3.8c0,0-.2,0-.2,0ZM1982.1,761.5c-.8,0-1.5-.6-1.6-1.4-.1-.9.5-1.7,1.3-1.8l5.3-.8c.9-.1,1.7.5,1.8,1.3.1.9-.5,1.7-1.3,1.8l-5.3.8c0,0-.2,0-.2,0ZM1771.2,760.4c-.3,0-.6,0-.9-.2-1.5-.9-3-1.9-4.5-2.9-.7-.5-1-1.5-.5-2.2.5-.7,1.5-1,2.2-.5,1.5,1,3,1.9,4.5,2.9.7.5,1,1.5.5,2.2-.3.5-.8.7-1.3.7ZM1992.6,759.9c-.8,0-1.5-.6-1.6-1.4-.1-.9.5-1.7,1.3-1.8l5.3-.8c.9-.1,1.7.5,1.8,1.3.1.9-.5,1.7-1.3,1.8l-5.3.8c0,0-.2,0-.2,0ZM2003.1,758.3c-.8,0-1.5-.6-1.6-1.3-.1-.9.5-1.7,1.3-1.8l5.3-.8c.9-.1,1.7.5,1.8,1.3.1.9-.5,1.7-1.3,1.8l-5.3.8c0,0-.2,0-.2,0ZM2013.7,756.6c-.8,0-1.4-.6-1.6-1.3-.1-.9.5-1.7,1.3-1.8l5.3-.8c.9-.1,1.7.5,1.8,1.3.1.9-.5,1.7-1.3,1.8l-5.3.8c0,0-.2,0-.2,0ZM2024.2,755c-.8,0-1.4-.6-1.6-1.3-.1-.9.5-1.7,1.3-1.8l5.3-.8c.9-.1,1.7.5,1.8,1.3.1.9-.5,1.7-1.3,1.8l-5.3.8c0,0-.2,0-.3,0ZM1762.2,754.6c-.3,0-.6,0-.9-.3-1.5-1-3-1.9-4.5-2.9-.7-.5-.9-1.5-.5-2.2.5-.7,1.5-.9,2.2-.5,1.5,1,3,1.9,4.5,2.9.7.5,1,1.5.5,2.2-.3.5-.8.7-1.3.7ZM2034.7,753.3c-.8,0-1.4-.6-1.6-1.3-.1-.9.5-1.7,1.3-1.8l5.3-.8c.9-.1,1.7.5,1.8,1.3.1.9-.5,1.7-1.3,1.8l-5.3.8c0,0-.2,0-.3,0ZM2045.2,751.6c-.8,0-1.4-.6-1.6-1.3-.1-.9.5-1.7,1.3-1.8l5.3-.8c.9-.1,1.7.5,1.8,1.3.1.9-.5,1.7-1.3,1.8l-5.3.8c0,0-.2,0-.3,0ZM2055.8,749.9c-.8,0-1.4-.6-1.6-1.3-.1-.9.5-1.7,1.3-1.8l5.3-.9c.9-.1,1.7.4,1.8,1.3.1.9-.4,1.7-1.3,1.8l-5.3.9c0,0-.2,0-.3,0ZM1753.3,748.8c-.3,0-.6,0-.9-.3-1.5-1-3-1.9-4.4-2.9-.7-.5-.9-1.5-.5-2.2.5-.7,1.5-.9,2.2-.5,1.5,1,3,2,4.4,2.9.7.5.9,1.5.5,2.2-.3.5-.8.7-1.3.7ZM1744.4,742.9c-.3,0-.6,0-.9-.3-1.5-1-2.9-2-4.4-3-.7-.5-.9-1.5-.4-2.2.5-.7,1.5-.9,2.2-.4,1.5,1,3,2,4.4,2.9.7.5.9,1.5.4,2.2-.3.5-.8.7-1.3.7ZM1735.5,737c-.3,0-.6,0-.9-.3l-4.4-3c-.7-.5-.9-1.5-.4-2.2.5-.7,1.5-.9,2.2-.4l4.4,3c.7.5.9,1.5.4,2.2-.3.5-.8.7-1.3.7ZM1726.7,731.1c-.3,0-.6,0-.9-.3l-4.4-3c-.7-.5-.9-1.5-.4-2.2.5-.7,1.5-.9,2.2-.4l4.4,3c.7.5.9,1.5.4,2.2-.3.5-.8.7-1.3.7ZM1717.9,725.1c-.3,0-.6,0-.9-.3l-4.4-3c-.7-.5-.9-1.5-.4-2.2.5-.7,1.5-.9,2.2-.4l4.4,3c.7.5.9,1.5.4,2.2-.3.5-.8.7-1.3.7ZM1709.1,719.1c-.3,0-.6,0-.9-.3l-4.4-3c-.7-.5-.9-1.5-.4-2.2.5-.7,1.5-.9,2.2-.4l4.4,3c.7.5.9,1.5.4,2.2-.3.5-.8.7-1.3.7ZM1700.4,713.1c-.3,0-.6,0-.9-.3l-4.4-3c-.7-.5-.9-1.5-.4-2.2.5-.7,1.5-.9,2.2-.4l4.4,3c.7.5.9,1.5.4,2.2-.3.4-.8.7-1.3.7ZM1691.6,707c-.3,0-.6,0-.9-.3l-4.4-3c-.7-.5-.9-1.5-.4-2.2.5-.7,1.5-.9,2.2-.4l4.4,3c.7.5.9,1.5.4,2.2-.3.4-.8.7-1.3.7ZM1682.9,700.9c-.3,0-.6,0-.9-.3l-4.4-3c-.7-.5-.9-1.5-.4-2.2.5-.7,1.5-.9,2.2-.4l4.4,3c.7.5.9,1.5.4,2.2-.3.4-.8.7-1.3.7ZM1674.1,694.8c-.3,0-.6,0-.9-.3l-4.3-3c-.7-.5-.9-1.5-.4-2.2.5-.7,1.5-.9,2.2-.4l4.4,3c.7.5.9,1.5.4,2.2-.3.4-.8.7-1.3.7ZM1665.4,688.7c-.3,0-.6,0-.9-.3l-4.4-3.1c-.7-.5-.9-1.5-.4-2.2.5-.7,1.5-.9,2.2-.4l4.4,3.1c.7.5.9,1.5.4,2.2-.3.4-.8.7-1.3.7ZM1656.7,682.6c-.3,0-.6,0-.9-.3l-4.4-3.1c-.7-.5-.9-1.5-.4-2.2.5-.7,1.5-.9,2.2-.4l4.4,3.1c.7.5.9,1.5.4,2.2-.3.4-.8.7-1.3.7ZM1648,676.5c-.3,0-.6,0-.9-.3l-4.4-3.1c-.7-.5-.9-1.5-.4-2.2.5-.7,1.5-.9,2.2-.4l4.4,3.1c.7.5.9,1.5.4,2.2-.3.4-.8.7-1.3.7ZM1639.3,670.4c-.3,0-.6,0-.9-.3l-4.3-3.1c-.7-.5-.9-1.5-.4-2.2.5-.7,1.5-.9,2.2-.4l4.3,3.1c.7.5.9,1.5.4,2.2-.3.4-.8.7-1.3.7ZM1630.6,664.2c-.3,0-.6,0-.9-.3l-4.3-3.1c-.7-.5-.9-1.5-.4-2.2.5-.7,1.5-.9,2.2-.4l4.3,3.1c.7.5.9,1.5.4,2.2-.3.4-.8.7-1.3.7ZM1621.9,658c-.3,0-.6,0-.9-.3l-4.4-3.1c-.7-.5-.9-1.5-.4-2.2.5-.7,1.5-.9,2.2-.4l4.4,3.1c.7.5.9,1.5.4,2.2-.3.4-.8.7-1.3.7ZM1613.2,651.9c-.3,0-.6,0-.9-.3l-4.4-3.1c-.7-.5-.9-1.5-.4-2.2.5-.7,1.5-.9,2.2-.4l4.4,3.1c.7.5.9,1.5.4,2.2-.3.4-.8.7-1.3.7ZM1604.5,645.7c-.3,0-.6,0-.9-.3-2-1.4-3.5-2.4-4.4-3-.7-.5-.9-1.5-.4-2.2.5-.7,1.5-.9,2.2-.4.9.6,2.4,1.6,4.5,3.1.7.5.9,1.5.4,2.2-.3.4-.8.7-1.3.7Z"/>
        <path class="cls-2" d="M1547.6,585.3s3,95.2,1.5,96.7-18.3-10.8-18.3-10.8c0,0-2-75.9-.4-80.7,1.6-4.7,17.2-5.2,17.2-5.2Z"/>
        <path class="cls-2" d="M1735.4,666.9s-73-60.1-84.2-63c0,0,73.7,16.6,130.7,32.9,57,16.2,298.4,12.9,298.4,12.9v24.1l-344.9-6.9"/>
      </g>
    </g>
    <g>
      <path class="cls-15" d="M2082.1,721.9s5.8-9.3,16.6-10.8,14.4,0,14.4,0c0,0,29.1,78.9,23.8,80.6-5.3,1.7-17.2,1.9-20.8-1.4-3.6-3.3-31-41.5-31-41.5,0,0,1.8-20.6-3-26.9Z"/>
      <g class="cls-24">
        <path class="cls-2" d="M2090.3,759.3s7.7-8.8,11.5-8.6c2.3.1,3.3,1.7,3.7,2.9.3.7,0,1.6-.4,2.2-2.2,2.5-8.5,9.5-9.8,9.2-1.7-.4-4.9-5.6-4.9-5.6Z"/>
        <path class="cls-2" d="M2098.1,770.8s7.7-8.8,11.5-8.6c2.3.1,3.3,1.7,3.7,2.9.3.7,0,1.6-.4,2.2-2.2,2.5-8.5,9.5-9.8,9.2-1.7-.4-4.9-5.6-4.9-5.6Z"/>
        <path class="cls-2" d="M2105.3,709.2s27.3,81.8,27.1,85.2c0,0,9.1-.6,9.1-2.8s-22.4-82-25.2-82.3-11,0-11,0Z"/>
      </g>
    </g>
    <g>
      <path class="cls-10" d="M2074.7,636.3s33.5,4.7,34.2,6.3c.6,1.7.8,24.3.8,24.3h-34.9c0,0,0-30.7,0-30.7Z"/>
      <g>
        <path class="cls-15" d="M2107.4,641.9s3.9-9.9,15.5-10.6c11.5-.6,38.5,13.7,40.9,14.7,2.4,1,34.9,9.8,35.5,10,7,3.5.8,11.8.8,11.8l-90.5-1.1-2.1-25Z"/>
        <g class="cls-29">
          <path class="cls-2" d="M2116.7,631.4c1.1,1,40,19.5,45.8,20.3,5.8.7,41.4,10.3,41.4,10.3,0,0,1.9-4.9-1.2-6.7-3.2-1.8-37.6-10-40.3-11.6-2.7-1.5-35.9-14.9-38.7-14.5-2.7.5-7,2.1-7,2.1Z"/>
          <path class="cls-2" d="M2126.5,668.8c.7-2.6,3.3-15,5.2-15.4,1.9-.4,6.6.9,6.5,1.6-.1.7-1.1,14.3-4.3,14.3s-7.4-.4-7.4-.4Z"/>
          <path class="cls-2" d="M2144.9,672.3c.7-2.6,3.3-15,5.2-15.4s6.6.9,6.5,1.6c-.1.7-1.1,14.3-4.3,14.3s-7.4-.4-7.4-.4Z"/>
        </g>
      </g>
    </g>
  </g>
</svg>