<?xml version="1.0" encoding="UTF-8"?>
<svg id="Capa_1" xmlns="http://www.w3.org/2000/svg" version="1.1" viewBox="0 0 841.9 258">
  <!-- Generator: Adobe Illustrator 30.3.0, SVG Export Plug-In . SVG Version: 2.1.3 Build 182)  -->
  <defs>
    <style>
      .st0 {
        fill: #94aa50;
      }

      .st1 {
        isolation: isolate;
        opacity: .4;
      }

      .st1, .st2 {
        fill: #95ab51;
      }
    </style>
  </defs>
  <g>
    <path class="st0" d="M396.2,101.4c-1.4-2.9-3.6-5.1-6.5-6.8-2.9-1.6-6.8-2.5-11.8-2.5s-7.3.6-10.7,1.8c-3.4,1.2-6.7,2.9-9.6,5.1-1.8,1.3-3.5,2.8-5.2,4.5-.3-.7-.6-1.5-.9-2.2-1.4-2.9-3.6-5.1-6.5-6.8-2.9-1.6-6.8-2.5-11.8-2.5s-7.3.6-10.7,1.8c-3.4,1.2-6.7,2.9-9.6,5.1-1.5,1.1-3,2.4-4.5,3.7l-2.4-9.1h-12.7v71.1h16.9v-46.9c1.7-2.1,3.8-4.1,6.3-5.7,3.7-2.4,7.5-3.6,11.4-3.6s5.2.8,7.2,2.4c2,1.6,3,4.8,3,9.5v44.3h16.9v-42.8c0-1.3,0-2.6-.1-3.9,1.8-2.2,3.9-4.2,6.4-5.8,3.7-2.4,7.5-3.6,11.5-3.6s5.1.8,7.1,2.4c2,1.6,3,4.8,3,9.5v44.3h16.9v-42.8c0-3.8-.2-7.5-.7-11-.4-3.5-1.4-6.7-2.8-9.6h0Z"/>
    <path class="st0" d="M459.3,95.6c-4.1-2.3-9.3-3.4-15.7-3.4s-9,.5-13.5,1.6-8.8,2.6-12.9,4.7l5.1,12.5c3.5-1.7,6.9-2.8,10.2-3.4,3.3-.6,6.3-.9,9-.9,4.8,0,8.1,1.2,10.1,3.5s3,5,3,7.9v5.3l-.2-.2c-4.2-3.1-9.8-4.7-16.7-4.7s-9.9,1-13.8,3.1c-4,2.1-7.1,4.9-9.2,8.5-2.2,3.6-3.3,7.8-3.3,12.7s1.1,9.2,3.2,12.8c2.1,3.6,5.2,6.4,9.1,8.4s8.6,3,14.1,3,11.8-1.5,16.2-4.5c1.1-.8,2.2-1.6,3.1-2.6l1.5,5.1h13v-46.6c0-5-1-9.5-3.1-13.4-2-3.9-5.1-7-9.2-9.2v-.2ZM451.1,150.3c-2.4,1.8-5.5,2.8-9.4,2.8s-7-.9-9.4-2.8c-2.4-1.8-3.6-4.4-3.6-7.6s1.2-6,3.6-7.8,5.5-2.7,9.4-2.7,7,.9,9.4,2.7c2.4,1.8,3.6,4.4,3.6,7.8s-1.2,5.7-3.6,7.6Z"/>
    <polygon class="st0" points="513.9 135.7 495.2 93.7 477.7 93.7 505.1 155.2 488.5 192.5 505.9 192.5 550.1 93.7 532.6 93.7 513.9 135.7"/>
    <path class="st0" d="M732.8,96.9c-5.3-3.2-11.5-4.7-18.6-4.7s-13.1,1.6-18.4,4.7c-5.2,3.1-9.3,7.5-12.3,13-3,5.6-4.4,12.1-4.4,19.6s1.5,13.8,4.4,19.4,7.1,9.8,12.3,12.9,11.4,4.6,18.4,4.6,14.5-1.6,19.8-4.7,9.6-7.7,12.8-13.7l-12.1-7.3c-2.1,3.3-4.7,6.1-7.6,8.3-3,2.2-7.1,3.3-12.5,3.3s-10.6-1.8-13.9-5.3c-3-3.2-4.7-7.5-5-12.7h53.4c0-.7.2-1.5.2-2.3v-2.6c0-7.3-1.5-13.7-4.4-19.3s-7-10-12.3-13.1h.2ZM714.4,105.5c6.3,0,11,2.1,14.1,6.4,1.8,2.5,3.1,5.4,3.8,8.7h-36.3c.6-3.9,2.2-7.2,4.7-9.8,3.3-3.5,7.9-5.3,13.6-5.3h.1Z"/>
    <path class="st0" d="M787.2,122.1c-5.1-1.2-8.6-2.4-10.5-3.8-1.8-1.4-2.8-3.1-2.8-5.1s.9-3.8,2.8-5c1.8-1.2,3.9-1.7,6.3-1.7,3.9,0,7.2.8,10,2.4,2.8,1.6,5,3.3,6.6,5.2l11.8-9.3c-2.6-3.5-6.2-6.5-10.6-9-4.5-2.5-9.9-3.8-16.2-3.8s-9.8,1-13.7,3-6.8,4.7-8.9,8c-2,3.4-3.1,7-3.1,11,0,6.3,1.9,11.1,5.6,14.3,3.7,3.2,9.2,5.7,16.4,7.6,3.9,1,6.9,1.9,9,2.8s3.5,1.9,4.3,3,1.2,2.3,1.2,3.6c0,2-.8,3.7-2.3,5.1-1.6,1.4-3.7,2-6.4,2s-7-.8-9.6-2.3c-2.6-1.6-5.4-4.1-8.3-7.6l-11.5,8.7c3.5,5.5,7.7,9.5,12.5,11.8,4.9,2.3,9.9,3.5,15.1,3.5s9.1-.9,13.1-2.8c4-1.8,7.2-4.5,9.6-7.9,2.4-3.4,3.6-7.5,3.6-12.2s-1.8-10-5.5-13.4-9.9-6.1-18.5-8.2h0Z"/>
    <path class="st0" d="M669.1,92.1c-3,0-5.9.7-8.8,2.2-2.9,1.5-5.4,3.2-7.5,5.2-.7.7-1.3,1.3-1.9,2l-1.7-7.8h-12.7v71.1h16.9v-49.7c1.1-1.4,2.3-2.5,3.8-3.4,3.2-2,8-3,14.4-3h4.7v-15.3c-.7-.5-1.7-.8-3-1s-2.7-.3-4.2-.3h0Z"/>
    <path class="st0" d="M606.3,96.8c-5.5-3.1-11.9-4.7-19.2-4.7s-13.7,1.6-19.2,4.7c-5.5,3.1-9.8,7.5-12.9,13-3.1,5.6-4.6,12.1-4.6,19.6s1.5,13.7,4.6,19.3c3.1,5.6,7.4,9.9,12.9,13s11.9,4.7,19.2,4.7,13.7-1.6,19.2-4.7,9.8-7.5,12.9-13c3.1-5.6,4.6-12,4.6-19.3s-1.5-14-4.6-19.6-7.4-9.9-12.9-13ZM601.2,144.4c-3.6,3.8-8.3,5.8-14.1,5.8s-10.5-1.9-14.1-5.8c-3.6-3.8-5.4-8.9-5.4-15.1s1.8-11.4,5.4-15.1c3.6-3.8,8.3-5.7,14.1-5.7s10.5,1.9,14.1,5.8c3.6,3.8,5.4,8.9,5.4,15.1s-1.8,11.2-5.4,15.1h0Z"/>
  </g>
  <path class="st1" d="M97.6,178.4c26.4,26.2,69.2,26,95.4-.4,12.7-12.8,19.6-29.8,19.6-47.8s-7.2-34.9-20-47.6c-12.7-12.6-29.6-19.6-47.5-19.6s-.2,0-.3,0c-18,0-34.9,7.2-47.6,20-26.2,26.4-26,69.2.4,95.4ZM145.1,237.3c-27.2,0-54.4-10.3-75.2-30.9-41.8-41.5-42.1-109.2-.7-151,20.1-20.3,46.9-31.5,75.4-31.6,28.5-.2,55.4,10.9,75.7,31s31.5,46.9,31.6,75.4-10.9,55.4-31,75.7c-20.8,21-48.4,31.6-75.9,31.6"/>
  <path class="st2" d="M129.2,81.4c9.9,9.8,25.8,9.7,35.6-.2,4.7-4.8,7.3-11.1,7.3-17.8s-2.7-13-7.4-17.8c-4.7-4.7-11-7.3-17.7-7.3s0,0-.1,0c-6.7,0-13,2.7-17.8,7.4-9.8,9.9-9.7,25.8.2,35.6h0ZM147,103.3c-10.1,0-20.3-3.8-28-11.5-15.6-15.5-15.7-40.7-.2-56.3,7.5-7.6,17.5-11.7,28.1-11.8,10.6,0,20.7,4.1,28.2,11.5,7.6,7.5,11.7,17.5,11.8,28.1,0,10.6-4.1,20.7-11.5,28.2-7.8,7.8-18,11.8-28.3,11.8"/>
  <path class="st1" d="M117.4,120c16.5,16.3,43.1,16.2,59.4-.3,7.9-8,12.2-18.5,12.2-29.8s-4.5-21.8-12.4-29.7-18.4-12.2-29.6-12.2h-.2c-11.2,0-21.8,4.5-29.7,12.4-16.3,16.5-16.2,43.1.3,59.4v.2ZM147,156.7c-16.9,0-33.9-6.4-46.8-19.2-26-25.8-26.2-68-.4-94,12.5-12.6,29.2-19.6,46.9-19.7,17.7,0,34.5,6.8,47.1,19.3,12.6,12.5,19.6,29.2,19.7,46.9,0,17.8-6.8,34.5-19.3,47.1-13,13.1-30.1,19.7-47.2,19.7"/>
</svg>