<?xml version="1.0" encoding="UTF-8"?>
<svg id="Capa_1" xmlns="http://www.w3.org/2000/svg" version="1.1" viewBox="0 0 841.9 216">
  <!-- Generator: Adobe Illustrator 30.3.0, SVG Export Plug-In . SVG Version: 2.1.3 Build 182)  -->
  <defs>
    <style>
      .st0 {
        isolation: isolate;
        opacity: .4;
      }

      .st0, .st1 {
        fill: #e090a8;
      }

      .st2 {
        fill: #df90a8;
      }
    </style>
  </defs>
  <path class="st0" d="M252.6,149.1c-.4,1.6-1.4,1.8-2.9,1.6-9.2-1.3-18.4-1.2-27.7.1-1.9.3-2.1,0-1.4-1.8l.2-.9c0-1.6,0-3.3-.2-4.9-2.6-26.8-25.2-47.8-52.7-47.8h-.2c-29.2.1-52.8,24-52.7,53.2v1.3c-3.1.5-6.7.9-9.9,1.1-7.5.4-14.9-.3-21.9-1.9v-.3c-.2-46.8,37.7-85,84.4-85.2h.4c22.5,0,43.7,8.7,59.7,24.6,12.2,12.1,20.3,27.2,23.5,43.7,1,5.3,1.6,10.7,1.6,16.2v1.1h-.2Z"/>
  <path class="st1" d="M295,149c-.4,1.6-1.4,1.8-2.9,1.6-9.2-1.3-18.4-1.2-27.8.1-1.9.3-2.2,0-1.4-1.8l.2-.9c-.1-25.5-10.1-49.4-28.2-67.3-18-17.8-41.8-27.6-67.1-27.6s-.3,0-.4,0c-52.6.2-95.2,43.2-94.9,95.8v1.1c-3.2.5-6.4.9-9.7,1.1-7.6.4-15-.3-22.1-1.9h0c-.3-70.2,56.5-127.6,126.7-127.9h.6c33.8,0,65.5,13.1,89.5,36.9,24.1,23.9,37.5,55.8,37.7,89.8v1.1h-.2Z"/>
  <path class="st1" d="M167.8,128c-11.6,0-21,9.4-21,21s9.4,21,21,21,21-9.4,21-21-9.4-21-21-21M167.8,191.7c-23.5,0-42.7-19.1-42.7-42.7s19.1-42.7,42.7-42.7,42.7,19.1,42.7,42.7-19.1,42.7-42.7,42.7"/>
  <g>
    <path class="st2" d="M354.7,126.6V48h-17.1v84.8c0,4.1.7,7.5,2.1,10.1,1.4,2.7,3.3,4.7,5.7,6,2.4,1.4,5,2,8,2s3.2-.1,4.7-.3c1.6-.2,2.9-.5,4.1-.9v-14.9c-2,0-3.7-.5-5.3-1.6-1.5-1.1-2.3-3.3-2.3-6.6h0Z"/>
    <path class="st2" d="M485.8,60h-14.1l-3.3,17h-11.3v15.9h11.3v34.7c0,8.3,2,14.4,6.1,18.2,4.1,3.9,9.6,5.8,16.6,5.8s4.3-.2,5.9-.5,3.2-.7,4.7-1.2v-16.2c-1,.3-2.2.6-3.5.7-1.3.2-2.8.3-4.4.3-2.4,0-4.4-.7-5.9-2.1s-2.3-3.6-2.3-6.6v-33.2h15.9v-15.9h-15.9v-17h.2Z"/>
    <path class="st2" d="M428.9,84.8c-1.8-2-3.9-3.7-6.2-5.1-4.8-2.9-10.4-4.4-16.7-4.4s-12.6,1.5-17.8,4.5c-5.2,3-9.2,7.1-12,12.4-2.9,5.3-4.3,11.4-4.3,18.5s1.4,13.2,4.4,18.5c2.9,5.3,6.9,9.4,12,12.3s11,4.4,17.7,4.4,12-1.4,16.7-4.3c1.4-.9,2.7-1.8,4-2.9v5.1c0,7.2-1.7,12.6-5,16.1-3.4,3.5-7.8,5.3-13.3,5.3s-8-1-10.8-3-5.5-5.1-8-9.2l-13.4,6.9,1.2,2.3c2.3,4.4,5.1,7.9,8.3,10.6,3.2,2.6,6.7,4.6,10.6,5.7,3.8,1.1,7.8,1.7,11.9,1.7,7.1,0,13.3-1.5,18.7-4.4,5.3-3,9.5-7.4,12.6-13.3,3-5.9,4.6-13.2,4.6-21.8v-63.6h-13.2l-2.1,7.9v-.2ZM422.4,125.2c-3.5,3.8-8.1,5.6-13.7,5.6s-10.2-1.9-13.7-5.6c-3.6-3.8-5.3-8.6-5.3-14.5s1.8-11,5.3-14.8c3.5-3.8,8.1-5.6,13.7-5.6s10.2,1.9,13.7,5.6c3.5,3.8,5.3,8.6,5.3,14.6s-1.8,10.9-5.3,14.6h0Z"/>
    <polygon class="st2" points="802.1 91.6 773.6 91.6 773.6 62.7 757.4 62.7 757.4 91.6 730.6 91.6 730.6 107.8 757.4 107.8 757.4 135.6 773.6 135.6 773.6 107.8 802.1 107.8 802.1 91.6"/>
    <path class="st2" d="M691.8,85.1c-1.8-2-3.7-3.7-6-5.1-4.9-3.2-10.6-4.7-17.1-4.7s-12.5,1.6-17.6,4.8-9.1,7.7-11.9,13.4c-2.9,5.8-4.3,12.5-4.3,20.2s1.4,14.1,4.3,19.9c2.9,5.8,6.8,10.2,11.9,13.4,5.1,3.2,11,4.8,17.7,4.8s12.2-1.6,17-4.7c1.4-.9,2.6-1.9,3.8-2.9v34.4h17.4v-101.7h-13.2l-2.1,8.2h0ZM685.3,130c-3.5,4.2-8,6.2-13.6,6.2s-10.2-2.1-13.7-6.2c-3.6-4.1-5.3-9.6-5.3-16.3s1.8-12.3,5.3-16.5,8.1-6.3,13.7-6.3,10.1,2.1,13.6,6.2c3.5,4.2,5.2,9.6,5.2,16.4s-1.7,12.3-5.2,16.4h0Z"/>
    <path class="st2" d="M612.5,43.2c-3.4,0-6.1,1-8,3.1s-2.9,4.7-2.9,7.9,1,5.8,2.9,7.8c2,2,4.6,3,8,3s5.8-1,7.8-3,3-4.6,3-7.8-1-5.8-3-7.9c-2-2-4.6-3.1-7.8-3.1Z"/>
    <rect class="st2" x="603.8" y="76.9" width="17.4" height="73.2"/>
    <path class="st2" d="M573.9,80.1c-5.1-3.2-11-4.8-17.7-4.8s-12.3,1.5-17.2,4.6c-1.3.8-2.5,1.7-3.7,2.8v-34.6h-17.4v102.2h13.1l2.2-8.3c1.8,2,3.7,3.7,5.9,5.1,4.8,3.2,10.5,4.8,17,4.8s12.7-1.6,17.8-4.9,9-7.8,11.8-13.5c2.8-5.8,4.2-12.4,4.2-20s-1.4-14.3-4.2-20c-2.8-5.7-6.8-10.2-11.9-13.4h.1ZM567,129.9c-3.5,4.2-8.1,6.3-13.7,6.3s-10-2.1-13.6-6.2-5.3-9.6-5.3-16.4,1.8-12.3,5.3-16.4,8.1-6.2,13.6-6.2,10.1,2.1,13.7,6.2c3.5,4.2,5.3,9.6,5.3,16.3s-1.8,12.3-5.3,16.5h0Z"/>
  </g>
</svg>