<?xml version="1.0" encoding="UTF-8"?>
<svg id="Capa_1" xmlns="http://www.w3.org/2000/svg" version="1.1" viewBox="0 0 841.9 209">
  <!-- Generator: Adobe Illustrator 30.3.0, SVG Export Plug-In . SVG Version: 2.1.3 Build 182)  -->
  <defs>
    <style>
      .st0 {
        fill: #23aecd;
      }

      .st1 {
        fill: #b3dff2;
      }
    </style>
  </defs>
  <g>
    <path class="st0" d="M312.9,91.9c-1.1-2.2-2.7-3.9-4.9-5.1-2.2-1.3-5.2-1.9-9-1.9s-5.5.5-8.1,1.4c-2.6.9-5.1,2.2-7.3,3.9-1.4,1-2.7,2.2-3.9,3.4-.2-.6-.5-1.1-.7-1.6-1.1-2.2-2.7-3.9-4.9-5.1-2.2-1.3-5.2-1.9-9-1.9s-5.5.5-8.1,1.4c-2.6.9-5.1,2.2-7.3,3.9-1.2.9-2.3,1.8-3.4,2.8l-1.9-6.9h-9.6v54h12.8v-35.6c1.3-1.6,2.9-3.1,4.8-4.3,2.8-1.8,5.7-2.8,8.6-2.8s4,.6,5.5,1.8c1.5,1.2,2.3,3.6,2.3,7.2v33.6h12.8v-32.5c0-1,0-2,0-3,1.3-1.7,2.9-3.1,4.8-4.4,2.8-1.8,5.7-2.8,8.7-2.8s3.9.6,5.4,1.8c1.5,1.2,2.3,3.6,2.3,7.2v33.6h12.8v-32.5c0-2.9-.2-5.7-.5-8.3-.3-2.7-1-5.1-2.1-7.3Z"/>
    <path class="st0" d="M334.8,61.3c-2.5,0-4.5.8-5.9,2.3-1.4,1.5-2.2,3.4-2.2,5.8s.7,4.3,2.2,5.8c1.4,1.5,3.4,2.2,5.9,2.2s4.3-.7,5.8-2.2,2.2-3.4,2.2-5.8-.7-4.3-2.2-5.8c-1.5-1.5-3.4-2.3-5.8-2.3Z"/>
    <rect class="st0" x="328.4" y="86.1" width="12.8" height="54"/>
    <path class="st0" d="M393.8,91.9c-1.3-1.4-2.8-2.7-4.6-3.7-3.5-2.2-7.6-3.3-12.3-3.3s-9.3,1.1-13.1,3.3c-3.8,2.2-6.7,5.3-8.8,9.1-2.1,3.9-3.2,8.4-3.2,13.7s1.1,9.7,3.2,13.6c2.1,3.9,5.1,6.9,8.8,9.1,3.8,2.1,8.1,3.2,13,3.2s8.8-1.1,12.3-3.2c1-.6,2-1.4,2.9-2.1v3.7c0,5.3-1.2,9.3-3.7,11.8-2.5,2.6-5.7,3.9-9.8,3.9s-5.9-.7-8-2.2c-2.1-1.5-4-3.7-5.9-6.7l-9.8,5.1.9,1.7c1.7,3.2,3.7,5.8,6.1,7.8,2.4,2,5,3.4,7.8,4.2,2.8.8,5.8,1.3,8.8,1.3,5.2,0,9.8-1.1,13.8-3.3,3.9-2.2,7-5.4,9.3-9.8,2.2-4.4,3.4-9.7,3.4-16v-46.9h-9.7l-1.5,5.8ZM389,121.7c-2.6,2.8-5.9,4.1-10.1,4.1s-7.5-1.4-10.1-4.1c-2.6-2.8-3.9-6.3-3.9-10.7s1.3-8.1,3.9-10.9c2.6-2.8,6-4.1,10.1-4.1s7.5,1.4,10.1,4.1c2.6,2.8,3.9,6.4,3.9,10.8s-1.3,8-3.9,10.8Z"/>
    <path class="st0" d="M443.1,84.9c-2.3,0-4.5.6-6.7,1.7-2.2,1.1-4.1,2.4-5.7,4-.5.5-1,1-1.5,1.5l-1.3-5.9h-9.6v54h12.8v-37.7c.8-1,1.8-1.9,2.9-2.6,2.4-1.5,6.1-2.3,10.9-2.3h3.5v-11.6c-.5-.4-1.3-.6-2.3-.8-1-.1-2-.2-3.2-.2Z"/>
    <path class="st0" d="M490.3,87.5c-3.1-1.7-7.1-2.6-11.9-2.6s-6.8.4-10.2,1.2c-3.4.8-6.7,2-9.8,3.5l3.9,9.5c2.7-1.3,5.2-2.1,7.7-2.6,2.5-.5,4.8-.7,6.9-.7,3.6,0,6.2.9,7.7,2.7,1.5,1.8,2.3,3.8,2.3,6v4c0,0-.1,0-.2-.1-3.2-2.4-7.4-3.5-12.7-3.5s-7.5.8-10.5,2.4c-3,1.6-5.4,3.7-7,6.5-1.7,2.7-2.5,5.9-2.5,9.6s.8,7,2.4,9.7c1.6,2.7,3.9,4.8,6.9,6.4s6.5,2.3,10.7,2.3,9-1.1,12.3-3.4c.9-.6,1.7-1.3,2.4-2l1.1,3.9h9.8v-35.4c0-3.8-.8-7.2-2.3-10.2-1.5-2.9-3.9-5.3-7-7ZM484.1,129c-1.8,1.4-4.2,2.1-7.1,2.1s-5.3-.7-7.1-2.1c-1.8-1.4-2.7-3.3-2.7-5.8s.9-4.6,2.7-5.9c1.8-1.4,4.2-2,7.1-2s5.3.7,7.1,2c1.8,1.4,2.7,3.3,2.7,5.9s-.9,4.4-2.7,5.8Z"/>
    <path class="st0" d="M536.2,97.3c2.9,0,5.4.7,7.5,2.2,2.1,1.5,3.8,3.6,4.9,6.4l11.9-5.2c-1.9-4.8-5-8.6-9.3-11.5s-9.2-4.3-14.8-4.3-10.3,1.2-14.4,3.6c-4.1,2.4-7.3,5.7-9.5,10-2.2,4.2-3.4,9.1-3.4,14.7s1.1,10.4,3.4,14.6c2.2,4.2,5.4,7.5,9.5,10,4.1,2.4,8.9,3.6,14.4,3.6s10.3-1.5,14.7-4.4c4.3-2.9,7.5-6.8,9.5-11.6l-11.9-5.1c-1.1,2.8-2.7,4.9-4.9,6.4-2.1,1.5-4.6,2.2-7.5,2.2s-7.3-1.4-10-4.2c-2.7-2.8-4-6.7-4-11.6s1.3-8.9,4-11.7c2.7-2.8,6-4.1,10-4.1Z"/>
    <rect class="st0" x="569" y="86.1" width="12.8" height="54"/>
    <path class="st0" d="M575.4,61.3c-2.5,0-4.5.8-5.9,2.3-1.4,1.5-2.2,3.4-2.2,5.8s.7,4.3,2.2,5.8c1.4,1.5,3.4,2.2,5.9,2.2s4.3-.7,5.8-2.2,2.2-3.4,2.2-5.8-.7-4.3-2.2-5.8c-1.5-1.5-3.4-2.3-5.8-2.3Z"/>
    <path class="st0" d="M634.6,88.5c-4.2-2.4-9.1-3.5-14.7-3.5s-10.3,1.2-14.5,3.5c-4.2,2.4-7.5,5.7-9.8,9.9-2.3,4.2-3.5,9.2-3.5,14.8s1.2,10.5,3.5,14.8c2.3,4.2,5.6,7.5,9.8,9.9,4.2,2.4,9,3.5,14.5,3.5s10.5-1.2,14.7-3.5c4.2-2.4,7.5-5.7,9.8-9.9,2.3-4.2,3.5-9.2,3.5-14.8s-1.2-10.5-3.5-14.8c-2.3-4.2-5.6-7.5-9.8-9.9ZM630.7,124.6c-2.7,2.9-6.3,4.4-10.7,4.4s-8-1.5-10.7-4.4c-2.7-2.9-4.1-6.7-4.1-11.4s1.4-8.5,4.1-11.4c2.7-2.9,6.3-4.4,10.7-4.4s8,1.5,10.7,4.4c2.7,2.9,4.1,6.7,4.1,11.4s-1.4,8.5-4.1,11.4Z"/>
    <path class="st0" d="M703.7,91.9c-1.1-2.2-2.8-3.9-5-5.1-2.2-1.3-5.2-1.9-9.1-1.9s-5.8.5-8.6,1.4c-2.8.9-5.4,2.2-7.8,3.9-1.3.9-2.6,1.9-3.8,3l-1.9-7h-9.6v54h12.8v-35.5c.8-.9,1.6-1.7,2.5-2.5,1.8-1.4,3.7-2.6,5.9-3.4,2.2-.8,4.3-1.3,6.4-1.3s4.1.6,5.6,1.8c1.5,1.2,2.3,3.6,2.3,7.2v33.6h12.8v-32.5c0-2.9-.2-5.7-.5-8.3-.3-2.7-1.1-5.1-2.2-7.3Z"/>
    <path class="st0" d="M756.5,88.5c-4-2.4-8.7-3.6-14.1-3.6s-10,1.2-13.9,3.5c-4,2.4-7.1,5.7-9.3,9.9-2.2,4.2-3.4,9.2-3.4,14.9s1.1,10.5,3.4,14.7c2.2,4.2,5.4,7.5,9.3,9.8,4,2.3,8.6,3.5,13.9,3.5s11-1.2,15-3.5c4.1-2.4,7.3-5.8,9.7-10.4l-9.2-5.5c-1.6,2.5-3.6,4.6-5.8,6.3-2.2,1.7-5.4,2.5-9.5,2.5s-8-1.3-10.6-4c-2.3-2.4-3.6-5.7-3.8-9.7h40.5c0-.5.1-1.1.2-1.8,0-.7,0-1.3,0-2,0-5.5-1.1-10.4-3.3-14.7-2.2-4.2-5.3-7.6-9.3-10ZM742.5,95.1c4.8,0,8.4,1.6,10.7,4.9,1.4,1.9,2.3,4.1,2.9,6.6h-27.5c.5-3,1.7-5.5,3.6-7.5,2.5-2.7,6-4,10.3-4Z"/>
    <path class="st0" d="M798.7,107.7c-3.9-.9-6.6-1.8-8-2.9-1.4-1-2.1-2.3-2.1-3.9s.7-2.9,2.1-3.8c1.4-.9,3-1.3,4.8-1.3,2.9,0,5.5.6,7.6,1.8,2.1,1.2,3.8,2.5,5,3.9l9-7.1c-2-2.7-4.7-4.9-8.1-6.9-3.4-1.9-7.5-2.9-12.3-2.9s-7.4.8-10.4,2.3c-2.9,1.5-5.2,3.5-6.7,6.1-1.5,2.5-2.3,5.3-2.3,8.3,0,4.8,1.4,8.4,4.3,10.8,2.8,2.4,7,4.4,12.4,5.8,2.9.7,5.2,1.5,6.8,2.2,1.6.7,2.7,1.5,3.3,2.3.6.8.9,1.7.9,2.8,0,1.5-.6,2.8-1.8,3.9-1.2,1-2.8,1.5-4.9,1.5s-5.3-.6-7.3-1.8c-2-1.2-4.1-3.1-6.3-5.8l-8.7,6.6c2.7,4.2,5.8,7.2,9.5,9,3.7,1.8,7.5,2.7,11.5,2.7s6.9-.7,10-2.1c3-1.4,5.5-3.4,7.3-6,1.8-2.6,2.8-5.7,2.8-9.2s-1.4-7.6-4.2-10.2c-2.8-2.6-7.5-4.6-14-6.2Z"/>
  </g>
  <g>
    <path class="st1" d="M84.2,58.2c8.4-4,17.2-5.2,26.3-3.7,1.8.3,2.1,0,1.6-1.7-2.7-8.5-4.2-17.2-4.2-26.2,0-1.5-.4-2.3-2-2.3-10.1-.3-19.9,1.3-29.3,5-9.5,3.7-17.8,9.1-25,16.3-2.6,2.6-5.1,5.4-7.3,8.3,6.3,3.7,13.2,6.6,20.5,8.6,3.2.9,6.5,1.5,9.7,2,2.9-2.4,6.1-4.5,9.7-6.2"/>
    <path class="st1" d="M54.6,99.7c.7-9.3,4-17.5,9.9-24.7,1.2-1.4,1-1.9-.7-2.3-8.7-1.9-17-5-24.8-9.4-1.3-.7-2.2-.8-3.1.6-5.3,8.6-8.8,17.9-10.3,27.9-1.5,10-1,20,1.6,29.8,1,3.6,2.1,7.1,3.5,10.4,6.4-3.6,12.3-8.1,17.7-13.5,2.4-2.4,4.5-4.8,6.6-7.4-.7-3.7-.8-7.5-.5-11.5"/>
    <path class="st0" d="M181.8,75.9c-.3.2-.6.4-1,.6-9.8,4.7-18.6,10.9-26.5,18.3,0,0,0,0-.1,0,.5,2.7.8,5.5.8,8.3,0,26.3-22.1,47.6-49.3,47.6s-38.4-12.4-45.7-29.9c-1.8,3-3.8,5.9-6,8.7-4.9,6.2-11.2,10-17.2,14.5,14.4,22,40.4,38.3,69,38.3,44.7,0,81-35.6,81-79.4s-1.8-18.8-5-27.3Z"/>
    <path class="st1" d="M134.9,63.1c7.7,5.2,13.1,12.2,16.4,21,.7,1.7,1.1,1.8,2.3.5,6-6.6,12.8-12.3,20.6-16.8,1.3-.7,1.8-1.5,1-2.9-4.8-8.9-11.1-16.6-19-22.9-7.9-6.3-16.8-10.9-26.6-13.5-3.6-1-7.2-1.7-10.8-2.1,0,7.3.8,14.7,2.8,22.1.9,3.2,1.9,6.4,3.1,9.4,3.5,1.3,6.9,3.1,10.2,5.3"/>
  </g>
</svg>