<?xml version="1.0" encoding="UTF-8"?>
<svg id="Capa_1" xmlns="http://www.w3.org/2000/svg" version="1.1" viewBox="0 0 841.9 240">
  <!-- Generator: Adobe Illustrator 30.3.0, SVG Export Plug-In . SVG Version: 2.1.3 Build 182)  -->
  <defs>
    <style>
      .st0 {
        fill: #f5b23b;
      }

      .st1 {
        opacity: .5;
      }
    </style>
  </defs>
  <g>
    <path class="st0" d="M108.7,127.8c17.8,17.7,46.7,17.5,64.4-.3,8.6-8.6,13.2-20.1,13.2-32.2s-4.8-23.6-13.5-32.1c-8.6-8.5-19.9-13.2-32-13.2s-.1,0-.2,0c-12.2,0-23.6,4.8-32.1,13.5-17.7,17.8-17.5,46.7.3,64.4h-.1ZM140.8,167.4c-18.3,0-36.7-6.9-50.7-20.8-28.2-28-28.4-73.7-.4-101.9,13.5-13.7,31.6-21.2,50.8-21.3s37.4,7.3,51,20.9c13.7,13.5,21.2,31.6,21.3,50.8,0,19.2-7.3,37.4-20.9,51-14.1,14.2-32.6,21.3-51.2,21.3"/>
    <g class="st1">
      <path class="st0" d="M44.3,157.1c-.8.9-.8,1.7.2,2.6l1.1,1.7c12.8,18.9,30.7,33.1,51,41.7,27.7,11.8,59.9,12.9,89.9.6l-3.8-4.1s-14.4-14.4-22.9-19.2c-.6.1-1.3.3-1.9.4-5.3,1-5.4.9-5.4.9-15.2,1.8-30.4-.5-44.1-6.3-19.8-8.4-36.5-24.1-45.7-45.2-.2-.6-1.1-1-1.8.3-2.9,5.4-11.1,20.3-16.6,26.7"/>
    </g>
  </g>
  <g>
    <path class="st0" d="M280.4,34.1c-3.3-2.1-7.2-3.1-11.6-3.1s-8,1-11.1,3.1c-1.4.9-2.7,2.1-3.9,3.3l-1.5-5.4h-8.5v66.5h11.4v-22.4c.8.7,1.5,1.3,2.4,1.8,3.2,2,6.9,3,11.2,3s8.2-1,11.6-3.1,5.9-5,7.7-8.8c1.8-3.8,2.7-8.1,2.7-13s-.9-9.4-2.7-13.2c-1.8-3.8-4.4-6.7-7.7-8.8h0ZM275.8,66.7c-2.3,2.7-5.3,4.1-8.9,4.1s-6.6-1.4-8.9-4.1c-2.3-2.7-3.5-6.3-3.5-10.7s1.2-8,3.5-10.7c2.3-2.7,5.3-4.1,8.9-4.1s6.6,1.4,8.9,4.1c2.3,2.7,3.4,6.3,3.4,10.8s-1.1,7.9-3.4,10.6h0Z"/>
    <path class="st0" d="M340.8,68.5l-8.1-4.9c-1.4,2.2-3.2,4.1-5.1,5.6-2,1.5-4.8,2.3-8.4,2.3s-7.1-1.2-9.4-3.6c-2-2.2-3.2-5-3.3-8.6h35.9c0-.5.1-1,.1-1.6v-1.8c0-4.9-1-9.2-2.9-13-2-3.8-4.7-6.7-8.3-8.8-3.6-2.1-7.7-3.2-12.5-3.2s-8.8,1-12.4,3.1c-3.5,2.1-6.3,5-8.3,8.8s-3,8.2-3,13.2,1,9.3,3,13,4.8,6.6,8.3,8.7c3.5,2.1,7.6,3.1,12.4,3.1s9.7-1,13.3-3.1c3.6-2.1,6.5-5.2,8.6-9.2h0ZM318.9,40c4.2,0,7.4,1.4,9.5,4.3,1.2,1.7,2.1,3.6,2.6,5.9h-24.4c.4-2.6,1.5-4.8,3.2-6.6,2.3-2.4,5.3-3.6,9.2-3.6h-.1Z"/>
    <path class="st0" d="M365,44.2c2.2-1.3,5.4-2,9.7-2h3.1v-10.3c-.5-.3-1.1-.6-2-.7-.9-.1-1.8-.2-2.8-.2-2,0-4,.5-5.9,1.5s-3.6,2.2-5,3.5c-.5.5-.9.9-1.3,1.3l-1.1-5.3h-8.5v47.8h11.4v-33.4c.7-.9,1.6-1.7,2.5-2.3h-.1Z"/>
    <path class="st0" d="M415.8,73.9c1.6-2.3,2.5-5,2.5-8.2s-1.2-6.7-3.7-9-6.6-4.1-12.5-5.5c-3.5-.8-5.8-1.6-7.1-2.5-1.2-.9-1.9-2.1-1.9-3.4s.6-2.5,1.9-3.3c1.2-.8,2.6-1.2,4.2-1.2,2.6,0,4.9.5,6.7,1.6,1.9,1.1,3.3,2.2,4.5,3.5l7.9-6.3c-1.8-2.4-4.2-4.4-7.2-6.1-3-1.7-6.6-2.5-10.9-2.5s-6.6.7-9.2,2-4.6,3.1-6,5.4c-1.4,2.3-2.1,4.7-2.1,7.4,0,4.2,1.3,7.5,3.8,9.6,2.5,2.2,6.2,3.9,11,5.1,2.6.7,4.6,1.3,6,1.9,1.4.6,2.4,1.3,2.9,2s.8,1.5.8,2.5-.5,2.5-1.6,3.4c-1,.9-2.5,1.4-4.3,1.4s-4.7-.5-6.5-1.6c-1.8-1-3.6-2.7-5.6-5.1l-7.7,5.9c2.4,3.7,5.2,6.4,8.4,7.9,3.3,1.6,6.7,2.4,10.2,2.4s6.1-.6,8.8-1.9c2.7-1.2,4.8-3,6.5-5.3h.2Z"/>
    <path class="st0" d="M470.6,69.1c2.1-3.8,3.1-8.1,3.1-13s-1-9.4-3.1-13.2-5-6.7-8.7-8.8-8-3.1-12.9-3.1-9.2,1-12.9,3.1c-3.7,2.1-6.6,5-8.7,8.8s-3.1,8.2-3.1,13.2,1,9.2,3.1,13,5,6.7,8.7,8.8c3.7,2.1,8,3.1,12.9,3.1s9.2-1,12.9-3.1c3.7-2.1,6.6-5,8.7-8.8h0ZM458.5,66.1c-2.4,2.6-5.6,3.9-9.5,3.9s-7.1-1.3-9.5-3.9c-2.4-2.6-3.6-6-3.6-10.1s1.2-7.6,3.6-10.2c2.4-2.5,5.6-3.8,9.5-3.8s7.1,1.3,9.5,3.9c2.4,2.6,3.6,6,3.6,10.1s-1.2,7.6-3.6,10.1Z"/>
    <path class="st0" d="M525.2,79.9v-28.8c0-2.5,0-5-.4-7.4-.3-2.4-.9-4.5-1.9-6.5-1-1.9-2.5-3.4-4.4-4.6-2-1.1-4.6-1.7-8-1.7s-5.1.4-7.6,1.2-4.8,2-6.9,3.4c-1.2.8-2.3,1.7-3.3,2.6l-1.7-6.2h-8.5v47.8h11.4v-31.5c.7-.8,1.4-1.5,2.3-2.2,1.6-1.3,3.3-2.3,5.2-3,1.9-.8,3.8-1.1,5.6-1.1s3.6.5,5,1.6c1.3,1.1,2,3.2,2,6.4v29.8h11.4l-.2.2Z"/>
    <path class="st0" d="M565,79.9h8.7v-31.4c0-3.4-.7-6.4-2.1-9-1.4-2.6-3.4-4.7-6.2-6.2s-6.3-2.3-10.5-2.3-6,.4-9.1,1.1c-3,.7-5.9,1.8-8.7,3.1l3.4,8.4c2.4-1.1,4.6-1.9,6.9-2.3,2.2-.4,4.2-.6,6.1-.6,3.2,0,5.5.8,6.8,2.4,1.3,1.6,2,3.3,2,5.3v3.5h0c-2.8-2.2-6.6-3.2-11.2-3.2s-6.6.7-9.3,2.1c-2.7,1.4-4.8,3.3-6.2,5.7-1.5,2.4-2.2,5.3-2.2,8.5s.7,6.2,2.2,8.6c1.4,2.4,3.5,4.3,6.1,5.6s5.8,2,9.5,2,8-1,10.9-3c.8-.5,1.5-1.1,2.1-1.8l1,3.4h-.1ZM559.9,70.1c-1.6,1.2-3.7,1.9-6.3,1.9s-4.7-.6-6.3-1.9c-1.6-1.2-2.4-2.9-2.4-5.1s.8-4,2.4-5.2c1.6-1.2,3.7-1.8,6.3-1.8s4.7.6,6.3,1.8,2.4,3,2.4,5.2-.8,3.9-2.4,5.1Z"/>
    <path class="st0" d="M618.5,65.7c0-3.7-1.2-6.7-3.7-9s-6.6-4.1-12.5-5.5c-3.5-.8-5.8-1.6-7.1-2.5-1.2-.9-1.9-2.1-1.9-3.4s.6-2.5,1.9-3.3c1.2-.8,2.6-1.2,4.2-1.2,2.6,0,4.9.5,6.7,1.6,1.9,1.1,3.3,2.2,4.5,3.5l7.9-6.3c-1.8-2.4-4.2-4.4-7.2-6.1-3-1.7-6.6-2.5-10.9-2.5s-6.6.7-9.2,2c-2.6,1.3-4.6,3.1-6,5.4-1.4,2.3-2.1,4.7-2.1,7.4,0,4.2,1.3,7.5,3.8,9.6,2.5,2.2,6.2,3.9,11,5.1,2.6.7,4.6,1.3,6,1.9,1.4.6,2.4,1.3,2.9,2s.8,1.5.8,2.5-.5,2.5-1.6,3.4c-1,.9-2.5,1.4-4.3,1.4s-4.7-.5-6.5-1.6c-1.8-1-3.6-2.7-5.6-5.1l-7.7,5.9c2.4,3.7,5.2,6.4,8.4,7.9,3.3,1.6,6.7,2.4,10.2,2.4s6.1-.6,8.8-1.9c2.7-1.2,4.8-3,6.5-5.3,1.6-2.3,2.5-5,2.5-8.2h.2Z"/>
    <path class="st0" d="M683.6,62.3c-1,2.5-2.4,4.4-4.3,5.7-1.9,1.3-4.1,2-6.7,2s-6.5-1.2-8.9-3.7-3.6-5.9-3.6-10.3,1.2-7.9,3.6-10.3c2.4-2.5,5.3-3.7,8.9-3.7s4.8.7,6.7,2,3.3,3.2,4.3,5.7l10.6-4.6c-1.7-4.2-4.5-7.6-8.3-10.2-3.8-2.5-8.2-3.8-13.1-3.8s-9.2,1.1-12.8,3.2c-3.6,2.1-6.4,5.1-8.4,8.8-2,3.8-3,8.1-3,13s1,9.2,3,12.9,4.8,6.7,8.4,8.8c3.6,2.2,7.9,3.2,12.8,3.2s9.2-1.3,13-3.9,6.6-6,8.4-10.2l-10.6-4.5h0Z"/>
    <path class="st0" d="M747.5,56.1c0-5-1-9.4-3.1-13.2s-5-6.7-8.7-8.8-8-3.1-12.9-3.1-9.2,1-12.9,3.1-6.6,5-8.7,8.8c-2.1,3.8-3.1,8.2-3.1,13.2s1,9.2,3.1,13,5,6.7,8.7,8.8c3.7,2.1,8,3.1,12.9,3.1s9.2-1,12.9-3.1,6.6-5,8.7-8.8c2.1-3.8,3.1-8.1,3.1-13h0ZM732.3,66.1c-2.4,2.6-5.6,3.9-9.5,3.9s-7.1-1.3-9.5-3.9c-2.4-2.6-3.6-6-3.6-10.1s1.2-7.6,3.6-10.2c2.4-2.5,5.6-3.8,9.5-3.8s7.1,1.3,9.5,3.9c2.4,2.6,3.6,6,3.6,10.1s-1.2,7.6-3.6,10.1Z"/>
    <path class="st0" d="M798.5,43.7c-.3-2.4-.9-4.5-1.9-6.5-1-1.9-2.5-3.4-4.4-4.6-2-1.1-4.6-1.7-8-1.7s-5.1.4-7.6,1.2-4.8,2-6.9,3.4c-1.2.8-2.3,1.7-3.3,2.6l-1.7-6.2h-8.5v47.8h11.4v-31.5c.7-.8,1.4-1.5,2.3-2.2,1.6-1.3,3.3-2.3,5.2-3,1.9-.8,3.8-1.1,5.6-1.1s3.6.5,5,1.6c1.3,1.1,2,3.2,2,6.4v29.8h11.4v-28.8c0-2.5,0-5-.4-7.4l-.2.2Z"/>
    <path class="st0" d="M276.6,125.7c-.8-.7-1.6-1.3-2.5-1.9-3.2-2-6.9-3-11.1-3s-8.2,1-11.6,3.1c-3.3,2.1-5.9,5-7.8,8.7-1.9,3.7-2.8,8.1-2.8,13s.9,9.3,2.8,13.1,4.5,6.7,7.8,8.8,7.2,3.2,11.5,3.2,8-1,11.2-3.1c1.4-.9,2.7-2.1,3.9-3.3l1.4,5.4h8.6v-66.8h-11.4v22.7h0ZM273.7,156.5c-2.3,2.7-5.2,4.1-8.9,4.1s-6.7-1.4-9-4.1c-2.3-2.7-3.5-6.3-3.5-10.8s1.2-7.9,3.5-10.6c2.3-2.7,5.3-4.1,9-4.1s6.6,1.4,8.9,4.1,3.4,6.3,3.4,10.7-1.1,8-3.4,10.7h0Z"/>
    <rect class="st0" x="299.8" y="121.8" width="11.4" height="47.8"/>
    <path class="st0" d="M305.5,99.8c-2.2,0-4,.7-5.2,2-1.3,1.3-1.9,3.1-1.9,5.1s.6,3.8,1.9,5.1c1.3,1.3,3,2,5.2,2s3.8-.7,5.1-2c1.3-1.3,2-3,2-5.1s-.7-3.8-2-5.1c-1.3-1.3-3-2-5.1-2Z"/>
    <path class="st0" d="M333.7,131.6c1.2-.8,2.6-1.2,4.2-1.2,2.6,0,4.9.5,6.7,1.6,1.9,1.1,3.3,2.2,4.5,3.5l7.9-6.3c-1.8-2.4-4.2-4.4-7.2-6.1s-6.6-2.5-10.9-2.5-6.6.7-9.2,2-4.6,3.1-6,5.4-2.1,4.7-2.1,7.4c0,4.2,1.3,7.5,3.8,9.6,2.5,2.2,6.2,3.9,11,5.1,2.6.7,4.6,1.3,6,1.9s2.4,1.3,2.9,2,.8,1.5.8,2.5-.5,2.5-1.6,3.4c-1,.9-2.5,1.4-4.3,1.4s-4.7-.5-6.5-1.6c-1.8-1-3.6-2.7-5.6-5.1l-7.7,5.9c2.4,3.7,5.2,6.4,8.4,7.9,3.3,1.6,6.7,2.4,10.2,2.4s6.1-.6,8.8-1.9c2.7-1.2,4.8-3,6.5-5.3,1.6-2.3,2.5-5,2.5-8.2s-1.2-6.7-3.7-9-6.6-4.1-12.5-5.5c-3.5-.8-5.8-1.6-7.1-2.5-1.2-.9-1.9-2.1-1.9-3.4s.6-2.5,1.9-3.3h.2Z"/>
    <path class="st0" d="M387,131.7c2.5,0,4.8.7,6.7,2,1.9,1.3,3.3,3.2,4.3,5.7l10.6-4.6c-1.7-4.2-4.5-7.6-8.3-10.2-3.8-2.5-8.2-3.8-13.1-3.8s-9.2,1.1-12.8,3.2c-3.6,2.1-6.4,5.1-8.4,8.8-2,3.8-3,8.1-3,13s1,9.2,3,12.9c2,3.7,4.8,6.7,8.4,8.8,3.6,2.2,7.9,3.2,12.8,3.2s9.2-1.3,13-3.9,6.6-6,8.4-10.2l-10.6-4.5c-1,2.5-2.4,4.4-4.3,5.7-1.9,1.3-4.1,2-6.7,2s-6.5-1.2-8.9-3.7-3.6-5.9-3.6-10.3,1.2-7.9,3.6-10.3c2.4-2.5,5.3-3.7,8.9-3.7h0Z"/>
    <path class="st0" d="M444.4,123.1c-2.8-1.5-6.3-2.3-10.5-2.3s-6,.4-9.1,1.1c-3,.7-5.9,1.8-8.7,3.1l3.4,8.4c2.4-1.1,4.6-1.9,6.9-2.3,2.2-.4,4.2-.6,6.1-.6,3.2,0,5.5.8,6.8,2.4s2,3.3,2,5.3v3.5h-.1c-2.8-2.2-6.6-3.2-11.2-3.2s-6.6.7-9.3,2.1c-2.7,1.4-4.8,3.3-6.2,5.7-1.5,2.4-2.2,5.3-2.2,8.5s.7,6.2,2.2,8.6c1.4,2.4,3.5,4.3,6.1,5.6,2.6,1.3,5.8,2,9.5,2s8-1,10.9-3c.8-.5,1.5-1.1,2.1-1.8l1,3.4h8.7v-31.4c0-3.4-.7-6.4-2.1-9s-3.4-4.7-6.2-6.2h0ZM438.9,159.9c-1.6,1.2-3.7,1.9-6.3,1.9s-4.7-.6-6.3-1.9c-1.6-1.2-2.4-2.9-2.4-5.1s.8-4,2.4-5.2,3.7-1.8,6.3-1.8,4.7.6,6.3,1.8c1.6,1.2,2.4,3,2.4,5.2s-.8,3.9-2.4,5.1Z"/>
    <path class="st0" d="M500.5,123.9c-3.3-2.1-7.2-3.1-11.6-3.1s-8,1-11.1,3.1c-1.4.9-2.7,2.1-3.9,3.3l-1.5-5.4h-8.5v66.5h11.4v-22.4c.8.7,1.5,1.3,2.4,1.8,3.2,2,6.9,3,11.2,3s8.2-1,11.6-3.1,5.9-5,7.7-8.8c1.8-3.8,2.7-8.1,2.7-13s-.9-9.4-2.7-13.2c-1.8-3.8-4.4-6.7-7.7-8.8h0ZM496,156.5c-2.3,2.7-5.3,4.1-8.9,4.1s-6.6-1.4-8.9-4.1-3.5-6.3-3.5-10.7,1.2-8,3.5-10.7,5.3-4.1,8.9-4.1,6.6,1.4,8.9,4.1,3.4,6.3,3.4,10.8-1.1,7.9-3.4,10.6h0Z"/>
    <path class="st0" d="M547.8,123.1c-2.8-1.5-6.3-2.3-10.5-2.3s-6,.4-9.1,1.1c-3,.7-5.9,1.8-8.7,3.1l3.4,8.4c2.4-1.1,4.6-1.9,6.9-2.3,2.2-.4,4.2-.6,6.1-.6,3.2,0,5.5.8,6.8,2.4s2,3.3,2,5.3v3.5h0c-2.8-2.2-6.6-3.2-11.2-3.2s-6.6.7-9.3,2.1-4.8,3.3-6.2,5.7c-1.5,2.4-2.2,5.3-2.2,8.5s.7,6.2,2.2,8.6c1.4,2.4,3.5,4.3,6.1,5.6,2.6,1.3,5.8,2,9.5,2s8-1,10.9-3c.8-.5,1.5-1.1,2.1-1.8l1,3.4h8.7v-31.4c0-3.4-.7-6.4-2.1-9-1.4-2.6-3.4-4.7-6.2-6.2h-.1ZM542.3,159.9c-1.6,1.2-3.7,1.9-6.3,1.9s-4.7-.6-6.3-1.9c-1.6-1.2-2.4-2.9-2.4-5.1s.8-4,2.4-5.2c1.6-1.2,3.7-1.8,6.3-1.8s4.7.6,6.3,1.8c1.6,1.2,2.4,3,2.4,5.2s-.8,3.9-2.4,5.1Z"/>
    <path class="st0" d="M588.4,131.7c2.5,0,4.8.7,6.7,2s3.3,3.2,4.3,5.7l10.6-4.6c-1.7-4.2-4.5-7.6-8.3-10.2-3.8-2.5-8.2-3.8-13.1-3.8s-9.2,1.1-12.8,3.2-6.4,5.1-8.4,8.8c-2,3.8-3,8.1-3,13s1,9.2,3,12.9c2,3.7,4.8,6.7,8.4,8.8,3.6,2.2,7.9,3.2,12.8,3.2s9.2-1.3,13-3.9,6.6-6,8.4-10.2l-10.6-4.5c-1,2.5-2.4,4.4-4.3,5.7-1.9,1.3-4.1,2-6.7,2s-6.5-1.2-8.9-3.7-3.6-5.9-3.6-10.3,1.2-7.9,3.6-10.3c2.4-2.5,5.3-3.7,8.9-3.7h0Z"/>
    <path class="st0" d="M623.2,99.8c-2.2,0-4,.7-5.2,2-1.3,1.3-1.9,3.1-1.9,5.1s.6,3.8,1.9,5.1c1.3,1.3,3,2,5.2,2s3.8-.7,5.1-2,2-3,2-5.1-.7-3.8-2-5.1c-1.3-1.3-3-2-5.1-2Z"/>
    <rect class="st0" x="617.5" y="121.8" width="11.4" height="47.8"/>
    <path class="st0" d="M673.7,125.7c-.8-.7-1.6-1.3-2.5-1.9-3.2-2-6.9-3-11.1-3s-8.2,1-11.6,3.1c-3.3,2.1-5.9,5-7.8,8.7-1.9,3.7-2.8,8.1-2.8,13s.9,9.3,2.8,13.1c1.9,3.8,4.5,6.7,7.8,8.8s7.2,3.2,11.5,3.2,8-1,11.2-3.1c1.4-.9,2.7-2.1,3.9-3.3l1.4,5.4h8.6v-66.8h-11.4v22.7h0ZM670.8,156.5c-2.3,2.7-5.2,4.1-8.9,4.1s-6.7-1.4-9-4.1-3.5-6.3-3.5-10.8,1.2-7.9,3.5-10.6,5.3-4.1,9-4.1,6.6,1.4,8.9,4.1c2.3,2.7,3.4,6.3,3.4,10.7s-1.1,8-3.4,10.7h0Z"/>
    <path class="st0" d="M726,123.1c-2.8-1.5-6.3-2.3-10.5-2.3s-6,.4-9.1,1.1c-3,.7-5.9,1.8-8.7,3.1l3.4,8.4c2.4-1.1,4.6-1.9,6.9-2.3,2.2-.4,4.2-.6,6.1-.6,3.2,0,5.5.8,6.8,2.4s2,3.3,2,5.3v3.5h0c-2.8-2.2-6.6-3.2-11.2-3.2s-6.6.7-9.3,2.1-4.8,3.3-6.2,5.7c-1.5,2.4-2.2,5.3-2.2,8.5s.7,6.2,2.2,8.6c1.4,2.4,3.5,4.3,6.1,5.6,2.6,1.3,5.8,2,9.5,2s8-1,10.9-3c.8-.5,1.5-1.1,2.1-1.8l1,3.4h8.7v-31.4c0-3.4-.7-6.4-2.1-9-1.4-2.6-3.4-4.7-6.2-6.2h-.1ZM720.5,159.9c-1.6,1.2-3.7,1.9-6.3,1.9s-4.7-.6-6.3-1.9c-1.6-1.2-2.4-2.9-2.4-5.1s.8-4,2.4-5.2c1.6-1.2,3.7-1.8,6.3-1.8s4.7.6,6.3,1.8c1.6,1.2,2.4,3,2.4,5.2s-.8,3.9-2.4,5.1Z"/>
    <path class="st0" d="M778.4,125.7c-.8-.7-1.6-1.3-2.5-1.9-3.2-2-6.9-3-11.1-3s-8.2,1-11.6,3.1c-3.3,2.1-5.9,5-7.8,8.7-1.9,3.7-2.8,8.1-2.8,13s.9,9.3,2.8,13.1c1.9,3.8,4.5,6.7,7.8,8.8s7.2,3.2,11.5,3.2,8-1,11.2-3.1c1.4-.9,2.7-2.1,3.9-3.3l1.4,5.4h8.6v-66.8h-11.4v22.7h0ZM775.5,156.5c-2.3,2.7-5.2,4.1-8.9,4.1s-6.7-1.4-9-4.1-3.5-6.3-3.5-10.8,1.2-7.9,3.5-10.6,5.3-4.1,9-4.1,6.6,1.4,8.9,4.1c2.3,2.7,3.4,6.3,3.4,10.7s-1.1,8-3.4,10.7h0Z"/>
  </g>
</svg>