<?xml version="1.0" encoding="UTF-8"?>
<svg id="Capa_1" xmlns="http://www.w3.org/2000/svg" version="1.1" viewBox="0 0 841.9 277">
  <!-- Generator: Adobe Illustrator 30.3.0, SVG Export Plug-In . SVG Version: 2.1.3 Build 182)  -->
  <defs>
    <style>
      .st0 {
        isolation: isolate;
        opacity: .4;
      }

      .st0, .st1 {
        fill: #bfc2e3;
      }
    </style>
  </defs>
  <path class="st0" d="M70.6,123.6c-.6,6.6-2.2,13.1-4.8,19.3,0,.3-.2.5-.2.7-1.7.2-3.4.6-5.1,1-18.3,5.1-28.9,24.1-23.8,42.4h0c5.1,18.3,24.1,28.9,42.4,23.8,8.8-2.5,16.2-8.3,20.7-16.3h0c4.4-8.1,5.5-17.3,3-26.1-1.7-6.2-5.1-11.6-9.6-15.8,2-.2,4.1-.6,6.1-1.1,5.2-1.2,10.1-3.1,14.7-5.4,3.6,5.1,6.4,10.8,8.1,16.9,3.9,14,2.2,28.7-4.9,41.4-7.1,12.7-18.7,21.8-32.7,25.8-28.9,8.1-59-8.8-67.1-37.7-4-14.4-1.9-29,4.8-41.1,6.8-12.3,18.3-21.9,32.8-26,5.1-1.4,10.4-2.1,15.5-2v.3"/>
  <path class="st1" d="M80.6,145.6c11.3-1.7,22.2-5.2,32.6-10.1.4-.2.8-.3,1.1-.4.2-3,.6-5.9,1.2-8.9,6.9-31.8,38.4-52,70.1-45.1,31.8,6.9,52,38.4,45.1,70.1-3.3,15.4-12.5,28.6-25.7,37.1,0,0-.1,0-.2.1-13.2,8.4-28.9,11.2-44.2,7.9-10.7-2.3-20.4-7.5-28.1-14.9-.2,3.5-.6,7-1.2,10.6-1.5,9-4.2,17.6-7.8,25.7,9,5.7,19.1,9.8,29.8,12.1,24.4,5.3,49.4.8,70.3-12.7,21-13.5,35.4-34.3,40.7-58.7,10.9-50.3-21.1-100.1-71.4-111h0c-25-5.4-49.9-.2-69.9,12.5-20.3,12.9-35.6,33.6-41.1,58.9-1.9,8.9-2.6,18-1.9,26.8.2,0,.3,0,.5-.1"/>
  <g>
    <polygon class="st1" points="431.9 214.2 416.4 170.2 400.5 170.2 424.9 232.6 439.1 232.6 462.3 170.2 446.6 170.2 431.9 214.2"/>
    <path class="st1" d="M305.5,238c0,1.9-.4,3.4-1.3,4.5-.9,1.2-2.1,1.7-3.7,1.7s-1.7,0-2.4-.3c-.6-.2-1.2-.3-1.6-.4v12.5c.4.2,1.3.4,2.6.8,1.3.3,3,.5,5.2.5,3.8,0,6.9-.8,9.3-2.5,2.3-1.7,4-3.9,5.1-6.8s1.6-5.9,1.6-9.3v-68.6h-14.8v67.9Z"/>
    <path class="st1" d="M313.1,141.5c-2.9,0-5.2.9-6.8,2.6-1.7,1.7-2.5,4-2.5,6.7s.8,4.9,2.5,6.6,3.9,2.6,6.8,2.6,4.9-.8,6.6-2.6c1.7-1.7,2.6-3.9,2.6-6.6s-.9-5-2.6-6.7-3.9-2.6-6.6-2.6Z"/>
    <path class="st1" d="M376.2,211.3c-.8,1-1.8,1.9-2.9,2.8-2.1,1.7-4.3,3-6.8,4-2.4.9-4.9,1.4-7.3,1.4s-4.6-.7-6.5-2.1c-1.8-1.4-2.7-4.2-2.7-8.2v-38.9h-14.8v37.4c0,3.4.2,6.7.7,9.8.5,3.2,1.4,6,2.7,8.4,1.4,2.5,3.4,4.4,6.2,5.9,2.8,1.4,6.5,2.2,11.2,2.2s6.2-.5,9.2-1.6,5.8-2.6,8.6-4.5c1.4-1,2.7-2.1,4-3.3l2.1,8h11.1v-62.4h-14.8v41.1h0Z"/>
    <path class="st1" d="M768.9,145.6v29.6c-1-.9-2.1-1.7-3.3-2.5-4.1-2.6-9-3.9-14.5-3.9s-10.7,1.4-15.1,4.1c-4.3,2.7-7.7,6.5-10.2,11.4-2.4,4.9-3.6,10.5-3.6,17s1.2,12.2,3.6,17.1c2.4,4.9,5.8,8.7,10.2,11.5,4.3,2.8,9.3,4.2,15,4.2s10.4-1.4,14.6-4.1c1.9-1.2,3.6-2.7,5.1-4.4l1.8,7h11.2v-87h-14.8ZM765.1,215.4c-2.9,3.5-6.8,5.3-11.6,5.3s-8.7-1.8-11.7-5.4-4.5-8.3-4.5-14.1,1.5-10.3,4.5-13.9c3-3.5,6.9-5.3,11.7-5.3s8.6,1.8,11.6,5.3c2.9,3.5,4.4,8.2,4.4,14s-1.5,10.5-4.4,14h0Z"/>
    <path class="st1" d="M512.9,173c-4.6-2.8-10.1-4.2-16.3-4.2s-11.5,1.4-16.1,4.1-8.2,6.5-10.8,11.4c-2.6,4.9-3.9,10.6-3.9,17.2s1.3,12.1,3.9,17,6.2,8.6,10.8,11.3c4.6,2.7,10,4,16.1,4s12.7-1.4,17.4-4.1,8.4-6.7,11.2-12l-10.6-6.4c-1.9,2.9-4.1,5.3-6.7,7.3s-6.2,2.9-10.9,2.9-9.3-1.6-12.2-4.7c-2.7-2.8-4.1-6.6-4.4-11.2h46.9c0-.6,0-1.3.2-2v-2.3c0-6.4-1.3-12-3.8-16.9-2.6-4.9-6.2-8.7-10.8-11.5h0ZM496.7,180.6c5.5,0,9.7,1.9,12.4,5.6,1.6,2.2,2.7,4.8,3.4,7.7h-31.8c.6-3.4,1.9-6.3,4.1-8.6,2.9-3.1,6.9-4.7,11.9-4.7Z"/>
    <path class="st1" d="M696.6,211.3c-.8,1-1.8,1.9-2.9,2.8-2.1,1.7-4.3,3-6.8,4-2.4.9-4.9,1.4-7.3,1.4s-4.6-.7-6.5-2.1c-1.8-1.4-2.7-4.2-2.7-8.2v-38.9h-14.8v37.4c0,3.4.2,6.7.7,9.8.5,3.2,1.4,6,2.7,8.4,1.4,2.5,3.4,4.4,6.2,5.9,2.8,1.4,6.5,2.2,11.2,2.2s6.2-.5,9.2-1.6,5.8-2.6,8.6-4.5c1.4-1,2.7-2.1,4-3.3l2.1,8h11.1v-62.4h-14.8v41.1h0Z"/>
    <path class="st1" d="M628.8,155.8h-12l-2.8,14.4h-9.6v13.5h9.6v29.5c0,7.1,1.7,12.2,5.2,15.5s8.2,4.9,14.1,4.9,3.6-.1,5-.4,2.7-.6,4-1v-13.8c-.9.3-1.8.5-2.9.6-1.1.2-2.3.3-3.7.3-2,0-3.7-.6-5-1.8-1.3-1.2-1.9-3.1-1.9-5.6v-28.2h13.5v-13.5h-13.5v-14.4h0Z"/>
    <path class="st1" d="M591.4,176.9c-1.3-2.5-3.2-4.5-5.8-5.9s-6.1-2.2-10.5-2.2-6.7.5-9.9,1.6-6.2,2.6-9,4.5c-1.5,1-3,2.2-4.3,3.4l-2.2-8.1h-11.1v62.4h14.8v-41c.9-1,1.8-2,2.9-2.9,2-1.7,4.3-3,6.8-4s5-1.5,7.3-1.5,4.7.7,6.5,2.1c1.7,1.4,2.6,4.2,2.6,8.4v38.9h14.8v-37.6c0-3.3-.2-6.5-.6-9.6-.4-3.1-1.2-5.9-2.5-8.4h.2Z"/>
  </g>
  <g>
    <path class="st1" d="M428.8,18.9c-3.8,0-7.2.8-10,2.3-2.9,1.5-5,3.8-6.6,6.9-1.5,3.1-2.3,6.9-2.3,11.4v6.1h-9.2v13.7h9.2v48.1h14.8v-48.1h11.6v-13.7h-11.6v-4.5c0-2.9.7-5,2.1-6.2s3.1-1.9,5-1.9,2.2,0,3.1.3c.9.2,1.8.3,2.7.5v-13.7c-1.1-.3-2.4-.6-3.9-.9-1.5-.3-3.2-.4-5-.4h0Z"/>
    <path class="st1" d="M312.3,16.2c-2.9,0-5.2.9-6.8,2.6-1.7,1.7-2.5,4-2.5,6.7s.8,4.9,2.5,6.6c1.7,1.7,3.9,2.6,6.8,2.6s4.9-.9,6.6-2.6c1.7-1.7,2.6-3.9,2.6-6.6s-.9-5-2.6-6.7-3.9-2.6-6.6-2.6Z"/>
    <path class="st1" d="M388.1,51.7c-1.3-2.5-3.2-4.5-5.7-5.9-2.6-1.4-6.1-2.2-10.5-2.2s-6.7.5-9.9,1.6c-3.2,1.1-6.2,2.6-9,4.5-1.5,1-3,2.2-4.3,3.4l-2.2-8.1h-11.1v62.4h14.8v-41c.9-1,1.8-2,2.9-2.9,2-1.7,4.3-3,6.8-4s5-1.5,7.3-1.5,4.7.7,6.5,2.1c1.7,1.4,2.6,4.2,2.6,8.4v38.9h14.8v-37.6c0-3.3-.2-6.5-.6-9.6s-1.2-5.9-2.5-8.4h.1Z"/>
    <rect class="st1" x="304.9" y="45" width="14.8" height="62.4"/>
    <path class="st1" d="M483.6,46.6c-3.6-2-8.2-3-13.7-3s-7.9.5-11.8,1.4c-4,.9-7.7,2.3-11.3,4.1l4.5,11c3.1-1.4,6-2.4,8.9-3s5.5-.8,7.9-.8c4.2,0,7.1,1,8.9,3.1,1.7,2,2.6,4.3,2.6,6.9v4.6s-.1-.1-.2-.2c-3.7-2.7-8.6-4.1-14.6-4.1s-8.6.9-12.1,2.7-6.2,4.3-8.1,7.5-2.9,6.9-2.9,11.1.9,8.1,2.8,11.2c1.9,3.2,4.5,5.6,8,7.3s7.6,2.6,12.3,2.6,10.4-1.3,14.3-4c1-.7,1.9-1.4,2.7-2.3l1.3,4.5h11.4v-40.9c0-4.4-.9-8.3-2.7-11.8-1.8-3.4-4.5-6.1-8.1-8.1v.2ZM476.5,94.5c-2.1,1.6-4.8,2.4-8.2,2.4s-6.2-.8-8.2-2.4c-2.1-1.6-3.1-3.8-3.1-6.6s1-5.3,3.1-6.8c2.1-1.6,4.8-2.4,8.2-2.4s6.2.8,8.2,2.4c2.1,1.6,3.1,3.9,3.1,6.8s-1,5-3.1,6.6Z"/>
    <path class="st1" d="M561.9,51.7c-1.3-2.5-3.2-4.5-5.8-5.9s-6.1-2.2-10.5-2.2-6.7.5-9.9,1.6-6.2,2.6-9,4.5c-1.5,1-3,2.2-4.3,3.4l-2.2-8.1h-11.1v62.4h14.8v-41c.9-1,1.8-2,2.9-2.9,2-1.7,4.3-3,6.8-4s5-1.5,7.3-1.5,4.7.7,6.5,2.1c1.7,1.4,2.6,4.2,2.6,8.4v38.9h14.8v-37.6c0-3.3-.2-6.5-.6-9.6-.4-3.1-1.2-5.9-2.5-8.4h.2Z"/>
    <path class="st1" d="M651.9,16.2c-2.9,0-5.2.9-6.8,2.6-1.7,1.7-2.5,4-2.5,6.7s.8,4.9,2.5,6.6c1.7,1.7,3.9,2.6,6.8,2.6s4.9-.9,6.6-2.6c1.7-1.7,2.6-3.9,2.6-6.6s-.9-5-2.6-6.7c-1.7-1.7-3.9-2.6-6.6-2.6Z"/>
    <polygon class="st1" points="813.4 45 796.9 81.8 780.5 45 765.2 45 789.3 98.9 774.7 131.6 790 131.6 828.7 45 813.4 45"/>
    <path class="st1" d="M712.5,46.6c-3.6-2-8.2-3-13.7-3s-7.9.5-11.8,1.4c-4,.9-7.7,2.3-11.3,4.1l4.5,11c3.1-1.4,6-2.4,8.9-3s5.5-.8,7.9-.8c4.2,0,7.1,1,8.9,3.1,1.7,2,2.6,4.3,2.6,6.9v4.6s0-.1-.2-.2c-3.7-2.7-8.6-4.1-14.6-4.1s-8.6.9-12.1,2.7-6.2,4.3-8.1,7.5c-1.9,3.2-2.9,6.9-2.9,11.1s.9,8.1,2.8,11.2c1.9,3.2,4.5,5.6,8,7.3s7.6,2.6,12.3,2.6,10.4-1.3,14.2-4c1-.7,1.9-1.4,2.8-2.3l1.3,4.5h11.4v-40.9c0-4.4-.9-8.3-2.7-11.8-1.8-3.4-4.5-6.1-8.1-8.1v.2ZM705.3,94.5c-2.1,1.6-4.8,2.4-8.2,2.4s-6.2-.8-8.2-2.4c-2.1-1.6-3.1-3.8-3.1-6.6s1-5.3,3.1-6.8c2.1-1.6,4.8-2.4,8.2-2.4s6.2.8,8.2,2.4c2.1,1.6,3.1,3.9,3.1,6.8s-1,5-3.1,6.6Z"/>
    <path class="st1" d="M606.5,57.9c3.3,0,6.2.9,8.7,2.6,2.5,1.7,4.3,4.2,5.6,7.4l13.8-6c-2.2-5.5-5.8-10-10.8-13.3s-10.7-5-17.1-5-11.9,1.4-16.7,4.2c-4.7,2.8-8.4,6.6-11,11.5s-3.9,10.5-3.9,16.9,1.3,12,3.9,16.9c2.6,4.9,6.3,8.7,11,11.5s10.3,4.2,16.7,4.2,11.9-1.7,16.9-5c5-3.4,8.6-7.8,10.9-13.4l-13.8-5.9c-1.3,3.2-3.2,5.7-5.6,7.4-2.5,1.7-5.4,2.6-8.7,2.6s-8.5-1.6-11.6-4.9c-3.1-3.2-4.7-7.7-4.7-13.4s1.6-10.3,4.7-13.5c3.1-3.2,7-4.8,11.6-4.8h0Z"/>
    <rect class="st1" x="644.4" y="45" width="14.8" height="62.4"/>
  </g>
</svg>