<?xml version="1.0" encoding="UTF-8"?>
<svg id="Capa_1" xmlns="http://www.w3.org/2000/svg" version="1.1" viewBox="0 0 841.9 242">
  <!-- Generator: Adobe Illustrator 30.3.0, SVG Export Plug-In . SVG Version: 2.1.3 Build 182)  -->
  <defs>
    <style>
      .st0 {
        opacity: .4;
      }

      .st1 {
        fill: #f18439;
      }
    </style>
  </defs>
  <g>
    <rect class="st1" x="573.2" y="150.1" width="13.4" height="56.4"/>
    <path class="st1" d="M556.9,156.1c-1.2-2.3-2.9-4.1-5.2-5.4s-5.5-2-9.5-2-6.1.5-9,1.4c-2.9,1-5.6,2.3-8.1,4-1.4.9-2.7,2-3.9,3.1l-2-7.3h-10v56.4h13.4v-37.1c.8-.9,1.7-1.8,2.7-2.6,1.8-1.5,3.9-2.7,6.2-3.6s4.5-1.3,6.6-1.3,4.3.6,5.8,1.9c1.6,1.3,2.4,3.8,2.4,7.6v35.1h13.4v-34c0-3-.2-5.9-.5-8.7-.3-2.8-1.1-5.4-2.3-7.6h0Z"/>
    <path class="st1" d="M249.6,161.8c3,0,5.6.8,7.9,2.3,2.2,1.5,3.9,3.8,5.1,6.7l12.5-5.4c-2-5-5.3-9-9.8-12s-9.6-4.5-15.4-4.5-10.8,1.3-15.1,3.8-7.6,6-9.9,10.4c-2.3,4.4-3.5,9.5-3.5,15.3s1.2,10.9,3.5,15.2c2.3,4.4,5.7,7.9,9.9,10.4,4.3,2.5,9.3,3.8,15.1,3.8s10.8-1.5,15.3-4.6c4.5-3,7.8-7.1,9.9-12.1l-12.5-5.3c-1.2,2.9-2.8,5.2-5.1,6.7-2.2,1.5-4.9,2.3-7.9,2.3s-7.6-1.5-10.5-4.4c-2.8-2.9-4.2-7-4.2-12.1s1.4-9.3,4.2-12.2c2.8-2.9,6.3-4.3,10.5-4.3h0Z"/>
    <path class="st1" d="M324,152.5c-4.4-2.5-9.5-3.7-15.2-3.7s-10.9,1.2-15.2,3.7c-4.4,2.5-7.8,5.9-10.2,10.3-2.4,4.4-3.6,9.6-3.6,15.5s1.2,10.9,3.6,15.3,5.8,7.9,10.2,10.3,9.5,3.7,15.2,3.7,10.9-1.2,15.2-3.7,7.8-5.9,10.2-10.3c2.4-4.4,3.6-9.5,3.6-15.3s-1.2-11.1-3.6-15.5-5.8-7.9-10.2-10.3ZM319.9,190.2c-2.8,3-6.6,4.6-11.2,4.6s-8.4-1.5-11.2-4.6c-2.8-3-4.3-7-4.3-12s1.4-9,4.3-12c2.8-3,6.6-4.5,11.2-4.5s8.4,1.5,11.2,4.6c2.8,3,4.3,7,4.3,12s-1.4,8.9-4.3,12h0Z"/>
    <path class="st1" d="M482,187.2c-.8.9-1.6,1.7-2.6,2.5-1.9,1.5-3.9,2.7-6.1,3.6-2.2.8-4.4,1.3-6.6,1.3s-4.2-.6-5.8-1.9c-1.7-1.3-2.5-3.8-2.5-7.4v-35.1h-13.4v33.8c0,3.1.2,6,.6,8.9s1.2,5.4,2.5,7.6c1.2,2.2,3.1,4,5.6,5.3s5.9,2,10.1,2,5.6-.5,8.3-1.4c2.7-1,5.3-2.3,7.7-4.1,1.3-.9,2.5-1.9,3.6-3l1.9,7.2h10v-56.4h-13.4v37.1h0Z"/>
    <path class="st1" d="M429.5,156.1c-1.1-2.3-2.8-4.1-5.1-5.4-2.3-1.3-5.4-2-9.4-2s-5.8.5-8.5,1.4c-2.7,1-5.3,2.3-7.6,4-1.4,1.1-2.8,2.3-4.1,3.6-.2-.6-.5-1.2-.7-1.7-1.1-2.3-2.8-4.1-5.1-5.4-2.3-1.3-5.4-2-9.4-2s-5.8.5-8.5,1.4c-2.7,1-5.3,2.3-7.6,4-1.2.9-2.4,1.9-3.5,3l-1.9-7.2h-10v56.4h13.4v-37.2c1.4-1.7,3-3.2,5-4.5,2.9-1.9,5.9-2.9,9-2.9s4.1.6,5.7,1.9,2.4,3.8,2.4,7.6v35.1h13.4v-37.1c1.4-1.7,3.1-3.3,5.1-4.6,2.9-1.9,6-2.9,9.1-2.9s4,.6,5.6,1.9,2.4,3.8,2.4,7.6v35.1h13.4v-34c0-3-.2-5.9-.5-8.7-.3-2.8-1.1-5.4-2.2-7.6l-.4.2Z"/>
    <path class="st1" d="M619,137h-10.9l-2.5,13.1h-8.7v12.2h8.7v26.7c0,6.4,1.6,11.1,4.7,14,3.1,3,7.4,4.4,12.8,4.4s3.3-.1,4.6-.3c1.3-.2,2.5-.5,3.6-.9v-12.5c-.8.2-1.7.4-2.7.6s-2.1.2-3.4.2-3.4-.5-4.5-1.6c-1.2-1.1-1.7-2.8-1.7-5.1v-25.5h12.2v-12.2h-12.2v-13.1h0Z"/>
    <path class="st1" d="M726.5,148.8c-2.4,0-4.7.6-7,1.7-2.3,1.2-4.3,2.5-5.9,4.2-.6.5-1.1,1.1-1.5,1.6l-1.4-6.2h-10v56.4h13.4v-39.4c.9-1.1,1.8-2,3-2.7,2.5-1.6,6.4-2.4,11.4-2.4h3.7v-12.1c-.5-.4-1.3-.7-2.4-.8-1-.2-2.1-.2-3.3-.2h0Z"/>
    <path class="st1" d="M748.3,124.1c-2.6,0-4.7.8-6.2,2.4s-2.3,3.6-2.3,6.1.8,4.5,2.3,6,3.6,2.3,6.2,2.3,4.5-.8,6-2.3,2.3-3.5,2.3-6-.8-4.5-2.3-6.1-3.5-2.4-6-2.4Z"/>
    <rect class="st1" x="741.6" y="150.1" width="13.4" height="56.4"/>
    <path class="st1" d="M677.6,151.5c-3.3-1.8-7.4-2.7-12.4-2.7s-7.1.4-10.7,1.3c-3.6.8-7,2.1-10.2,3.7l4,9.9c2.8-1.3,5.5-2.2,8.1-2.7s5-.8,7.2-.8c3.8,0,6.4.9,8,2.8,1.6,1.8,2.4,3.9,2.4,6.2v4.2s0,0-.2-.1c-3.3-2.5-7.8-3.7-13.2-3.7s-7.8.8-11,2.5-5.6,3.9-7.3,6.8-2.6,6.2-2.6,10,.8,7.3,2.5,10.2c1.7,2.8,4.1,5.1,7.2,6.6,3.1,1.6,6.8,2.4,11.1,2.4s9.4-1.2,12.9-3.6c.9-.6,1.7-1.3,2.5-2.1l1.2,4h10.3v-37c0-4-.8-7.5-2.4-10.6-1.6-3.1-4.1-5.5-7.3-7.3h0ZM671.1,194.9c-1.9,1.5-4.4,2.2-7.5,2.2s-5.6-.7-7.5-2.2-2.8-3.5-2.8-6,.9-4.8,2.8-6.2c1.9-1.4,4.4-2.1,7.5-2.1s5.6.7,7.5,2.1,2.8,3.5,2.8,6.2-.9,4.5-2.8,6Z"/>
    <path class="st1" d="M579.9,124.1c-2.6,0-4.7.8-6.2,2.4s-2.3,3.6-2.3,6.1.8,4.5,2.3,6,3.6,2.3,6.2,2.3,4.5-.8,6-2.3,2.3-3.5,2.3-6-.8-4.5-2.3-6.1-3.5-2.4-6-2.4Z"/>
    <path class="st1" d="M820.3,162.8c-2.4-4.4-5.8-7.9-10.2-10.3-4.4-2.5-9.5-3.7-15.2-3.7s-10.9,1.2-15.2,3.7c-4.4,2.5-7.8,5.9-10.2,10.3s-3.6,9.6-3.6,15.5,1.2,10.9,3.6,15.3c2.4,4.4,5.8,7.9,10.2,10.3s9.5,3.7,15.2,3.7,10.9-1.2,15.2-3.7,7.8-5.9,10.2-10.3,3.6-9.5,3.6-15.3-1.2-11.1-3.6-15.5ZM806.1,190.2c-2.8,3-6.6,4.6-11.2,4.6s-8.4-1.5-11.2-4.6c-2.8-3-4.3-7-4.3-12s1.4-9,4.3-12c2.8-3,6.6-4.5,11.2-4.5s8.4,1.5,11.2,4.6c2.8,3,4.3,7,4.3,12s-1.4,8.9-4.3,12h0Z"/>
    <path class="st1" d="M470.9,64.5c.9-1.1,1.8-2,3-2.7,2.5-1.6,6.4-2.4,11.4-2.4h3.7v-12.1c-.5-.4-1.3-.7-2.4-.8-1-.2-2.1-.2-3.3-.2-2.4,0-4.7.6-7,1.7-2.3,1.2-4.3,2.5-5.9,4.2-.6.5-1.1,1.1-1.5,1.6l-1.4-6.2h-10v56.4h13.4v-39.4h0Z"/>
    <path class="st1" d="M371.7,94c-3,0-5.5-.6-7.6-1.8-2.1-1.2-4.3-3.2-6.6-6l-9.1,6.9c2.8,4.4,6.1,7.5,9.9,9.4,3.9,1.8,7.9,2.8,12,2.8s7.2-.7,10.4-2.2c3.2-1.5,5.7-3.6,7.6-6.3,1.9-2.7,2.9-5.9,2.9-9.6s-1.5-7.9-4.4-10.6c-2.9-2.7-7.8-4.9-14.7-6.5-4.1-.9-6.9-1.9-8.3-3-1.5-1.1-2.2-2.4-2.2-4s.7-3,2.2-3.9,3.1-1.4,5-1.4c3.1,0,5.7.6,7.9,1.9,2.2,1.3,3.9,2.6,5.3,4.1l9.4-7.4c-2.1-2.8-4.9-5.2-8.4-7.2s-7.8-3-12.8-3-7.8.8-10.9,2.4c-3.1,1.6-5.4,3.7-7,6.4s-2.4,5.6-2.4,8.7c0,5,1.5,8.8,4.4,11.3,3,2.5,7.3,4.5,13,6,3.1.8,5.4,1.5,7.1,2.3,1.7.7,2.8,1.5,3.4,2.4.6.8.9,1.8.9,2.9,0,1.6-.6,3-1.8,4-1.2,1.1-2.9,1.6-5.1,1.6v-.2Z"/>
    <path class="st1" d="M263.4,52c-.9-.8-1.9-1.6-2.9-2.2-3.7-2.3-8.1-3.5-13.1-3.5s-9.7,1.2-13.6,3.7c-3.9,2.5-7,5.9-9.2,10.3-2.2,4.4-3.3,9.5-3.3,15.4s1.1,11,3.3,15.4,5.3,7.9,9.2,10.4,8.4,3.8,13.5,3.8,9.4-1.2,13.2-3.7c1.7-1.1,3.2-2.4,4.6-3.9l1.7,6.4h10.2V25.4h-13.4v26.8l-.2-.2ZM260,88.3c-2.7,3.2-6.1,4.8-10.5,4.8s-7.8-1.6-10.6-4.9c-2.7-3.2-4.1-7.5-4.1-12.7s1.4-9.3,4.1-12.5c2.7-3.2,6.3-4.8,10.6-4.8s7.8,1.6,10.5,4.8,4,7.4,4,12.6-1.3,9.5-4,12.6h0Z"/>
    <path class="st1" d="M606.4,102.9c1.8,1,3.9,1.6,6.1,1.6s2.4,0,3.6-.2c1.2-.2,2.3-.4,3.2-.7v-11.4c-1.5,0-2.9-.4-4-1.3-1.2-.8-1.7-2.5-1.7-5.1V25.3h-13.2v65.3c0,3.2.5,5.8,1.6,7.8s2.5,3.6,4.4,4.6h0Z"/>
    <path class="st1" d="M576.6,49.9c-4.4-2.5-9.5-3.7-15.2-3.7s-10.9,1.2-15.2,3.7c-4.4,2.5-7.8,5.9-10.2,10.3-2.4,4.4-3.6,9.6-3.6,15.5s1.2,10.9,3.6,15.3c2.4,4.4,5.8,7.9,10.2,10.3,4.4,2.5,9.5,3.7,15.2,3.7s10.9-1.2,15.2-3.7c4.4-2.5,7.8-5.9,10.2-10.3s3.6-9.5,3.6-15.3-1.2-11.1-3.6-15.5c-2.4-4.4-5.8-7.9-10.2-10.3h0ZM572.5,87.6c-2.8,3-6.6,4.6-11.2,4.6s-8.4-1.5-11.2-4.6c-2.8-3-4.3-7-4.3-12s1.4-9,4.3-12c2.8-3,6.6-4.5,11.2-4.5s8.4,1.5,11.2,4.6c2.8,3,4.3,7,4.3,12s-1.4,8.9-4.3,12h0Z"/>
    <path class="st1" d="M329,50c-4.2-2.5-9.1-3.8-14.7-3.8s-10.4,1.2-14.6,3.7-7.4,5.9-9.8,10.3c-2.3,4.4-3.5,9.6-3.5,15.5s1.2,11,3.5,15.4,5.6,7.8,9.8,10.2c4.2,2.4,9,3.6,14.6,3.6s11.5-1.2,15.7-3.7,7.6-6.1,10.2-10.9l-9.6-5.8c-1.7,2.6-3.7,4.8-6.1,6.6s-5.6,2.7-9.9,2.7-8.4-1.4-11-4.2c-2.4-2.6-3.7-5.9-3.9-10.1h42.3c0-.5.1-1.2.2-1.8v-2.1c0-5.8-1.2-10.9-3.5-15.3-2.3-4.4-5.6-7.9-9.8-10.4h0ZM314.4,56.8c5,0,8.7,1.7,11.2,5.1,1.4,2,2.4,4.3,3,6.9h-28.8c.5-3.1,1.7-5.7,3.7-7.8,2.7-2.8,6.3-4.2,10.8-4.2h0Z"/>
    <path class="st1" d="M710.5,91.1c2.4-4.4,3.6-9.5,3.6-15.3s-1.2-11.1-3.6-15.5c-2.4-4.4-5.8-7.9-10.2-10.3-4.4-2.5-9.5-3.7-15.2-3.7s-10.9,1.2-15.2,3.7c-4.4,2.5-7.8,5.9-10.2,10.3-2.4,4.4-3.6,9.6-3.6,15.5s1.2,10.9,3.6,15.3c2.4,4.4,5.8,7.9,10.2,10.3s9.5,3.7,15.2,3.7,10.9-1.2,15.2-3.7,7.8-5.9,10.2-10.3ZM696.2,87.6c-2.8,3-6.6,4.6-11.2,4.6s-8.4-1.5-11.2-4.6c-2.9-3-4.3-7-4.3-12s1.4-9,4.3-12c2.8-3,6.6-4.5,11.2-4.5s8.4,1.5,11.2,4.6c2.8,3,4.3,7,4.3,12s-1.4,8.9-4.3,12h0Z"/>
    <path class="st1" d="M645.6,104.2c1.2-.2,2.3-.4,3.2-.7v-11.4c-1.5,0-2.9-.4-4-1.3-1.2-.8-1.7-2.5-1.7-5.1V25.2h-13.2v65.3c0,3.2.5,5.8,1.6,7.8s2.5,3.6,4.4,4.6c1.8,1,3.9,1.6,6.1,1.6s2.4,0,3.6-.2h0Z"/>
    <path class="st1" d="M434.4,48.9c-3.3-1.8-7.4-2.7-12.4-2.7s-7.1.4-10.7,1.3c-3.6.8-7,2.1-10.2,3.7l4,9.9c2.8-1.3,5.5-2.2,8.1-2.7s5-.8,7.2-.8c3.8,0,6.4.9,8,2.8,1.6,1.8,2.4,3.9,2.4,6.2v4.2s-.1,0-.2-.1c-3.4-2.5-7.8-3.7-13.2-3.7s-7.8.8-11,2.5-5.6,3.9-7.3,6.8c-1.7,2.8-2.6,6.2-2.6,10s.8,7.3,2.5,10.2c1.7,2.8,4.1,5.1,7.2,6.6,3.1,1.6,6.8,2.4,11.1,2.4s9.4-1.2,12.9-3.6c.9-.6,1.7-1.3,2.5-2.1l1.2,4h10.3v-37c0-4-.8-7.5-2.4-10.6s-4.1-5.5-7.3-7.3h-.1ZM428,92.3c-1.9,1.5-4.4,2.2-7.5,2.2s-5.6-.7-7.4-2.2c-1.9-1.5-2.8-3.5-2.8-6s.9-4.8,2.8-6.2,4.4-2.1,7.4-2.1,5.6.7,7.5,2.1c1.9,1.4,2.8,3.5,2.8,6.2s-.9,4.5-2.8,6Z"/>
    <path class="st1" d="M511.7,64.5c.9-1.1,1.8-2,3-2.7,2.5-1.6,6.4-2.4,11.4-2.4h3.7v-12.1c-.5-.4-1.3-.7-2.4-.8-1-.2-2.1-.2-3.3-.2-2.4,0-4.7.6-7,1.7-2.3,1.2-4.3,2.5-5.9,4.2-.6.5-1.1,1.1-1.5,1.6l-1.4-6.2h-10v56.4h13.4v-39.4h0Z"/>
  </g>
  <path class="st1" d="M81.6,71.6c8.8-4.2,18.1-5.5,27.7-3.9,1.9.3,2.3,0,1.7-1.8-2.9-9-4.4-18.1-4.5-27.6,0-1.5-.4-2.4-2.1-2.5-10.6-.3-20.9,1.4-30.8,5.2-9.9,3.9-18.7,9.6-26.3,17.2-2.8,2.8-5.3,5.7-7.6,8.7,6.6,3.9,13.8,7,21.6,9.1,3.4.9,6.8,1.6,10.2,2.1,3-2.5,6.4-4.7,10.2-6.5"/>
  <g class="st0">
    <path class="st1" d="M50.5,115.2c.7-9.7,4.3-18.4,10.5-26,1.2-1.5,1.1-2-.7-2.4-9.2-2-17.9-5.2-26.1-9.9-1.3-.8-2.3-.9-3.2.6-5.6,9.1-9.3,18.8-10.9,29.3-1.6,10.6-1.1,21,1.7,31.4,1,3.8,2.2,7.4,3.7,11,6.7-3.8,13-8.5,18.7-14.2,2.5-2.5,4.8-5.1,6.9-7.8-.7-3.9-.9-7.9-.6-12.1"/>
  </g>
  <path class="st1" d="M72.7,163.9c-8.1-5.5-13.8-12.9-17.2-22-.7-1.8-1.2-1.9-2.4-.5-6.3,7-13.5,12.9-21.6,17.6-1.3.8-1.9,1.6-1.1,3.1,5.1,9.3,11.7,17.4,20,24.1s17.7,11.4,28,14.2c3.8,1,7.6,1.8,11.4,2.3,0-7.7-.9-15.5-3-23.2-.9-3.4-2-6.7-3.3-9.9-3.7-1.4-7.3-3.2-10.7-5.6"/>
  <path class="st1" d="M126,169c-8.8,4.2-18.1,5.5-27.7,3.9-1.9-.3-2.3,0-1.7,1.8,2.9,9,4.4,18.1,4.5,27.6,0,1.5.4,2.4,2.1,2.5,10.6.3,20.9-1.4,30.8-5.2,9.9-3.9,18.7-9.6,26.3-17.2,2.8-2.8,5.3-5.7,7.6-8.7-6.6-3.9-13.8-7-21.6-9.1-3.4-.9-6.8-1.6-10.2-2.1-3,2.5-6.4,4.7-10.2,6.5"/>
  <path class="st1" d="M157.1,125.4c-.7,9.7-4.3,18.4-10.5,26-1.2,1.5-1.1,2,.7,2.4,9.2,2,17.9,5.2,26.1,9.9,1.3.8,2.3.9,3.2-.6,5.6-9.1,9.3-18.8,10.9-29.3,1.6-10.6,1.1-21-1.7-31.4-1-3.8-2.2-7.4-3.7-11-6.7,3.8-13,8.5-18.7,14.2-2.5,2.5-4.8,5.1-6.9,7.8.7,3.9.9,7.9.6,12.1"/>
  <path class="st1" d="M134.9,76.7c8.1,5.5,13.8,12.9,17.2,22,.7,1.8,1.2,1.9,2.4.5,6.3-7,13.5-12.9,21.6-17.6,1.3-.8,1.9-1.6,1.1-3.1-5.1-9.3-11.7-17.4-20-24.1-8.3-6.7-17.7-11.4-28-14.2-3.8-1-7.6-1.8-11.4-2.3,0,7.7.9,15.5,3,23.2.9,3.4,2,6.7,3.3,9.9,3.7,1.4,7.3,3.2,10.7,5.6"/>
</svg>