<?xml version="1.0" encoding="UTF-8"?>
<svg id="Capa_1" xmlns="http://www.w3.org/2000/svg" version="1.1" viewBox="0 0 841.9 255">
  <!-- Generator: Adobe Illustrator 30.3.0, SVG Export Plug-In . SVG Version: 2.1.3 Build 182)  -->
  <defs>
    <style>
      .st0 {
        fill: #5053a0;
      }

      .st1 {
        fill: #50529f;
        isolation: isolate;
        opacity: .4;
      }
    </style>
  </defs>
  <path class="st1" d="M138.3,215.8c-3.7-11.2-9.2-21.7-16.1-31.4-.3-.4-.5-.7-.6-1-3,.3-6.1.4-9.3.3-33.6-1.4-59.8-29.9-58.3-63.5h0c1.4-33.6,29.9-59.8,63.5-58.3,16.3.7,31.3,7.7,42.3,19.7l.2.2c10.9,12,16.5,27.5,15.8,43.6-.5,11.3-4,22.1-10.2,31.3,3.6-.4,7.3-.6,11-.6,9.5,0,18.7,1.2,27.6,3.4,4.2-10.2,6.6-21.2,7.1-32.5,1.1-25.8-7.9-50.4-25.3-69.4-17.4-19-41.2-30-67-31.1-53.2-2.3-98.3,39.2-100.5,92.3h0c-1.1,26.4,8.5,50.9,25.1,69,16.7,18.4,40.5,30.3,67.2,31.5,9.4.4,18.7-.6,27.7-2.8,0-.2-.1-.3-.2-.5"/>
  <path class="st0" d="M186.2,33.4c3.9,11.2,9.6,21.5,16.6,31.1.3.4.5.7.7,1,3-.4,6.1-.5,9.2-.5,33.6.8,60.3,28.8,59.5,62.4h0c-.8,33.6-28.8,60.3-62.4,59.5-16.3-.4-31.4-7.1-42.7-18.9,0,0-.1-.1-.2-.2-11.1-11.8-17-27.1-16.6-43.3.3-11.4,3.6-22.1,9.6-31.5-3.6.5-7.3.8-11,.8-9.5.2-18.7-.8-27.7-2.9-4,10.3-6.2,21.3-6.5,32.7-.6,25.8,8.8,50.3,26.6,68.9,17.8,18.7,41.8,29.3,67.5,29.9,53.2,1.3,97.5-41,98.8-94.2h0c.6-26.5-9.5-50.7-26.4-68.6-17.1-18.1-41.1-29.6-67.8-30.2-9.5-.2-18.7.9-27.6,3.3,0,.2.1.3.2.5"/>
  <g>
    <path class="st0" d="M354.9,76.3c-3,0-5.3.9-7.1,2.7-1.7,1.8-2.6,4.1-2.6,6.9s.9,5.1,2.6,6.9c1.7,1.8,4.1,2.6,7.1,2.6s5.1-.9,6.9-2.6,2.6-4,2.6-6.9-.9-5.1-2.6-6.9c-1.8-1.8-4-2.7-6.9-2.7Z"/>
    <path class="st0" d="M496.3,148.4c-.9,1-1.9,2-3,2.9-2.2,1.8-4.5,3.1-7,4.1s-5,1.5-7.6,1.5-4.8-.7-6.7-2.2c-1.9-1.5-2.8-4.3-2.8-8.5v-40.1h-15.3v38.7c0,3.5.2,6.9.7,10.2.5,3.3,1.4,6.2,2.8,8.7,1.4,2.6,3.5,4.6,6.4,6.1s6.7,2.2,11.6,2.2,6.4-.6,9.5-1.7,6-2.7,8.8-4.7c1.5-1,2.8-2.2,4.1-3.4l2.2,8.3h11.5v-64.4h-15.3v42.4h0Z"/>
    <path class="st0" d="M425.3,112.9c-1.6-1.7-3.4-3.2-5.4-4.5-4.2-2.6-9.1-3.9-14.7-3.9s-11.1,1.3-15.6,4c-4.5,2.6-8.1,6.3-10.6,10.9s-3.8,10.1-3.8,16.3,1.3,11.6,3.8,16.2c2.6,4.7,6.1,8.3,10.6,10.8,4.5,2.6,9.7,3.8,15.6,3.8s10.5-1.3,14.7-3.8c1.3-.8,2.4-1.6,3.5-2.6v4.5c0,6.3-1.5,11-4.4,14.1-3,3.1-6.8,4.6-11.7,4.6s-7-.9-9.5-2.6c-2.5-1.8-4.8-4.4-7-8.1l-11.8,6.1,1.1,2c2,3.9,4.4,7,7.3,9.3,2.8,2.3,5.9,4,9.3,5s6.9,1.5,10.5,1.5c6.3,0,11.7-1.3,16.4-3.9,4.7-2.6,8.4-6.5,11.1-11.7s4-11.6,4-19.1v-56h-11.6l-1.8,6.9v.2ZM419.6,148.4c-3.1,3.3-7.1,5-12,5s-9-1.7-12.1-5-4.7-7.5-4.7-12.7,1.6-9.7,4.7-13,7.2-5,12.1-5,8.9,1.7,12,5,4.6,7.6,4.6,12.9-1.5,9.6-4.6,12.9h0Z"/>
    <rect class="st0" x="347.3" y="106" width="15.3" height="64.4"/>
    <path class="st0" d="M809.6,80.5v30.6c-1.1-.9-2.2-1.8-3.4-2.6-4.3-2.7-9.3-4-15-4s-11.1,1.4-15.6,4.2c-4.5,2.8-8,6.7-10.5,11.8-2.5,5-3.8,10.9-3.8,17.6s1.3,12.6,3.8,17.6c2.5,5.1,6,9,10.5,11.9s9.6,4.3,15.5,4.3,10.7-1.4,15.1-4.2c1.9-1.3,3.7-2.8,5.2-4.5l1.9,7.3h11.6v-89.9h-15.3ZM805.7,152.6c-3,3.7-7,5.5-12,5.5s-9-1.8-12.1-5.5-4.7-8.5-4.7-14.5,1.6-10.7,4.7-14.3c3.1-3.7,7.2-5.5,12.1-5.5s8.9,1.8,12,5.5c3,3.7,4.6,8.5,4.6,14.5s-1.5,10.8-4.6,14.5v-.2Z"/>
    <path class="st0" d="M739,107.6c-3.7-2.1-8.5-3.1-14.2-3.1s-8.1.5-12.2,1.5c-4.1,1-8,2.4-11.7,4.2l4.6,11.4c3.2-1.5,6.3-2.5,9.2-3.1,3-.6,5.7-.9,8.2-.9,4.3,0,7.4,1.1,9.2,3.2s2.7,4.5,2.7,7.1v4.8s0-.1-.2-.2c-3.8-2.8-8.9-4.2-15.1-4.2s-8.9.9-12.5,2.8-6.4,4.5-8.4,7.7c-2,3.3-3,7.1-3,11.5s1,8.4,2.9,11.6c1.9,3.3,4.7,5.8,8.3,7.6,3.6,1.8,7.8,2.7,12.7,2.7s10.7-1.4,14.7-4.1c1-.7,2-1.5,2.8-2.4l1.3,4.6h11.8v-42.3c0-4.6-.9-8.6-2.8-12.1-1.8-3.5-4.6-6.3-8.4-8.4h.1ZM731.6,157.2c-2.2,1.7-5,2.5-8.5,2.5s-6.4-.8-8.5-2.5c-2.2-1.7-3.2-4-3.2-6.9s1.1-5.4,3.2-7.1c2.2-1.6,5-2.4,8.5-2.4s6.4.8,8.5,2.4c2.2,1.6,3.2,4,3.2,7.1s-1.1,5.2-3.2,6.9Z"/>
    <path class="st0" d="M668.5,111.1c-1.1-.9-2.2-1.8-3.4-2.6-4.3-2.7-9.3-4-15-4s-11.1,1.4-15.6,4.2c-4.5,2.8-8,6.7-10.5,11.8-2.5,5-3.8,10.9-3.8,17.6s1.3,12.6,3.8,17.6c2.5,5.1,6,9,10.5,11.9s9.6,4.3,15.5,4.3,10.7-1.4,15.1-4.2c1.9-1.3,3.7-2.8,5.2-4.5l1.9,7.3h11.6v-89.9h-15.3v30.6h0ZM664.6,152.6c-3,3.7-7,5.5-12,5.5s-9-1.8-12.1-5.5-4.7-8.5-4.7-14.5,1.6-10.7,4.7-14.3c3.1-3.7,7.2-5.5,12.1-5.5s8.9,1.8,12,5.5c3,3.7,4.6,8.5,4.6,14.5s-1.5,10.8-4.6,14.5v-.2Z"/>
    <path class="st0" d="M565.9,107.6c-3.7-2.1-8.5-3.1-14.2-3.1s-8.1.5-12.2,1.5c-4.1,1-8,2.4-11.7,4.2l4.6,11.4c3.2-1.5,6.2-2.5,9.2-3.1s5.7-.9,8.2-.9c4.3,0,7.4,1.1,9.2,3.2s2.7,4.5,2.7,7.1v4.8s0-.1-.2-.2c-3.8-2.8-8.9-4.2-15.1-4.2s-8.9.9-12.5,2.8-6.4,4.5-8.4,7.7c-2,3.3-3,7.1-3,11.5s1,8.4,2.9,11.6c1.9,3.3,4.7,5.8,8.3,7.6,3.6,1.8,7.8,2.7,12.7,2.7s10.7-1.4,14.7-4.1c1-.7,2-1.5,2.8-2.4l1.3,4.6h11.8v-42.3c0-4.6-.9-8.6-2.8-12.1-1.8-3.5-4.6-6.3-8.4-8.4h.1ZM558.5,157.2c-2.2,1.7-5,2.5-8.5,2.5s-6.4-.8-8.5-2.5c-2.2-1.7-3.2-4-3.2-6.9s1.1-5.4,3.2-7.1c2.2-1.6,5-2.4,8.5-2.4s6.4.8,8.5,2.4c2.2,1.6,3.2,4,3.2,7.1s-1.1,5.2-3.2,6.9Z"/>
    <path class="st0" d="M605.7,149.7v-69.2h-15.1v74.6c0,3.6.6,6.6,1.8,8.9s2.9,4.1,5,5.3c2.1,1.2,4.4,1.8,7,1.8s2.8,0,4.2-.3c1.4-.2,2.6-.4,3.6-.8v-13.1c-1.8,0-3.3-.5-4.6-1.5s-2-2.9-2-5.8h0Z"/>
  </g>
</svg>